SplineFontDB: 3.0
FontName: BowlbyOneSC-Regular
FullName: Bowlby One SC Regular
FamilyName: Bowlby One SC Regular
Weight: Book
Copyright: Copyright (c) 2011 by vernon adams. All rights reserved.
Version: 1.000
ItalicAngle: 0
UnderlinePosition: -52
UnderlineWidth: 51
Ascent: 819
Descent: 205
sfntRevision: 0x00010000
LayerCount: 2
Layer: 0 1 "Back"  1
Layer: 1 1 "Fore"  0
XUID: [1021 288 713564382 9974866]
FSType: 0
OS2Version: 3
OS2_WeightWidthSlopeOnly: 0
OS2_UseTypoMetrics: 1
CreationTime: 1306853989
ModificationTime: 1309529694
PfmFamily: 17
TTFWeight: 400
TTFWidth: 5
LineGap: 0
VLineGap: 0
Panose: 2 0 5 5 6 0 0 2 0 4
OS2TypoAscent: 1124
OS2TypoAOffset: 0
OS2TypoDescent: -438
OS2TypoDOffset: 0
OS2TypoLinegap: 0
OS2WinAscent: 1124
OS2WinAOffset: 0
OS2WinDescent: 438
OS2WinDOffset: 0
HheadAscent: 1124
HheadAOffset: 0
HheadDescent: -438
HheadDOffset: 0
OS2SubXSize: 666
OS2SubYSize: 614
OS2SubXOff: 0
OS2SubYOff: 77
OS2SupXSize: 666
OS2SupYSize: 614
OS2SupXOff: 0
OS2SupYOff: 358
OS2StrikeYSize: 51
OS2StrikeYPos: 256
OS2Vendor: 'newt'
OS2CodePages: 00000001.00000000
OS2UnicodeRanges: 800000ef.4000a04b.00000000.00000000
Lookup: 258 0 0 "'kern' Horizontal Kerning in Latin lookup 0"  {"'kern' Horizontal Kerning in Latin lookup 0 subtable"  } ['kern' ('latn' <'dflt' > ) ]
MarkAttachClasses: 1
DEI: 91125
TtTable: prep
PUSHW_1
 511
SCANCTRL
PUSHB_1
 1
SCANTYPE
SVTCA[y-axis]
MPPEM
PUSHB_1
 8
LT
IF
PUSHB_2
 1
 1
INSTCTRL
EIF
PUSHB_2
 70
 6
CALL
IF
POP
PUSHB_1
 16
EIF
MPPEM
PUSHB_1
 20
GT
IF
POP
PUSHB_1
 128
EIF
SCVTCI
PUSHB_1
 6
CALL
NOT
IF
SVTCA[y-axis]
PUSHB_1
 3
DUP
RCVT
PUSHB_1
 3
CALL
WCVTP
PUSHB_1
 11
DUP
RCVT
PUSHB_3
 3
 83
 2
CALL
PUSHB_1
 3
CALL
WCVTP
PUSHB_1
 10
DUP
RCVT
PUSHB_3
 11
 45
 2
CALL
PUSHB_1
 3
CALL
WCVTP
PUSHB_1
 9
DUP
RCVT
PUSHB_3
 10
 31
 2
CALL
PUSHB_1
 3
CALL
WCVTP
PUSHB_1
 8
DUP
RCVT
PUSHB_3
 9
 112
 2
CALL
PUSHB_1
 3
CALL
WCVTP
PUSHB_1
 7
DUP
RCVT
PUSHB_3
 8
 17
 2
CALL
PUSHB_1
 3
CALL
WCVTP
PUSHB_1
 6
DUP
RCVT
PUSHB_3
 7
 12
 2
CALL
PUSHB_1
 3
CALL

StartChar: exclam
Encoding: 33 33 4
Width: 396
GlyphClass: 2
Flags: W
LayerCount: 2
Fore
SplineSet
46 731 m 0,0,1
 46 739 46 739 58 742 c 128,-1,2
 70 745 70 745 85 746 c 128,-1,3
 100 747 100 747 114 747.5 c 128,-1,4
 128 748 128 748 130 748 c 2,5,-1
 160 748 l 1,6,-1
 190 750 l 2,7,8
 218 752 218 752 247 753 c 128,-1,9
 276 754 276 754 308 754 c 0,10,11
 326 754 326 754 339.5 750 c 128,-1,12
 353 746 353 746 353 734 c 2,13,-1
 353 732 l 1,14,-1
 335 506 l 2,15,16
 325 392 325 392 313 279 c 0,17,18
 312 268 312 268 296 264.5 c 128,-1,19
 280 261 280 261 258 261 c 0,20,21
 248 261 248 261 238.5 261.5 c 128,-1,22
 229 262 229 262 219 262 c 0,23,24
 199 262 199 262 179.5 261 c 128,-1,25
 160 260 160 260 140 260 c 2,26,-1
 125 260 l 2,27,28
 118 260 118 260 111 260 c 128,-1,29
 104 260 104 260 97 260 c 1,30,31
 85 264 85 264 80.5 275 c 128,-1,32
 76 286 76 286 74 300 c 128,-1,33
 72 314 72 314 72 329 c 128,-1,34
 72 344 72 344 72 356 c 2,35,-1
 62 482 l 1,36,-1
 56 577 l 2,37,38
 53 623 53 623 49 672 c 1,39,40
 49 687 49 687 47.5 701.5 c 128,-1,41
 46 716 46 716 46 731 c 0,0,1
56 6 m 1,42,43
 56 20 56 20 56 38 c 2,44,-1
 58 76 l 2,45,46
 58 95 58 95 59 113 c 128,-1,47
 60 131 60 131 62 145.5 c 128,-1,48
 64 160 64 160 67 169 c 128,-1,49
 70 178 70 178 74 178 c 2,50,-1
 172 178 l 2,51,52
 214 178 214 178 242 177 c 128,-1,53
 270 176 270 176 287 175 c 128,-1,54
 304 174 304 174 313.5 172 c 128,-1,55
 323 170 323 170 326 167 c 128,-1,56
 329 164 329 164 329 160 c 0,57,58
 329 158 329 158 328.5 154 c 128,-1,59
 328 150 328 150 328 146 c 0,60,61
 328 130 328 130 328 115 c 2,62,-1
 328 84 l 2,63,64
 328 63 328 63 328 42 c 0,65,66
 328 22 328 22 330 2 c 1,67,68
 329 -2 329 -2 320.5 -5 c 128,-1,69
 312 -8 312 -8 299 -9.5 c 128,-1,70
 286 -11 286 -11 269 -11.5 c 128,-1,71
 252 -12 252 -12 236 -12.5 c 128,-1,72
 220 -13 220 -13 205 -13 c 0,73,74
 190 -14 190 -14 181 -14 c 0,75,76
 154 -14 154 -14 127 -15 c 128,-1,77
 100 -16 100 -16 73 -16 c 1,78,-1
 66 -8 l 2,79,80
 62 -4 62 -4 60 0 c 2,81,-1
 56 6 l 1,42,43
EndSplineSet
EndChar

StartChar: quotedbl
Encoding: 34 34 5
Width: 642
GlyphClass: 2
Flags: W
LayerCount: 2
Fore
SplineSet
90 436 m 1,0,1
 90 454 90 454 90 472 c 1,2,3
 91 488 91 488 92 506 c 2,4,-1
 94 627 l 2,5,6
 94 644 94 644 95 661 c 128,-1,7
 96 678 96 678 96 694 c 0,8,9
 96 698 96 698 96 705 c 128,-1,10
 96 712 96 712 96 720 c 0,11,12
 96 732 96 732 98 742.5 c 128,-1,13
 100 753 100 753 107 755 c 1,14,15
 128 755 128 755 149 754.5 c 128,-1,16
 170 754 170 754 190 754 c 1,17,-1
 200 755 l 2,18,19
 212 756 212 756 226 756 c 0,20,21
 238 756 238 756 251 755 c 128,-1,22
 264 754 264 754 275 752 c 128,-1,23
 286 750 286 750 293 747 c 128,-1,24
 300 744 300 744 300 738 c 0,25,26
 300 737 300 737 300 733 c 0,27,28
 302 664 302 664 304 592 c 128,-1,29
 306 520 306 520 306 450 c 0,30,31
 306 440 306 440 304 434 c 128,-1,32
 302 428 302 428 298 425 c 128,-1,33
 294 422 294 422 286 421 c 128,-1,34
 278 420 278 420 268 420 c 0,35,36
 262 420 262 420 255 420.5 c 128,-1,37
 248 421 248 421 239 421 c 2,38,-1
 173 420 l 2,39,40
 140 420 140 420 107 418 c 1,41,-1
 98 427 l 2,42,43
 94 432 94 432 90 436 c 1,0,1
350 461 m 0,44,45
 350 471 350 471 350 481.5 c 128,-1,46
 350 492 350 492 350 502 c 2,47,-1
 355 632 l 2,48,49
 356 650 356 650 356 668 c 128,-1,50
 356 686 356 686 356 703 c 0,51,52
 356 706 356 706 356 711 c 128,-1,53
 356 716 356 716 356 722 c 128,-1,54
 356 728 356 728 356 733.5 c 128,-1,55
 356 739 356 739 357 743.5 c 128,-1,56
 358 748 358 748 360 752 c 0,57,58
 363 756 363 756 367 756 c 2,59,-1
 396 756 l 1,60,-1
 427 756 l 2,61,62
 444 756 444 756 462 755 c 2,63,-1
 497 754 l 2,64,65
 515 754 515 754 528.5 753 c 128,-1,66
 542 752 542 752 550 750 c 128,-1,67
 558 748 558 748 558 746 c 0,68,69
 558 745 558 745 558 743.5 c 128,-1,70
 558 742 558 742 558 740 c 0,71,72
 562 666 562 666 563 595 c 128,-1,73
 564 524 564 524 564 448 c 0,74,75
 564 438 564 438 562 431 c 128,-1,76
 560 424 560 424 552 424 c 2,77,-1
 551 424 l 1,78,-1
 550 425 l 1,79,-1
 494 423 l 1,80,81
 462 423 462 423 430 421.5 c 128,-1,82
 398 420 398 420 366 419 c 1,83,-1
 360 428 l 2,84,85
 357 432 357 432 354.5 436.5 c 128,-1,86
 352 441 352 441 351 447 c 128,-1,87
 350 453 350 453 350 461 c 0,44,45
EndSplineSet
EndChar

StartChar: numbersign
Encoding: 35 35 6
Width: 774
GlyphClass: 2
Flags: W
LayerCount: 2
Fore
SplineSet
112 220 m 0,0,1
 112 239 112 239 112.5 264.5 c 128,-1,2
 113 290 113 290 113 316 c 0,3,4
 113 328 113 328 123.5 331 c 128,-1,5
 134 334 134 334 148 334 c 0,6,7
 164 334 164 334 177 334 c 128,-1,8
 190 334 190 334 206 334 c 1,9,-1
 216 406 l 1,10,-1
 204 406 l 2,11,12
 194 406 194 406 183 406 c 128,-1,13
 172 406 172 406 163.5 408 c 128,-1,14
 155 410 155 410 149.5 414 c 128,-1,15
 144 418 144 418 144 424 c 0,16,17
 144 452 144 452 145 481 c 128,-1,18
 146 510 146 510 146 539 c 0,19,20
 146 545 146 545 151 548.5 c 128,-1,21
 156 552 156 552 164.5 554 c 128,-1,22
 173 556 173 556 183 556.5 c 128,-1,23
 193 557 193 557 203 557 c 0,24,25
 214 557 214 557 223 556.5 c 128,-1,26
 232 556 232 556 235 556 c 0,27,28
 236 556 236 556 238 569 c 128,-1,29
 240 582 240 582 244 601 c 1,30,-1
 250 643 l 1,31,-1
 256 688 l 1,32,-1
 262 724 l 2,33,34
 264 740 264 740 265 744 c 0,35,36
 267 748 267 748 278.5 750.5 c 128,-1,37
 290 753 290 753 306 754 c 128,-1,38
 322 755 322 755 340 755 c 2,39,-1
 374 755 l 2,40,41
 390 755 390 755 400 752.5 c 128,-1,42
 410 750 410 750 413 740 c 1,43,44
 405 693 405 693 399.5 645.5 c 128,-1,45
 394 598 394 598 386 551 c 1,46,-1
 435 551 l 1,47,48
 437 567 437 567 439 586 c 2,49,-1
 442 626 l 2,50,51
 444 647 444 647 447 667.5 c 128,-1,52
 450 688 450 688 453 705 c 128,-1,53
 456 722 456 722 459.5 734.5 c 128,-1,54
 463 747 463 747 468 752 c 1,55,56
 478 751 478 751 488 751 c 2,57,-1
 508 751 l 1,58,-1
 536 751 l 1,59,-1
 588 751 l 2,60,61
 596 751 596 751 600.5 749.5 c 128,-1,62
 605 748 605 748 605 739 c 1,63,-1
 584 578 l 1,64,-1
 581 552 l 1,65,66
 586 552 586 552 590 552 c 0,67,68
 596 552 596 552 600 552 c 0,69,70
 610 552 610 552 620 552 c 0,71,72
 632 552 632 552 642 552 c 1,73,74
 650 551 650 551 652 540 c 128,-1,75
 654 529 654 529 654 516 c 0,76,77
 654 509 654 509 654 502.5 c 128,-1,78
 654 496 654 496 654 490 c 2,79,-1
 654 464 l 2,80,81
 654 455 654 455 654.5 446.5 c 128,-1,82
 655 438 655 438 655 430 c 0,83,84
 655 420 655 420 641.5 415.5 c 128,-1,85
 628 411 628 411 612 410 c 128,-1,86
 596 409 596 409 581 410 c 128,-1,87
 566 411 566 411 563 411 c 1,88,89
 560 391 560 391 558 371.5 c 128,-1,90
 556 352 556 352 553 332 c 1,91,-1
 575 332 l 1,92,-1
 604 332 l 1,93,-1
 608 332 l 2,94,95
 610 332 610 332 613 333 c 1,96,97
 624 330 624 330 627 322 c 1,98,-1
 627 248 l 2,99,100
 627 236 627 236 627.5 224 c 128,-1,101
 628 212 628 212 628 200 c 1,102,103
 626 188 626 188 614 189 c 1,104,105
 595 189 595 189 576 190 c 128,-1,106
 557 191 557 191 537 191 c 1,107,-1
 531 146 l 1,108,-1
 526 100 l 2,109,110
 525 92 525 92 525.5 80 c 128,-1,111
 526 68 526 68 525 55.5 c 128,-1,112
 524 43 524 43 521.5 30.5 c 128,-1,113
 519 18 519 18 512.5 8 c 128,-1,114
 506 -2 506 -2 495 -8 c 128,-1,115
 484 -14 484 -14 466 -14 c 0,116,117
 460 -14 460 -14 449 -14.5 c 128,-1,118
 438 -15 438 -15 424 -15 c 0,119,120
 412 -15 412 -15 401 -14.5 c 128,-1,121
 390 -14 390 -14 381 -11.5 c 128,-1,122
 372 -9 372 -9 366 -5.5 c 128,-1,123
 360 -2 360 -2 359 4 c 1,124,125
 365 48 365 48 370 94 c 0,126,127
 375 138 375 138 382 184 c 1,128,129
 372 183 372 183 362 183 c 0,130,131
 352 182 352 182 342 180 c 1,132,-1
 326 42 l 2,133,134
 324 31 324 31 323 20.5 c 128,-1,135
 322 10 322 10 318.5 2 c 128,-1,136
 315 -6 315 -6 307.5 -11.5 c 128,-1,137
 300 -17 300 -17 286 -17 c 0,138,139
 258 -17 258 -17 230 -16.5 c 128,-1,140
 202 -16 202 -16 175 -15 c 1,141,142
 171 -9 171 -9 167.5 -3.5 c 128,-1,143
 164 2 164 2 160 8 c 1,144,145
 166 52 166 52 172 94 c 128,-1,146
 178 136 178 136 184 182 c 1,147,-1
 172 182 l 2,148,149
 152 182 152 182 140 182.5 c 128,-1,150
 128 183 128 183 122 186.5 c 128,-1,151
 116 190 116 190 114 198 c 128,-1,152
 112 206 112 206 112 220 c 0,0,1
334 324 m 2,153,154
 334 318 334 318 336 314 c 128,-1,155
 338 310 338 310 344 310 c 0,156,157
 347 310 347 310 350 310 c 0,158,159
 354 310 354 310 356 310 c 2,160,-1
 413 313 l 1,161,162
 420 312 420 312 422 320 c 2,163,-1
 440 420 l 1,164,165
 438 434 438 434 426 434 c 2,166,-1
 402 434 l 1,167,168
 390 436 390 436 380 436 c 2,169,-1
 358 436 l 1,170,-1
 351 423 l 1,171,172
 346 397 346 397 342 373 c 2,173,-1
 334 324 l 2,153,154
EndSplineSet
EndChar

StartChar: dollar
Encoding: 36 36 7
Width: 722
GlyphClass: 2
Flags: W
LayerCount: 2
Fore
SplineSet
11 226 m 0,0,1
 11 238 11 238 21.5 242 c 128,-1,2
 32 246 32 246 45 246 c 0,3,4
 53 246 53 246 60.5 245 c 128,-1,5
 68 244 68 244 74 244 c 2,6,-1
 298 244 l 2,7,8
 306 244 306 244 309 238 c 128,-1,9
 312 232 312 232 314 223 c 128,-1,10
 316 214 316 214 318 204 c 128,-1,11
 320 194 320 194 326 185.5 c 128,-1,12
 332 177 332 177 342 171.5 c 128,-1,13
 352 166 352 166 371 166 c 0,14,15
 383 166 383 166 394.5 169 c 128,-1,16
 406 172 406 172 414.5 178 c 128,-1,17
 423 184 423 184 428.5 193.5 c 128,-1,18
 434 203 434 203 434 216 c 0,19,20
 434 224 434 224 430 230 c 128,-1,21
 426 236 426 236 419 240 c 128,-1,22
 412 244 412 244 405 246 c 128,-1,23
 398 248 398 248 390 248 c 1,24,25
 384 251 384 251 369 255.5 c 128,-1,26
 354 260 354 260 334 265 c 2,27,-1
 288 277 l 2,28,29
 263 283 263 283 238 290.5 c 128,-1,30
 213 298 213 298 189.5 306 c 128,-1,31
 166 314 166 314 148 322 c 0,32,33
 116 336 116 336 93 356.5 c 128,-1,34
 70 377 70 377 55.5 401.5 c 128,-1,35
 41 426 41 426 34.5 454 c 128,-1,36
 28 482 28 482 28 511 c 0,37,38
 28 557 28 557 38.5 592.5 c 128,-1,39
 49 628 49 628 67.5 654 c 128,-1,40
 86 680 86 680 110 698 c 128,-1,41
 134 716 134 716 162 729 c 128,-1,42
 190 742 190 742 218 750 c 0,43,44
 246 759 246 759 274 765 c 1,45,46
 273 779 273 779 273 795 c 0,47,48
 273 810 273 810 273 832 c 0,49,50
 273 844 273 844 274 854 c 0,51,52
 276 864 276 864 284 866 c 1,53,54
 294 866 294 866 304 866 c 128,-1,55
 314 866 314 866 324 866 c 0,56,57
 350 866 350 866 374 866.5 c 128,-1,58
 398 867 398 867 424 867 c 0,59,60
 430 867 430 867 434 862.5 c 128,-1,61
 438 858 438 858 440 851.5 c 128,-1,62
 442 845 442 845 443 835.5 c 128,-1,63
 444 826 444 826 444 817 c 0,64,65
 444 803 444 803 443 788.5 c 128,-1,66
 442 774 442 774 442 764 c 1,67,68
 480 761 480 761 518 753.5 c 128,-1,69
 556 746 556 746 589 729 c 128,-1,70
 622 712 622 712 648 685 c 128,-1,71
 674 658 674 658 688 616 c 0,72,73
 692 603 692 603 694.5 593.5 c 128,-1,74
 697 584 697 584 698.5 575 c 128,-1,75
 700 566 700 566 700 556 c 128,-1,76
 700 546 700 546 702 532 c 1,77,78
 700 524 700 524 694 524 c 0,79,80
 693 524 693 524 691.5 524 c 128,-1,81
 690 524 690 524 688 524 c 0,82,83
 630 524 630 524 574 522 c 0,84,85
 518 519 518 519 460 519 c 0,86,87
 448 519 448 519 441 520 c 128,-1,88
 434 521 434 521 430 524 c 128,-1,89
 426 527 426 527 424 532.5 c 128,-1,90
 422 538 422 538 420 546 c 0,91,92
 416 561 416 561 405 571.5 c 128,-1,93
 394 582 394 582 370 582 c 1,94,95
 360 580 360 580 350 578 c 128,-1,96
 340 576 340 576 332 573 c 128,-1,97
 324 570 324 570 318 564 c 128,-1,98
 312 558 312 558 312 548 c 0,99,100
 312 534 312 534 325 525 c 128,-1,101
 338 516 338 516 357 510 c 128,-1,102
 376 504 376 504 396 500 c 1,103,104
 416 498 416 498 430 494 c 2,105,-1
 483 481 l 2,106,107
 523 471 523 471 563 458 c 1,108,109
 602 444 602 444 636 424 c 1,110,111
 684 388 684 388 708 337 c 128,-1,112
 732 286 732 286 732 228 c 0,113,114
 732 186 732 186 720.5 152.5 c 128,-1,115
 709 119 709 119 689.5 92.5 c 128,-1,116
 670 66 670 66 643 47 c 128,-1,117
 616 28 616 28 585 13.5 c 128,-1,118
 554 -1 554 -1 521 -10.5 c 128,-1,119
 488 -20 488 -20 454 -27 c 1,120,-1
 455 -78 l 2,121,122
 455 -86 455 -86 456 -94 c 1,123,124
 456 -104 456 -104 456 -112 c 0,125,126
 454 -130 454 -130 434 -130 c 2,127,-1
 360 -128 l 2,128,129
 324 -128 324 -128 286 -126 c 1,130,131
 280 -122 280 -122 276 -117 c 128,-1,132
 272 -112 272 -112 267 -108 c 1,133,134
 268 -100 268 -100 268 -92 c 2,135,-1
 268 -75 l 2,136,137
 268 -52 268 -52 264.5 -41 c 128,-1,138
 261 -30 261 -30 254 -25 c 128,-1,139
 247 -20 247 -20 236 -19 c 0,140,141
 226 -18 226 -18 210 -14 c 0,142,143
 158 0 158 0 122 22 c 128,-1,144
 86 44 86 44 62 74 c 128,-1,145
 38 104 38 104 26 142 c 128,-1,146
 14 180 14 180 11 226 c 0,0,1
EndSplineSet
EndChar

StartChar: percent
Encoding: 37 37 8
Width: 1076
GlyphClass: 2
Flags: W
LayerCount: 2
Fore
SplineSet
9 510 m 0,0,1
 9 516 9 516 11 520 c 1,2,3
 13 544 13 544 16.5 569 c 128,-1,4
 20 594 20 594 27 618 c 128,-1,5
 34 642 34 642 46 664.5 c 128,-1,6
 58 687 58 687 76 705 c 1,7,8
 112 735 112 735 152 750.5 c 128,-1,9
 192 766 192 766 240 766 c 0,10,11
 283 766 283 766 315.5 756.5 c 128,-1,12
 348 747 348 747 372 729.5 c 128,-1,13
 396 712 396 712 412.5 689 c 128,-1,14
 429 666 429 666 438.5 640 c 128,-1,15
 448 614 448 614 452 585 c 128,-1,16
 456 556 456 556 456 528 c 0,17,18
 456 476 456 476 445 427.5 c 128,-1,19
 434 379 434 379 407 341.5 c 128,-1,20
 380 304 380 304 336 282 c 128,-1,21
 292 260 292 260 226 260 c 0,22,23
 182 260 182 260 148 270 c 128,-1,24
 114 280 114 280 90 298 c 128,-1,25
 66 316 66 316 50.5 340 c 128,-1,26
 35 364 35 364 25.5 392 c 128,-1,27
 16 420 16 420 12.5 450 c 128,-1,28
 9 480 9 480 9 510 c 0,0,1
183 510 m 0,29,30
 183 500 183 500 183.5 487 c 128,-1,31
 184 474 184 474 185 459 c 128,-1,32
 186 444 186 444 189 429 c 128,-1,33
 192 414 192 414 198 402 c 128,-1,34
 204 390 204 390 213 383 c 128,-1,35
 222 376 222 376 238 376 c 128,-1,36
 254 376 254 376 263 386.5 c 128,-1,37
 272 397 272 397 276 412.5 c 128,-1,38
 280 428 280 428 281 444 c 128,-1,39
 282 460 282 460 282 472 c 0,40,41
 282 482 282 482 282 492 c 128,-1,42
 282 502 282 502 282 512 c 128,-1,43
 282 522 282 522 282 532 c 0,44,45
 282 544 282 544 282 554 c 0,46,47
 282 570 282 570 281 586.5 c 128,-1,48
 280 603 280 603 275 616.5 c 128,-1,49
 270 630 270 630 261 639 c 128,-1,50
 252 648 252 648 236 648 c 0,51,52
 216 647 216 647 205 631.5 c 128,-1,53
 194 616 194 616 189 594 c 128,-1,54
 184 572 184 572 183.5 549 c 128,-1,55
 183 526 183 526 183 510 c 0,29,30
264 -7 m 1,56,-1
 424 286 l 1,57,-1
 584 577 l 1,58,-1
 642 682 l 1,59,-1
 665 724 l 1,60,-1
 688 765 l 1,61,62
 692 770 692 770 696 772 c 1,63,-1
 728 772 l 2,64,65
 748 772 748 772 766 771 c 128,-1,66
 784 770 784 770 797 770 c 256,67,68
 810 770 810 770 810 768 c 2,69,-1
 810 767 l 1,70,-1
 763 677 l 1,71,-1
 714 582 l 1,72,-1
 672 498 l 1,73,-1
 610 383 l 1,74,75
 578 328 578 328 552 268 c 1,76,-1
 509 183 l 1,77,-1
 404 -30 l 2,78,79
 400 -38 400 -38 382 -41 c 128,-1,80
 364 -44 364 -44 340 -44 c 0,81,82
 322 -44 322 -44 306 -43 c 128,-1,83
 290 -42 290 -42 278 -42 c 1,84,-1
 264 -7 l 1,56,-1
618 217 m 2,85,-1
 618 224 l 2,86,87
 618 226 618 226 618 230 c 0,88,89
 620 254 620 254 624 281 c 128,-1,90
 628 308 628 308 635 332.5 c 128,-1,91
 642 357 642 357 654 379.5 c 128,-1,92
 666 402 666 402 686 418 c 0,93,94
 722 448 722 448 760 463.5 c 128,-1,95
 798 479 798 479 844 479 c 0,96,97
 860 479 860 479 877.5 477 c 128,-1,98
 895 475 895 475 913.5 470.5 c 128,-1,99
 932 466 932 466 950 458 c 256,100,101
 968 450 968 450 984 440 c 1,102,103
 996 431 996 431 1007 418.5 c 128,-1,104
 1018 406 1018 406 1027 391.5 c 128,-1,105
 1036 377 1036 377 1043 362.5 c 128,-1,106
 1050 348 1050 348 1054 334 c 0,107,108
 1062 310 1062 310 1065 284.5 c 128,-1,109
 1068 259 1068 259 1068 228 c 0,110,111
 1068 164 1068 164 1050 115.5 c 128,-1,112
 1032 67 1032 67 1000.5 34.5 c 128,-1,113
 969 2 969 2 926.5 -14 c 128,-1,114
 884 -30 884 -30 835 -30 c 0,115,116
 789 -30 789 -30 755.5 -19.5 c 128,-1,117
 722 -9 722 -9 698 9.5 c 128,-1,118
 674 28 674 28 658.5 52 c 128,-1,119
 643 76 643 76 634 103.5 c 128,-1,120
 625 131 625 131 621.5 160 c 128,-1,121
 618 189 618 189 618 217 c 2,85,-1
791 206 m 2,122,123
 791 190 791 190 792.5 169 c 128,-1,124
 794 148 794 148 799.5 130 c 128,-1,125
 805 112 805 112 815.5 99.5 c 128,-1,126
 826 87 826 87 846 87 c 0,127,128
 861 87 861 87 870.5 95.5 c 128,-1,129
 880 104 880 104 885 118 c 128,-1,130
 890 132 890 132 891.5 148 c 128,-1,131
 893 164 893 164 893 178 c 256,132,133
 893 192 893 192 892.5 207 c 128,-1,134
 892 222 892 222 892 236 c 0,135,136
 892 241 892 241 892 249 c 1,137,138
 893 256 893 256 893 266 c 0,139,140
 893 280 893 280 891.5 296.5 c 128,-1,141
 890 313 890 313 884 326.5 c 128,-1,142
 878 340 878 340 868.5 349 c 128,-1,143
 859 358 859 358 843 358 c 2,144,-1
 842 358 l 2,145,146
 822 358 822 358 812 342 c 128,-1,147
 802 326 802 326 797 305 c 128,-1,148
 792 284 792 284 791.5 261 c 128,-1,149
 791 238 791 238 791 223 c 2,150,-1
 791 206 l 2,122,123
EndSplineSet
EndChar

StartChar: ampersand
Encoding: 38 38 9
Width: 907
GlyphClass: 2
Flags: W
LayerCount: 2
Fore
SplineSet
8 188 m 0,0,1
 8 230 8 230 21.5 263 c 128,-1,2
 35 296 35 296 59.5 322 c 128,-1,3
 84 348 84 348 117 368 c 128,-1,4
 150 388 150 388 188 402 c 1,5,6
 166 416 166 416 147 435 c 128,-1,7
 128 454 128 454 113.5 476 c 128,-1,8
 99 498 99 498 90.5 523 c 128,-1,9
 82 548 82 548 82 574 c 0,10,11
 82 607 82 607 96 639.5 c 128,-1,12
 110 672 110 672 134 694 c 0,13,14
 148 707 148 707 171.5 719.5 c 128,-1,15
 195 732 195 732 226.5 742 c 128,-1,16
 258 752 258 752 295 759 c 128,-1,17
 332 766 332 766 374 766 c 0,18,19
 406 766 406 766 440 763 c 128,-1,20
 474 760 474 760 506.5 753.5 c 128,-1,21
 539 747 539 747 568.5 735.5 c 128,-1,22
 598 724 598 724 622 708 c 0,23,24
 658 683 658 683 672 650 c 128,-1,25
 686 617 686 617 686 582 c 0,26,27
 686 551 686 551 675.5 524.5 c 128,-1,28
 665 498 665 498 646.5 474 c 128,-1,29
 628 450 628 450 602 427 c 128,-1,30
 576 404 576 404 544 382 c 1,31,-1
 560 368 l 1,32,-1
 576 353 l 1,33,-1
 620 312 l 1,34,35
 626 321 626 321 630 329.5 c 128,-1,36
 634 338 634 338 637 347 c 0,37,38
 639 356 639 356 639.5 365 c 128,-1,39
 640 374 640 374 643 382 c 128,-1,40
 646 390 646 390 654.5 395 c 128,-1,41
 663 400 663 400 681 400 c 0,42,43
 697 400 697 400 711 400 c 2,44,-1
 740 400 l 2,45,46
 759 400 759 400 778.5 399.5 c 128,-1,47
 798 399 798 399 818 399 c 2,48,-1
 841 399 l 1,49,50
 852 400 852 400 863 400 c 1,51,52
 870 399 870 399 874 396 c 0,53,54
 878 392 878 392 880 382 c 1,55,-1
 878 363 l 1,56,-1
 878 362 l 1,57,58
 876 336 876 336 869 308 c 128,-1,59
 862 280 862 280 850 253.5 c 128,-1,60
 838 227 838 227 821.5 202.5 c 128,-1,61
 805 178 805 178 784 156 c 1,62,-1
 842 98 l 1,63,64
 855 83 855 83 869 68.5 c 128,-1,65
 883 54 883 54 895 39 c 0,66,67
 899 35 899 35 903.5 30.5 c 128,-1,68
 908 26 908 26 913 21 c 128,-1,69
 918 16 918 16 921 11 c 128,-1,70
 924 6 924 6 924 0 c 0,71,72
 924 -14 924 -14 905 -16 c 1,73,74
 863 -16 863 -16 821.5 -16 c 128,-1,75
 780 -16 780 -16 738 -16 c 0,76,77
 711 -16 711 -16 685.5 -15.5 c 128,-1,78
 660 -15 660 -15 633 -14 c 1,79,80
 620 -8 620 -8 609 2 c 128,-1,81
 598 12 598 12 586 20 c 1,82,-1
 566 11 l 2,83,84
 526 -6 526 -6 482 -18 c 128,-1,85
 438 -30 438 -30 392 -34 c 1,86,-1
 370 -35 l 1,87,-1
 348 -35 l 2,88,89
 273 -35 273 -35 210.5 -18 c 128,-1,90
 148 -1 148 -1 103 29 c 128,-1,91
 58 59 58 59 33 99.5 c 128,-1,92
 8 140 8 140 8 188 c 0,0,1
260 200 m 0,93,94
 260 178 260 178 270.5 162.5 c 128,-1,95
 281 147 281 147 297.5 136.5 c 128,-1,96
 314 126 314 126 333 121 c 128,-1,97
 352 116 352 116 370 116 c 0,98,99
 400 116 400 116 427 125 c 128,-1,100
 454 134 454 134 480 148 c 1,101,102
 465 164 465 164 450 178 c 2,103,-1
 420 205 l 1,104,-1
 395 229 l 1,105,-1
 382 241 l 1,106,-1
 370 253 l 1,107,-1
 357 265 l 1,108,-1
 343 278 l 2,109,110
 336 284 336 284 330 289 c 128,-1,111
 324 294 324 294 322 294 c 0,112,113
 311 289 311 289 299.5 279 c 128,-1,114
 288 269 288 269 279.5 256 c 128,-1,115
 271 243 271 243 265.5 228.5 c 128,-1,116
 260 214 260 214 260 200 c 0,93,94
305 572 m 1,117,118
 307 558 307 558 314.5 546 c 128,-1,119
 322 534 322 534 333 523 c 128,-1,120
 344 512 344 512 356 503 c 128,-1,121
 368 494 368 494 380 488 c 0,122,123
 384 486 384 486 388 485 c 0,124,125
 390 485 390 485 391 485.5 c 128,-1,126
 392 486 392 486 394 486 c 1,127,-1
 418 505 l 2,128,129
 430 515 430 515 440 526.5 c 128,-1,130
 450 538 450 538 457 551 c 128,-1,131
 464 564 464 564 464 578 c 0,132,133
 464 595 464 595 455.5 606.5 c 128,-1,134
 447 618 447 618 434.5 625 c 128,-1,135
 422 632 422 632 407 635 c 128,-1,136
 392 638 392 638 380 638 c 0,137,138
 366 638 366 638 352.5 633.5 c 128,-1,139
 339 629 339 629 328.5 620.5 c 128,-1,140
 318 612 318 612 311.5 600 c 128,-1,141
 305 588 305 588 305 572 c 1,117,118
EndSplineSet
EndChar

StartChar: quotesingle
Encoding: 39 39 10
Width: 401
GlyphClass: 2
Flags: W
LayerCount: 2
Fore
SplineSet
89 436 m 1,0,-1
 93 559 l 2,1,2
 94 593 94 593 95 626.5 c 128,-1,3
 96 660 96 660 97 694 c 0,4,5
 97 698 97 698 96 706 c 0,6,7
 96 712 96 712 96 720 c 0,8,9
 96 732 96 732 98 742 c 256,10,11
 100 752 100 752 108 754 c 1,12,-1
 141 754 l 2,13,14
 215 754 215 754 291 753 c 0,15,16
 297 752 297 752 299.5 749 c 128,-1,17
 302 746 302 746 302 738 c 0,18,19
 303 669 303 669 304.5 595.5 c 128,-1,20
 306 522 306 522 306 451 c 0,21,22
 306 440 306 440 297 433.5 c 128,-1,23
 288 427 288 427 273 423.5 c 128,-1,24
 258 420 258 420 238 419 c 128,-1,25
 218 418 218 418 194 418 c 0,26,27
 176 418 176 418 158 418 c 256,28,29
 140 418 140 418 122 418 c 2,30,-1
 108 418 l 1,31,32
 102 422 102 422 97.5 426.5 c 128,-1,33
 93 431 93 431 89 436 c 1,0,-1
EndSplineSet
EndChar

StartChar: parenleft
Encoding: 40 40 11
Width: 416
GlyphClass: 2
Flags: W
LayerCount: 2
Fore
SplineSet
62 307 m 1,0,1
 64 333 64 333 69.5 365.5 c 128,-1,2
 75 398 75 398 82.5 434 c 128,-1,3
 90 470 90 470 100 507 c 128,-1,4
 110 544 110 544 120 579 c 128,-1,5
 130 614 130 614 140 645 c 128,-1,6
 150 676 150 676 159.5 699 c 128,-1,7
 169 722 169 722 176.5 736 c 128,-1,8
 184 750 184 750 190 750 c 1,9,10
 192 752 192 752 196 752 c 0,11,12
 243 754 243 754 289.5 754.5 c 128,-1,13
 336 755 336 755 383 756 c 1,14,15
 390 755 390 755 393 751.5 c 128,-1,16
 396 748 396 748 398 740 c 1,17,-1
 385 690 l 1,18,-1
 371 638 l 1,19,20
 358 595 358 595 347 552 c 128,-1,21
 336 509 336 509 328 466.5 c 128,-1,22
 320 424 320 424 315 382 c 128,-1,23
 310 340 310 340 310 301 c 1,24,25
 313 220 313 220 330 134.5 c 128,-1,26
 347 49 347 49 374 -38 c 1,27,-1
 402 -138 l 1,28,-1
 398 -145 l 2,29,30
 396 -148 396 -148 393 -150 c 1,31,-1
 385 -162 l 1,32,-1
 356 -162 l 2,33,34
 314 -162 314 -162 274 -160 c 128,-1,35
 234 -158 234 -158 192 -158 c 1,36,37
 186 -156 186 -156 179.5 -145 c 128,-1,38
 173 -134 173 -134 166 -118 c 128,-1,39
 159 -102 159 -102 152 -83 c 2,40,-1
 140 -45 l 1,41,-1
 129 -11 l 1,42,-1
 121 14 l 1,43,44
 95 84 95 84 79.5 155 c 128,-1,45
 64 226 64 226 62 307 c 1,0,1
EndSplineSet
EndChar

StartChar: parenright
Encoding: 41 41 12
Width: 417
GlyphClass: 2
Flags: W
LayerCount: 2
Fore
SplineSet
12 742 m 1,0,1
 16 748 16 748 20 752 c 1,2,3
 24 758 24 758 30 762 c 1,4,-1
 100 762 l 2,5,6
 130 762 130 762 158 762 c 128,-1,7
 186 762 186 762 216 762 c 0,8,9
 229 762 229 762 238 746 c 1,10,-1
 277 639 l 2,11,12
 298 584 298 584 315 527.5 c 128,-1,13
 332 471 332 471 343.5 413.5 c 128,-1,14
 355 356 355 356 355 296 c 1,15,16
 354 256 354 256 347.5 215 c 128,-1,17
 341 174 341 174 330 134 c 0,18,19
 326 121 326 121 318 95 c 2,20,-1
 300 38 l 1,21,-1
 279 -27 l 1,22,23
 267 -60 267 -60 256.5 -87.5 c 128,-1,24
 246 -115 246 -115 237 -133 c 128,-1,25
 228 -151 228 -151 224 -152 c 1,26,-1
 222 -152 l 1,27,28
 222 -152 222 -152 220 -152 c 0,29,30
 200 -153 200 -153 180 -153.5 c 128,-1,31
 160 -154 160 -154 140 -154 c 0,32,33
 125 -154 125 -154 110.5 -154 c 128,-1,34
 96 -154 96 -154 81 -154 c 0,35,36
 68 -154 68 -154 56 -154 c 0,37,38
 42 -154 42 -154 30 -155 c 1,39,40
 22 -152 22 -152 22 -148 c 0,41,42
 22 -143 22 -143 25 -136 c 128,-1,43
 28 -129 28 -129 30 -124 c 0,44,45
 42 -83 42 -83 55 -32.5 c 128,-1,46
 68 18 68 18 79 72.5 c 128,-1,47
 90 127 90 127 97.5 184 c 128,-1,48
 105 241 105 241 105 295 c 0,49,50
 105 334 105 334 99.5 376.5 c 128,-1,51
 94 419 94 419 86 462 c 0,52,53
 78 506 78 506 66 548 c 2,54,-1
 44 630 l 1,55,-1
 12 742 l 1,0,1
EndSplineSet
EndChar

StartChar: asterisk
Encoding: 42 42 13
Width: 465
GlyphClass: 2
Flags: W
LayerCount: 2
Fore
SplineSet
38 570 m 0,0,1
 38 590 38 590 42 605 c 256,2,3
 46 620 46 620 54 624 c 1,4,5
 72 624 72 624 94 623.5 c 128,-1,6
 116 623 116 623 134 622 c 1,7,-1
 118 648 l 1,8,-1
 118 647 l 1,9,10
 114 654 114 654 110 662 c 2,11,-1
 101 677 l 2,12,13
 97 685 97 685 94.5 691.5 c 128,-1,14
 92 698 92 698 91 704 c 0,15,16
 91 710 91 710 98 714 c 1,17,18
 106 720 106 720 114 722 c 1,19,-1
 126 730 l 1,20,-1
 140 739 l 2,21,22
 148 744 148 744 156 748.5 c 128,-1,23
 164 753 164 753 171 756 c 128,-1,24
 178 759 178 759 184 759 c 0,25,26
 187 759 187 759 191 753.5 c 128,-1,27
 195 748 195 748 199.5 740.5 c 128,-1,28
 204 733 204 733 210 724 c 0,29,30
 216 714 216 714 220 705 c 1,31,-1
 220 706 l 1,32,-1
 236 674 l 1,33,-1
 242 688 l 2,34,35
 246 696 246 696 248 702 c 2,36,-1
 253 713 l 2,37,38
 255 717 255 717 259 724.5 c 128,-1,39
 263 732 263 732 267.5 740 c 128,-1,40
 272 748 272 748 277 753.5 c 128,-1,41
 282 759 282 759 284 760 c 1,42,-1
 292 756 l 1,43,-1
 314 746 l 2,44,45
 328 740 328 740 341 732 c 128,-1,46
 354 724 354 724 364 717 c 128,-1,47
 374 710 374 710 374 706 c 0,48,49
 374 698 374 698 370.5 691 c 128,-1,50
 367 684 367 684 361 676 c 2,51,-1
 347 654 l 2,52,53
 339 642 339 642 329 620 c 1,54,-1
 342 622 l 2,55,56
 352 624 352 624 364 624 c 128,-1,57
 376 624 376 624 388 624 c 2,58,-1
 394 624 l 2,59,60
 401 624 401 624 408.5 623 c 128,-1,61
 416 622 416 622 423 622 c 1,62,63
 426 620 426 620 427 608 c 128,-1,64
 428 596 428 596 428 581 c 0,65,66
 428 568 428 568 425 552 c 1,67,-1
 425 526 l 2,68,69
 425 522 425 522 415.5 519.5 c 128,-1,70
 406 517 406 517 392.5 516 c 128,-1,71
 379 515 379 515 363 514 c 0,72,73
 348 514 348 514 334 514 c 1,74,-1
 344 497 l 1,75,-1
 351 485 l 2,76,77
 355 479 355 479 357 472 c 1,78,-1
 366 456 l 2,79,80
 368 454 368 454 370 450 c 128,-1,81
 372 446 372 446 374 442 c 128,-1,82
 376 438 376 438 378 433 c 128,-1,83
 380 428 380 428 380 426 c 0,84,85
 380 422 380 422 379 422 c 1,86,87
 380 424 380 424 378 426 c 1,88,-1
 310 384 l 1,89,-1
 293 374 l 1,90,-1
 294 374 l 2,91,92
 293 374 293 374 291.5 373 c 128,-1,93
 290 372 290 372 289 372 c 0,94,95
 285 372 285 372 278.5 381 c 128,-1,96
 272 390 272 390 264 402 c 2,97,-1
 249 426 l 1,98,-1
 237 447 l 1,99,-1
 226 425 l 1,100,-1
 216 407 l 2,101,102
 211 397 211 397 206.5 388.5 c 128,-1,103
 202 380 202 380 197 375 c 128,-1,104
 192 370 192 370 188 370 c 128,-1,105
 184 370 184 370 176 373 c 128,-1,106
 168 376 168 376 159 382 c 2,107,-1
 140 393 l 1,108,-1
 122 405 l 1,109,-1
 98 420 l 2,110,111
 94 422 94 422 91.5 422.5 c 128,-1,112
 89 423 89 423 89 427 c 128,-1,113
 89 431 89 431 94 441 c 0,114,115
 98 450 98 450 104 462 c 2,116,-1
 117 485 l 1,117,-1
 128 504 l 1,118,119
 120 504 120 504 109 503.5 c 128,-1,120
 98 503 98 503 90 503 c 2,121,-1
 73 503 l 1,122,123
 63 504 63 504 55 504 c 1,124,125
 49 509 49 509 45.5 513.5 c 128,-1,126
 42 518 42 518 40 525.5 c 128,-1,127
 38 533 38 533 38 543.5 c 128,-1,128
 38 554 38 554 38 570 c 0,0,1
EndSplineSet
EndChar

StartChar: plus
Encoding: 43 43 14
Width: 635
GlyphClass: 2
Flags: W
LayerCount: 2
Fore
SplineSet
42 224 m 0,0,1
 42 231 42 231 42 238 c 1,2,3
 43 244 43 244 43 250 c 0,4,5
 43 266 43 266 42.5 281 c 128,-1,6
 42 296 42 296 42 312 c 0,7,8
 42 322 42 322 43 329 c 128,-1,9
 44 336 44 336 46.5 340 c 128,-1,10
 49 344 49 344 54.5 346 c 128,-1,11
 60 348 60 348 70 348 c 0,12,13
 110 348 110 348 150 348 c 128,-1,14
 190 348 190 348 231 348 c 1,15,-1
 232 420 l 2,16,17
 232 456 232 456 232 492 c 2,18,-1
 232 508 l 2,19,20
 232 516 232 516 233 522 c 128,-1,21
 234 528 234 528 237 531 c 128,-1,22
 240 534 240 534 245.5 536 c 128,-1,23
 251 538 251 538 261 538 c 0,24,25
 270 538 270 538 279 538 c 128,-1,26
 288 538 288 538 298 538 c 2,27,-1
 322 538 l 2,28,29
 324 538 324 538 332.5 538 c 128,-1,30
 341 538 341 538 351 538 c 0,31,32
 359 538 359 538 367.5 538 c 128,-1,33
 376 538 376 538 383 536 c 128,-1,34
 390 534 390 534 394 531 c 128,-1,35
 398 528 398 528 399 524 c 1,36,37
 399 478 399 478 398.5 434 c 128,-1,38
 398 390 398 390 398 344 c 1,39,-1
 574 345 l 1,40,41
 582 344 582 344 585 338 c 128,-1,42
 588 332 588 332 588 321 c 0,43,44
 588 299 588 299 587.5 277.5 c 128,-1,45
 587 256 587 256 587 234 c 2,46,-1
 587 217 l 2,47,48
 587 207 587 207 585.5 197.5 c 128,-1,49
 584 188 584 188 580 188 c 0,50,51
 578 188 578 188 576 188 c 0,52,53
 570 188 570 188 564 188 c 2,54,-1
 552 188 l 1,55,-1
 515 188 l 2,56,57
 485 188 485 188 455.5 188 c 128,-1,58
 426 188 426 188 395 188 c 1,59,60
 397 146 397 146 397 104 c 2,61,-1
 397 20 l 2,62,63
 397 12 397 12 395.5 6.5 c 128,-1,64
 394 1 394 1 389.5 -1.5 c 128,-1,65
 385 -4 385 -4 377.5 -5 c 128,-1,66
 370 -6 370 -6 360 -6 c 0,67,68
 332 -6 332 -6 308.5 -6 c 128,-1,69
 285 -6 285 -6 258 -6 c 0,70,71
 248 -6 248 -6 243 -4 c 128,-1,72
 238 -2 238 -2 238 4 c 2,73,-1
 238 6 l 1,74,-1
 236 179 l 1,75,76
 230 179 230 179 225 178.5 c 128,-1,77
 220 178 220 178 214 178 c 0,78,79
 204 178 204 178 193.5 178.5 c 128,-1,80
 183 179 183 179 172 179 c 0,81,82
 162 179 162 179 153 178.5 c 128,-1,83
 144 178 144 178 134 178 c 0,84,85
 115 178 115 178 96.5 178.5 c 128,-1,86
 78 179 78 179 59 179 c 1,87,88
 48 181 48 181 45 194.5 c 128,-1,89
 42 208 42 208 42 224 c 0,0,1
EndSplineSet
EndChar

StartChar: comma
Encoding: 44 44 15
Width: 367
GlyphClass: 2
Flags: W
LayerCount: 2
Fore
SplineSet
-4 -103 m 1,0,1
 0 -87 0 -87 6 -57 c 2,2,-1
 20 9 l 1,3,-1
 36 82 l 2,4,5
 44 119 44 119 53 149.5 c 128,-1,6
 62 180 62 180 69 200 c 128,-1,7
 76 220 76 220 82 220 c 0,8,9
 98 222 98 222 113 222 c 2,10,-1
 144 222 l 1,11,-1
 188 222 l 2,12,13
 200 222 200 222 219.5 222.5 c 128,-1,14
 239 223 239 223 260 223 c 0,15,16
 274 223 274 223 288 222.5 c 128,-1,17
 302 222 302 222 312.5 220 c 128,-1,18
 323 218 323 218 329.5 215 c 128,-1,19
 336 212 336 212 336 208 c 0,20,21
 336 207 336 207 335.5 205.5 c 128,-1,22
 335 204 335 204 335 202 c 0,23,24
 317 150 317 150 300 95 c 2,25,-1
 266 -16 l 2,26,27
 258 -39 258 -39 250 -62 c 2,28,-1
 234 -107 l 2,29,30
 232 -111 232 -111 221.5 -113.5 c 128,-1,31
 211 -116 211 -116 196.5 -117.5 c 128,-1,32
 182 -119 182 -119 164 -119.5 c 128,-1,33
 146 -120 146 -120 127 -120 c 0,34,35
 109 -120 109 -120 91.5 -120 c 128,-1,36
 74 -120 74 -120 60 -120 c 2,37,-1
 48 -120 l 1,38,-1
 33 -120 l 1,39,-1
 22 -120 l 2,40,41
 17 -120 17 -120 12 -118 c 1,42,-1
 -4 -103 l 1,0,1
EndSplineSet
EndChar

StartChar: hyphen
Encoding: 45 45 16
Width: 429
GlyphClass: 2
Flags: W
LayerCount: 2
Fore
SplineSet
18 190 m 1,0,-1
 19 236 l 2,1,2
 20 260 20 260 20 282 c 0,3,4
 20 290 20 290 19 300 c 128,-1,5
 18 310 18 310 18 321 c 0,6,7
 18 331 18 331 19 340 c 128,-1,8
 20 349 20 349 21.5 356 c 128,-1,9
 23 363 23 363 26 367.5 c 128,-1,10
 29 372 29 372 34 372 c 0,11,12
 106 372 106 372 176.5 372 c 128,-1,13
 247 372 247 372 320 373 c 0,14,15
 338 373 338 373 356 372 c 0,16,17
 372 372 372 372 390 372 c 1,18,19
 396 371 396 371 399 361 c 128,-1,20
 402 351 402 351 403 336.5 c 128,-1,21
 404 322 404 322 404 305 c 2,22,-1
 404 274 l 2,23,24
 404 254 404 254 404 235 c 128,-1,25
 404 216 404 216 404 198 c 1,26,27
 403 191 403 191 400.5 185.5 c 128,-1,28
 398 180 398 180 390 180 c 0,29,30
 300 180 300 180 212 175 c 128,-1,31
 124 170 124 170 36 170 c 1,32,-1
 26 180 l 2,33,34
 22 184 22 184 18 190 c 1,0,-1
EndSplineSet
EndChar

StartChar: period
Encoding: 46 46 17
Width: 387
GlyphClass: 2
Flags: W
LayerCount: 2
Fore
SplineSet
56 14 m 2,0,-1
 56 22 l 2,1,2
 56 34 56 34 56.5 46 c 128,-1,3
 57 58 57 58 57 72 c 2,4,-1
 57 98 l 2,5,6
 57 116 57 116 57.5 137 c 128,-1,7
 58 158 58 158 59.5 176 c 128,-1,8
 61 194 61 194 64.5 207 c 128,-1,9
 68 220 68 220 73 220 c 0,10,11
 115 220 115 220 157.5 220 c 128,-1,12
 200 220 200 220 244 220 c 0,13,14
 250 220 250 220 259 220 c 128,-1,15
 268 220 268 220 278 220 c 0,16,17
 287 220 287 220 295.5 219.5 c 128,-1,18
 304 219 304 219 310.5 217.5 c 128,-1,19
 317 216 317 216 321.5 213 c 128,-1,20
 326 210 326 210 326 206 c 0,21,22
 327 170 327 170 327.5 132.5 c 128,-1,23
 328 95 328 95 328 59 c 2,24,-1
 328 42 l 2,25,26
 328 37 328 37 328.5 31.5 c 128,-1,27
 329 26 329 26 329 20 c 0,28,29
 329 9 329 9 326.5 0 c 128,-1,30
 324 -9 324 -9 318 -9 c 0,31,32
 317 -9 317 -9 316.5 -8.5 c 128,-1,33
 316 -8 316 -8 314 -8 c 0,34,35
 266 -10 266 -10 218 -12 c 128,-1,36
 170 -14 170 -14 120 -16 c 1,37,-1
 72 -16 l 1,38,-1
 56 7 l 1,39,40
 56 10 56 10 56 14 c 2,0,-1
EndSplineSet
EndChar

StartChar: slash
Encoding: 47 47 18
Width: 402
GlyphClass: 2
Flags: W
LayerCount: 2
Fore
SplineSet
-24 4 m 1,0,1
 -21 14 -21 14 -17 25 c 2,2,-1
 -9 46 l 1,3,-1
 115 384 l 1,4,-1
 242 723 l 1,5,-1
 259 766 l 2,6,7
 261 770 261 770 275 772 c 0,8,9
 288 774 288 774 306 774 c 0,10,11
 326 774 326 774 345 773 c 128,-1,12
 364 772 364 772 373 772 c 0,13,14
 377 772 377 772 381.5 772 c 128,-1,15
 386 772 386 772 390 772 c 0,16,17
 402 772 402 772 411 770 c 128,-1,18
 420 768 420 768 420 758 c 128,-1,19
 420 748 420 748 416.5 735 c 128,-1,20
 413 722 413 722 408 708 c 128,-1,21
 403 694 403 694 397.5 680.5 c 128,-1,22
 392 667 392 667 388 655 c 2,23,-1
 336 504 l 1,24,-1
 286 352 l 1,25,-1
 234 198 l 1,26,-1
 178 45 l 2,27,28
 172 30 172 30 169 16 c 128,-1,29
 166 2 166 2 158.5 -9 c 128,-1,30
 151 -20 151 -20 137 -26.5 c 128,-1,31
 123 -33 123 -33 96 -34 c 1,32,-1
 76 -34 l 1,33,34
 62 -36 62 -36 49 -36 c 128,-1,35
 36 -36 36 -36 24 -36 c 2,36,-1
 -7 -36 l 1,37,38
 -12 -26 -12 -26 -16 -16 c 128,-1,39
 -20 -6 -20 -6 -24 4 c 1,0,1
EndSplineSet
EndChar

StartChar: zero
Encoding: 48 48 19
Width: 731
GlyphClass: 2
Flags: W
LayerCount: 2
Fore
SplineSet
10 368 m 1,0,1
 10 474 10 474 36 548.5 c 128,-1,2
 62 623 62 623 109 671.5 c 128,-1,3
 156 720 156 720 220 744.5 c 128,-1,4
 284 769 284 769 360 775 c 1,5,-1
 368 775 l 2,6,7
 440 775 440 775 494 756.5 c 128,-1,8
 548 738 548 738 586 707 c 128,-1,9
 624 676 624 676 648 635 c 128,-1,10
 672 594 672 594 685.5 548 c 128,-1,11
 699 502 699 502 704 453 c 128,-1,12
 709 404 709 404 709 360 c 0,13,14
 709 315 709 315 700.5 267.5 c 128,-1,15
 692 220 692 220 674 173 c 0,16,17
 654 121 654 121 621.5 82.5 c 128,-1,18
 589 44 589 44 547.5 20 c 128,-1,19
 506 -4 506 -4 457 -16 c 128,-1,20
 408 -28 408 -28 354 -28 c 0,21,22
 274 -28 274 -28 215.5 -5.5 c 128,-1,23
 157 17 157 17 117 55.5 c 128,-1,24
 77 94 77 94 53.5 144.5 c 128,-1,25
 30 195 30 195 21 250 c 0,26,27
 15 284 15 284 13.5 315 c 128,-1,28
 12 346 12 346 10 368 c 1,0,1
278 348 m 0,29,30
 278 330 278 330 278.5 308 c 128,-1,31
 279 286 279 286 281.5 264 c 128,-1,32
 284 242 284 242 289 221 c 128,-1,33
 294 200 294 200 303 184 c 128,-1,34
 312 168 312 168 325 159 c 128,-1,35
 338 150 338 150 356 150 c 0,36,37
 378 150 378 150 393 160 c 128,-1,38
 408 170 408 170 417 186.5 c 128,-1,39
 426 203 426 203 430 224 c 128,-1,40
 434 245 434 245 436 267.5 c 128,-1,41
 438 290 438 290 438 311 c 1,42,43
 440 332 440 332 440 350 c 1,44,45
 442 372 442 372 442 394.5 c 128,-1,46
 442 417 442 417 442 441 c 0,47,48
 442 455 442 455 441 472.5 c 128,-1,49
 440 490 440 490 438 507 c 128,-1,50
 436 524 436 524 431 540 c 128,-1,51
 426 556 426 556 417.5 568 c 128,-1,52
 409 580 409 580 396.5 587 c 128,-1,53
 384 594 384 594 366 594 c 0,54,55
 343 594 343 594 328 583 c 128,-1,56
 313 572 313 572 303 553 c 128,-1,57
 293 534 293 534 287.5 509 c 128,-1,58
 282 484 282 484 280 456 c 128,-1,59
 278 428 278 428 278 400.5 c 128,-1,60
 278 373 278 373 278 348 c 0,29,30
EndSplineSet
EndChar

StartChar: one
Encoding: 49 49 20
Width: 789
GlyphClass: 2
Flags: W
LayerCount: 2
Fore
SplineSet
98 480 m 0,0,1
 98 504 98 504 98 529 c 128,-1,2
 98 554 98 554 99 573 c 128,-1,3
 100 592 100 592 101 604 c 128,-1,4
 102 616 102 616 104 617 c 0,5,6
 120 625 120 625 136 631.5 c 128,-1,7
 152 638 152 638 168 647 c 0,8,9
 177 651 177 651 198.5 660.5 c 128,-1,10
 220 670 220 670 244 684 c 128,-1,11
 268 698 268 698 290 716 c 1,12,13
 312 732 312 732 324 752 c 1,14,15
 363 751 363 751 400.5 750.5 c 128,-1,16
 438 750 438 750 478 750 c 0,17,18
 494 750 494 750 510.5 750 c 128,-1,19
 527 750 527 750 543 752 c 1,20,21
 551 751 551 751 552.5 742.5 c 128,-1,22
 554 734 554 734 554 715 c 2,23,-1
 554 694 l 1,24,-1
 554 658 l 2,25,26
 554 630 554 630 554 602 c 2,27,-1
 554 546 l 2,28,29
 554 484 554 484 554 424 c 128,-1,30
 554 364 554 364 556 303 c 1,31,32
 556 228 556 228 558 153 c 128,-1,33
 560 78 560 78 560 2 c 1,34,35
 559 -4 559 -4 552.5 -7 c 128,-1,36
 546 -10 546 -10 536 -12 c 128,-1,37
 526 -14 526 -14 513 -15 c 128,-1,38
 500 -16 500 -16 488 -16 c 0,39,40
 474 -16 474 -16 461 -15.5 c 128,-1,41
 448 -15 448 -15 438 -15 c 0,42,43
 418 -15 418 -15 399 -15.5 c 128,-1,44
 380 -16 380 -16 361 -16 c 0,45,46
 315 -16 315 -16 268 -14 c 1,47,-1
 259 -2 l 1,48,-1
 255 3 l 2,49,50
 253 5 253 5 252 8 c 128,-1,51
 251 11 251 11 250.5 14.5 c 128,-1,52
 250 18 250 18 250 24 c 0,53,54
 250 82 250 82 250.5 136 c 128,-1,55
 251 190 251 190 252 244 c 2,56,-1
 254 352 l 1,57,-1
 256 462 l 1,58,59
 223 440 223 440 188.5 423 c 128,-1,60
 154 406 154 406 115 394 c 1,61,62
 107 394 107 394 103 397 c 128,-1,63
 99 400 99 400 98 408 c 1,64,65
 98 423 98 423 98 441.5 c 128,-1,66
 98 460 98 460 98 480 c 0,0,1
EndSplineSet
EndChar

StartChar: two
Encoding: 50 50 21
Width: 729
GlyphClass: 2
Flags: W
LayerCount: 2
Fore
SplineSet
30 509 m 0,0,1
 32 531 32 531 34 552.5 c 128,-1,2
 36 574 36 574 42 596 c 0,3,4
 56 646 56 646 89 679.5 c 128,-1,5
 122 713 122 713 167 733.5 c 128,-1,6
 212 754 212 754 264 763 c 128,-1,7
 316 772 316 772 367 772 c 0,8,9
 409 772 409 772 450.5 766 c 128,-1,10
 492 760 492 760 529 748 c 128,-1,11
 566 736 566 736 597 717 c 128,-1,12
 628 698 628 698 651 672.5 c 128,-1,13
 674 647 674 647 687 613.5 c 128,-1,14
 700 580 700 580 700 538 c 0,15,16
 700 482 700 482 679 436 c 128,-1,17
 658 390 658 390 623 351 c 128,-1,18
 588 312 588 312 544 279 c 128,-1,19
 500 246 500 246 454 216 c 1,20,21
 450 212 450 212 445.5 209 c 128,-1,22
 441 206 441 206 437 202 c 1,23,24
 489 202 489 202 541.5 204 c 128,-1,25
 594 206 594 206 648 206 c 0,26,27
 667 206 667 206 678.5 199 c 128,-1,28
 690 192 690 192 696 180 c 128,-1,29
 702 168 702 168 704.5 152 c 128,-1,30
 707 136 707 136 707 116 c 0,31,32
 707 95 707 95 705.5 70.5 c 128,-1,33
 704 46 704 46 704 21 c 2,34,-1
 704 12 l 2,35,36
 704 2 704 2 701 -4 c 128,-1,37
 698 -10 698 -10 684 -12 c 1,38,-1
 648 -11 l 1,39,40
 602 -11 602 -11 561 -9.5 c 128,-1,41
 520 -8 520 -8 486 -8 c 0,42,43
 376 -8 376 -8 268 -10 c 128,-1,44
 160 -12 160 -12 49 -16 c 1,45,-1
 42 -6 l 1,46,47
 36 -2 36 -2 33 11 c 128,-1,48
 30 24 30 24 30 39 c 128,-1,49
 30 54 30 54 31 70 c 128,-1,50
 32 86 32 86 32 98 c 0,51,52
 32 121 32 121 32 143.5 c 128,-1,53
 32 166 32 166 32 188 c 0,54,55
 32 194 32 194 40 202 c 128,-1,56
 48 210 48 210 66 222 c 2,57,-1
 113 254 l 1,58,-1
 184 302 l 1,59,-1
 228 332 l 1,60,-1
 263 357 l 1,61,-1
 294 381 l 2,62,63
 309 393 309 393 326 409 c 0,64,65
 338 419 338 419 351 433 c 128,-1,66
 364 447 364 447 375.5 462.5 c 128,-1,67
 387 478 387 478 394.5 496 c 128,-1,68
 402 514 402 514 402 531 c 0,69,70
 402 552 402 552 389.5 564 c 128,-1,71
 377 576 377 576 357 576 c 0,72,73
 341 576 341 576 332.5 570 c 128,-1,74
 324 564 324 564 319 555.5 c 128,-1,75
 314 547 314 547 312 537 c 128,-1,76
 310 527 310 527 308 517.5 c 128,-1,77
 306 508 306 508 302 502 c 128,-1,78
 298 496 298 496 290 494 c 1,79,80
 278 494 278 494 268 494 c 2,81,-1
 245 494 l 1,82,-1
 166 494 l 2,83,84
 144 494 144 494 122 494 c 128,-1,85
 100 494 100 494 77 494 c 2,86,-1
 58 494 l 2,87,88
 47 494 47 494 38.5 496.5 c 128,-1,89
 30 499 30 499 30 509 c 0,0,1
EndSplineSet
EndChar

StartChar: three
Encoding: 51 51 22
Width: 727
GlyphClass: 2
Flags: W
LayerCount: 2
Fore
SplineSet
8 224 m 0,0,1
 8 231 8 231 12 235.5 c 128,-1,2
 16 240 16 240 24 240 c 2,3,-1
 262 244 l 2,4,5
 278 244 278 244 280 229 c 1,6,-1
 280 228 l 1,7,8
 282 213 282 213 285.5 201 c 128,-1,9
 289 189 289 189 296.5 180.5 c 128,-1,10
 304 172 304 172 315 167 c 128,-1,11
 326 162 326 162 341 162 c 2,12,-1
 342 162 l 2,13,14
 369 162 369 162 383.5 178 c 128,-1,15
 398 194 398 194 398 218 c 0,16,17
 398 244 398 244 388.5 259 c 128,-1,18
 379 274 379 274 363.5 281 c 128,-1,19
 348 288 348 288 330 290 c 128,-1,20
 312 292 312 292 295 292 c 0,21,22
 289 292 289 292 284 292 c 2,23,-1
 273 292 l 2,24,25
 259 292 259 292 252 297.5 c 128,-1,26
 245 303 245 303 242 313.5 c 128,-1,27
 239 324 239 324 239 339 c 2,28,-1
 239 371 l 2,29,30
 239 409 239 409 244 430 c 1,31,32
 248 452 248 452 266 452 c 0,33,34
 276 452 276 452 286 452 c 256,35,36
 296 452 296 452 306 452 c 0,37,38
 324 452 324 452 339 455 c 128,-1,39
 354 458 354 458 366 467 c 128,-1,40
 378 476 378 476 384 492 c 0,41,42
 390 506 390 506 390 530 c 0,43,44
 390 551 390 551 378 566 c 128,-1,45
 366 581 366 581 344 581 c 0,46,47
 327 581 327 581 317.5 575.5 c 128,-1,48
 308 570 308 570 303 562 c 128,-1,49
 298 554 298 554 296 544 c 2,50,-1
 292 524 l 2,51,52
 290 514 290 514 286.5 507 c 128,-1,53
 283 500 283 500 274 496 c 1,54,55
 180 496 180 496 85 500 c 0,56,57
 79 500 79 500 72.5 499.5 c 128,-1,58
 66 499 66 499 59 499 c 0,59,60
 43 499 43 499 31.5 502.5 c 128,-1,61
 20 506 20 506 20 518 c 1,62,63
 22 539 22 539 24 560.5 c 128,-1,64
 26 582 26 582 33 603 c 0,65,66
 35 611 35 611 41 625.5 c 128,-1,67
 47 640 47 640 57.5 657 c 128,-1,68
 68 674 68 674 84 692 c 128,-1,69
 100 710 100 710 124 724 c 0,70,71
 152 741 152 741 184.5 750.5 c 128,-1,72
 217 760 217 760 251.5 765 c 128,-1,73
 286 770 286 770 320 771 c 256,74,75
 354 772 354 772 388 772 c 0,76,77
 418 772 418 772 451.5 766.5 c 128,-1,78
 485 761 485 761 517 749.5 c 128,-1,79
 549 738 549 738 578 720 c 128,-1,80
 607 702 607 702 629 678 c 128,-1,81
 651 654 651 654 664 623.5 c 128,-1,82
 677 593 677 593 677 556 c 0,83,84
 677 516 677 516 666.5 489 c 128,-1,85
 656 462 656 462 638 443 c 128,-1,86
 620 424 620 424 598 413 c 0,87,88
 574 402 574 402 550 394 c 1,89,90
 590 382 590 382 617 365 c 128,-1,91
 644 348 644 348 661 327 c 128,-1,92
 678 306 678 306 686 280 c 256,93,94
 694 254 694 254 694 220 c 0,95,96
 694 174 694 174 682 139.5 c 128,-1,97
 670 105 670 105 650.5 79.5 c 128,-1,98
 631 54 631 54 604.5 36 c 128,-1,99
 578 18 578 18 548.5 5.5 c 128,-1,100
 519 -7 519 -7 487.5 -14 c 128,-1,101
 456 -21 456 -21 426 -25 c 0,102,103
 404 -27 404 -27 384 -28 c 128,-1,104
 364 -29 364 -29 346 -29 c 0,105,106
 302 -29 302 -29 263 -24.5 c 128,-1,107
 224 -20 224 -20 188 -10 c 128,-1,108
 152 0 152 0 121 17 c 128,-1,109
 90 34 90 34 64 61 c 1,110,111
 49 74 49 74 38.5 92 c 128,-1,112
 28 110 28 110 22 132 c 128,-1,113
 16 154 16 154 12.5 177 c 128,-1,114
 9 200 9 200 8 224 c 0,0,1
EndSplineSet
EndChar

StartChar: four
Encoding: 52 52 23
Width: 716
GlyphClass: 2
Flags: W
LayerCount: 2
Fore
SplineSet
-4 124 m 1,0,-1
 -4 178 l 2,1,2
 -4 202 -4 202 -4 222 c 2,3,-1
 -3 262 l 1,4,5
 -4 282 -4 282 -2 302 c 1,6,7
 13 340 13 340 29.5 373 c 128,-1,8
 46 406 46 406 64 437 c 2,9,-1
 102 499 l 1,10,-1
 145 566 l 1,11,-1
 195 643 l 1,12,-1
 254 738 l 2,13,14
 257 742 257 742 264.5 744 c 128,-1,15
 272 746 272 746 282 746.5 c 128,-1,16
 292 747 292 747 302 747 c 0,17,18
 312 748 312 748 319 748 c 2,19,-1
 364 749 l 1,20,-1
 443 751 l 2,21,22
 483 752 483 752 523 752 c 2,23,-1
 548 752 l 1,24,-1
 614 752 l 1,25,26
 619 751 619 751 622.5 749.5 c 128,-1,27
 626 748 626 748 630 746 c 1,28,-1
 630 716 l 2,29,30
 630 646 630 646 628 577.5 c 128,-1,31
 626 509 626 509 626 439 c 2,32,-1
 626 416 l 2,33,34
 626 404 626 404 627 392 c 1,35,-1
 627 388 l 2,36,37
 627 380 627 380 626 372 c 1,38,39
 626 362 626 362 626 354 c 0,40,41
 626 347 626 347 627 340.5 c 128,-1,42
 628 334 628 334 630 329 c 128,-1,43
 632 324 632 324 636.5 320.5 c 128,-1,44
 641 317 641 317 648 317 c 0,45,46
 658 317 658 317 669 317.5 c 128,-1,47
 680 318 680 318 690 318 c 0,48,49
 698 318 698 318 703 317 c 128,-1,50
 708 316 708 316 711 313 c 128,-1,51
 714 310 714 310 715 304 c 128,-1,52
 716 298 716 298 716 288 c 0,53,54
 716 286 716 286 714 286 c 1,55,56
 714 282 714 282 714.5 271 c 128,-1,57
 715 260 715 260 715.5 243.5 c 128,-1,58
 716 227 716 227 716.5 207.5 c 128,-1,59
 717 188 717 188 717 168 c 0,60,61
 717 151 717 151 716.5 139.5 c 128,-1,62
 716 128 716 128 714 120.5 c 128,-1,63
 712 113 712 113 709 109.5 c 128,-1,64
 706 106 706 106 700 106 c 2,65,-1
 672 106 l 2,66,67
 662 106 662 106 651 106 c 128,-1,68
 640 106 640 106 630 106 c 1,69,70
 632 60 632 60 632 16 c 0,71,72
 632 2 632 2 629 -6 c 0,73,74
 626 -12 626 -12 612 -14 c 1,75,76
 588 -14 588 -14 564 -14 c 128,-1,77
 540 -14 540 -14 515 -14 c 0,78,79
 475 -14 475 -14 435 -14 c 128,-1,80
 395 -14 395 -14 353 -17 c 1,81,-1
 344 -6 l 2,82,83
 340 -2 340 -2 336 4 c 1,84,85
 336 36 336 36 336 64 c 128,-1,86
 336 92 336 92 336 112 c 0,87,88
 336 118 336 118 330 120 c 128,-1,89
 324 122 324 122 314 122 c 0,90,91
 306 122 306 122 295 121 c 128,-1,92
 284 120 284 120 274 118 c 128,-1,93
 264 116 264 116 254 113 c 256,94,95
 244 110 244 110 238 108 c 1,96,-1
 114 106 l 2,97,98
 96 106 96 106 78 106 c 0,99,100
 62 106 62 106 44 106 c 0,101,102
 36 106 36 106 29 105.5 c 128,-1,103
 22 105 22 105 16 106.5 c 128,-1,104
 10 108 10 108 5 112 c 128,-1,105
 0 116 0 116 -4 124 c 1,0,-1
203 314 m 1,106,-1
 209 301 l 1,107,108
 211 294 211 294 215 288 c 1,109,-1
 224 288 l 2,110,111
 258 288 258 288 291 289.5 c 128,-1,112
 324 291 324 291 357 291 c 1,113,114
 364 294 364 294 367 298 c 128,-1,115
 370 302 370 302 372 309 c 1,116,117
 372 319 372 319 372 328 c 1,118,119
 371 336 371 336 371 346 c 0,120,121
 371 347 371 347 371.5 354 c 128,-1,122
 372 361 372 361 372 372 c 128,-1,123
 372 383 372 383 372 397 c 128,-1,124
 372 411 372 411 372 427 c 0,125,126
 372 451 372 451 371.5 476 c 128,-1,127
 371 501 371 501 368.5 521.5 c 128,-1,128
 366 542 366 542 362 556 c 128,-1,129
 358 570 358 570 352 570 c 1,130,131
 346 566 346 566 342 562 c 1,132,-1
 272 438 l 1,133,-1
 203 314 l 1,106,-1
EndSplineSet
EndChar

StartChar: five
Encoding: 53 53 24
Width: 734
GlyphClass: 2
Flags: W
LayerCount: 2
Fore
SplineSet
34 200 m 0,0,1
 34 206 34 206 38 209.5 c 128,-1,2
 42 213 42 213 49.5 214.5 c 128,-1,3
 57 216 57 216 66 217 c 0,4,5
 74 218 74 218 84 218 c 128,-1,6
 94 218 94 218 104 218 c 128,-1,7
 114 218 114 218 120 218 c 2,8,-1
 176 218 l 2,9,10
 210 218 210 218 241.5 216.5 c 128,-1,11
 273 215 273 215 308 215 c 1,12,13
 318 214 318 214 321 206 c 128,-1,14
 324 198 324 198 326.5 188 c 128,-1,15
 329 178 329 178 334.5 170 c 128,-1,16
 340 162 340 162 354 162 c 0,17,18
 371 162 371 162 380.5 170.5 c 128,-1,19
 390 179 390 179 395 191.5 c 128,-1,20
 400 204 400 204 402 218 c 0,21,22
 404 234 404 234 404 246 c 0,23,24
 404 262 404 262 402.5 277 c 128,-1,25
 401 292 401 292 396.5 305 c 128,-1,26
 392 318 392 318 382 326.5 c 128,-1,27
 372 335 372 335 356 335 c 256,28,29
 340 335 340 335 332 328 c 128,-1,30
 324 321 324 321 320 308 c 0,31,32
 318 304 318 304 318.5 298.5 c 128,-1,33
 319 293 319 293 317.5 288.5 c 128,-1,34
 316 284 316 284 312 280 c 128,-1,35
 308 276 308 276 298 276 c 0,36,37
 254 278 254 278 211 277 c 1,38,-1
 124 277 l 1,39,-1
 99 277 l 2,40,41
 88 277 88 277 76 276 c 1,42,43
 69 286 69 286 65.5 296 c 128,-1,44
 62 306 62 306 61 316.5 c 128,-1,45
 60 327 60 327 60 338 c 1,46,47
 61 348 61 348 61 360 c 2,48,-1
 60 466 l 1,49,50
 58 506 58 506 58 546 c 2,51,-1
 58 626 l 1,52,-1
 58 660 l 2,53,54
 58 676 58 676 60 694 c 1,55,-1
 60 711 l 2,56,57
 60 725 60 725 62 737.5 c 128,-1,58
 64 750 64 750 73 760 c 1,59,60
 101 759 101 759 129.5 759.5 c 128,-1,61
 158 760 158 760 186 759 c 2,62,-1
 602 754 l 2,63,64
 606 754 606 754 611.5 754.5 c 128,-1,65
 617 755 617 755 623 755 c 0,66,67
 633 755 633 755 642.5 752.5 c 128,-1,68
 652 750 652 750 654 742 c 1,69,-1
 654 645 l 2,70,71
 654 615 654 615 654 597.5 c 128,-1,72
 654 580 654 580 652 571.5 c 128,-1,73
 650 563 650 563 645.5 561 c 128,-1,74
 641 559 641 559 633 559 c 2,75,-1
 624 559 l 2,76,77
 546 559 546 559 470.5 558.5 c 128,-1,78
 395 558 395 558 317 557 c 1,79,80
 315 534 315 534 313.5 511 c 128,-1,81
 312 488 312 488 310 466 c 1,82,83
 324 476 324 476 341 482.5 c 128,-1,84
 358 489 358 489 376 493.5 c 128,-1,85
 394 498 394 498 413.5 501 c 128,-1,86
 433 504 433 504 451 504 c 0,87,88
 507 504 507 504 552.5 486 c 128,-1,89
 598 468 598 468 630 435.5 c 128,-1,90
 662 403 662 403 679 358.5 c 128,-1,91
 696 314 696 314 696 262 c 0,92,93
 696 208 696 208 682 165 c 128,-1,94
 668 122 668 122 644 90 c 128,-1,95
 620 58 620 58 588 35 c 128,-1,96
 556 12 556 12 518.5 -2 c 128,-1,97
 481 -16 481 -16 440.5 -22.5 c 128,-1,98
 400 -29 400 -29 360 -29 c 0,99,100
 322 -29 322 -29 281 -24.5 c 128,-1,101
 240 -20 240 -20 202 -8.5 c 128,-1,102
 164 3 164 3 131 24 c 0,103,104
 98 44 98 44 74 78 c 0,105,106
 56 104 56 104 47 134 c 128,-1,107
 38 164 38 164 34 200 c 0,0,1
EndSplineSet
EndChar

StartChar: six
Encoding: 54 54 25
Width: 728
GlyphClass: 2
Flags: W
LayerCount: 2
Fore
SplineSet
22 376 m 0,0,1
 22 464 22 464 47.5 538 c 128,-1,2
 73 612 73 612 119.5 665 c 128,-1,3
 166 718 166 718 233 747.5 c 128,-1,4
 300 777 300 777 386 778 c 0,5,6
 444 778 444 778 488 769.5 c 128,-1,7
 532 761 532 761 563 745.5 c 128,-1,8
 594 730 594 730 614.5 709.5 c 128,-1,9
 635 689 635 689 647.5 664.5 c 128,-1,10
 660 640 660 640 666 613 c 128,-1,11
 672 586 672 586 674 559 c 0,12,13
 674 554 674 554 673 552 c 128,-1,14
 672 550 672 550 666 548 c 0,15,16
 659 546 659 546 639.5 544 c 128,-1,17
 620 542 620 542 594 541 c 128,-1,18
 568 540 568 540 539.5 539.5 c 128,-1,19
 511 539 511 539 487.5 538.5 c 128,-1,20
 464 538 464 538 448 538 c 128,-1,21
 432 538 432 538 431 538 c 0,22,23
 423 538 423 538 417 540 c 256,24,25
 411 542 411 542 411 546 c 2,26,-1
 411 564 l 1,27,-1
 410 572 l 1,28,29
 405 582 405 582 381 581 c 0,30,31
 357 581 357 581 342.5 568.5 c 128,-1,32
 328 556 328 556 320 536 c 128,-1,33
 312 516 312 516 309 493 c 128,-1,34
 306 470 306 470 306 450 c 0,35,36
 306 448 306 448 306 446 c 128,-1,37
 306 444 306 444 306 442 c 1,38,39
 319 457 319 457 336 467 c 128,-1,40
 353 477 353 477 371.5 483.5 c 128,-1,41
 390 490 390 490 410 492 c 0,42,43
 430 495 430 495 450 495 c 0,44,45
 504 495 504 495 551.5 477 c 128,-1,46
 599 459 599 459 633.5 427.5 c 128,-1,47
 668 396 668 396 687 352 c 128,-1,48
 706 308 706 308 706 256 c 256,49,50
 706 204 706 204 693 164 c 128,-1,51
 680 124 680 124 657 93 c 128,-1,52
 634 62 634 62 603.5 40 c 128,-1,53
 573 18 573 18 538 4 c 128,-1,54
 503 -10 503 -10 466 -18 c 0,55,56
 430 -25 430 -25 394 -26 c 0,57,58
 368 -26 368 -26 334.5 -24 c 128,-1,59
 301 -22 301 -22 267.5 -16 c 128,-1,60
 234 -10 234 -10 203 3 c 128,-1,61
 172 16 172 16 148 38 c 0,62,63
 124 61 124 61 106.5 81.5 c 128,-1,64
 89 102 89 102 76 124 c 128,-1,65
 63 146 63 146 53.5 170 c 128,-1,66
 44 194 44 194 38 224 c 0,67,68
 34 243 34 243 30.5 263 c 128,-1,69
 27 283 27 283 25.5 302.5 c 128,-1,70
 24 322 24 322 23 341 c 128,-1,71
 22 360 22 360 22 376 c 0,0,1
298 233 m 0,72,73
 298 221 298 221 300 208.5 c 128,-1,74
 302 196 302 196 306 184 c 128,-1,75
 310 172 310 172 317 162 c 256,76,77
 324 152 324 152 334 146 c 1,78,-1
 340 144 l 2,79,80
 345 142 345 142 352.5 139.5 c 128,-1,81
 360 137 360 137 367 134.5 c 128,-1,82
 374 132 374 132 378 132 c 0,83,84
 380 132 380 132 380 134 c 1,85,86
 406 136 406 136 422 146 c 128,-1,87
 438 156 438 156 447.5 171 c 128,-1,88
 457 186 457 186 460.5 205 c 128,-1,89
 464 224 464 224 464 245 c 0,90,91
 463 268 463 268 458.5 286.5 c 128,-1,92
 454 305 454 305 445 318 c 128,-1,93
 436 331 436 331 420 338.5 c 128,-1,94
 404 346 404 346 382 346 c 0,95,96
 356 346 356 346 339.5 336.5 c 128,-1,97
 323 327 323 327 313.5 311.5 c 128,-1,98
 304 296 304 296 301 275.5 c 128,-1,99
 298 255 298 255 298 233 c 0,72,73
EndSplineSet
EndChar

StartChar: seven
Encoding: 55 55 26
Width: 731
GlyphClass: 2
Flags: W
LayerCount: 2
Fore
SplineSet
32 724 m 0,0,1
 32 730 32 730 33 737 c 128,-1,2
 34 744 34 744 36 750 c 128,-1,3
 38 756 38 756 42 760 c 256,4,5
 46 764 46 764 54 764 c 0,6,7
 208 764 208 764 361 760 c 2,8,-1
 666 754 l 2,9,10
 673 754 673 754 677 747 c 128,-1,11
 681 740 681 740 683.5 729 c 128,-1,12
 686 718 686 718 686.5 704 c 128,-1,13
 687 690 687 690 687 676.5 c 128,-1,14
 687 663 687 663 686.5 651.5 c 128,-1,15
 686 640 686 640 686 632 c 0,16,17
 686 618 686 618 686 605 c 128,-1,18
 686 592 686 592 685 580 c 0,19,20
 683 556 683 556 679.5 539 c 128,-1,21
 676 522 676 522 670 506 c 128,-1,22
 664 490 664 490 654 472 c 2,23,-1
 630 429 l 1,24,-1
 595 368 l 1,25,-1
 547 282 l 1,26,-1
 483 161 l 1,27,-1
 402 -2 l 2,28,29
 400 -8 400 -8 397 -11.5 c 128,-1,30
 394 -15 394 -15 386 -15 c 0,31,32
 362 -15 362 -15 338 -14.5 c 128,-1,33
 314 -14 314 -14 290 -14 c 0,34,35
 280 -14 280 -14 260 -14 c 128,-1,36
 240 -14 240 -14 216 -14 c 0,37,38
 194 -14 194 -14 172 -13.5 c 128,-1,39
 150 -13 150 -13 131 -11 c 128,-1,40
 112 -9 112 -9 101 -5.5 c 128,-1,41
 90 -2 90 -2 90 4 c 0,42,43
 90 12 90 12 94 22 c 1,44,-1
 104 39 l 1,45,-1
 271 372 l 1,46,-1
 310 452 l 1,47,-1
 352 535 l 1,48,49
 308 535 308 535 266 534 c 0,50,51
 224 534 224 534 182 533 c 1,52,-1
 67 533 l 2,53,54
 62 533 62 533 58 533.5 c 128,-1,55
 54 534 54 534 50.5 536.5 c 128,-1,56
 47 539 47 539 43 543.5 c 128,-1,57
 39 548 39 548 34 556 c 1,58,-1
 34 690 l 2,59,60
 34 694 34 694 33 704 c 128,-1,61
 32 714 32 714 32 724 c 0,0,1
EndSplineSet
EndChar

StartChar: eight
Encoding: 56 56 27
Width: 725
GlyphClass: 2
Flags: W
LayerCount: 2
Fore
SplineSet
14 198 m 1,0,1
 16 228 16 228 23 254 c 128,-1,2
 30 280 30 280 44 302 c 128,-1,3
 58 324 58 324 79 343 c 128,-1,4
 100 362 100 362 132 377 c 1,5,6
 84 399 84 399 60.5 439.5 c 128,-1,7
 37 480 37 480 37 534 c 0,8,9
 37 579 37 579 50.5 614.5 c 128,-1,10
 64 650 64 650 88 676.5 c 128,-1,11
 112 703 112 703 143 721.5 c 128,-1,12
 174 740 174 740 209.5 751.5 c 128,-1,13
 245 763 245 763 282.5 768.5 c 128,-1,14
 320 774 320 774 354 774 c 0,15,16
 404 774 404 774 455 765 c 128,-1,17
 506 756 506 756 553 735 c 0,18,19
 619 706 619 706 651 657 c 128,-1,20
 683 608 683 608 683 533 c 0,21,22
 683 475 683 475 656.5 437.5 c 128,-1,23
 630 400 630 400 580 382 c 1,24,25
 604 370 604 370 625 357 c 128,-1,26
 646 344 646 344 662 324 c 0,27,28
 684 297 684 297 694 265 c 0,29,30
 704 232 704 232 704 198 c 0,31,32
 704 174 704 174 698.5 151 c 128,-1,33
 693 128 693 128 683 106 c 0,34,35
 673 85 673 85 656.5 66.5 c 128,-1,36
 640 48 640 48 618 32 c 128,-1,37
 596 16 596 16 570 4 c 0,38,39
 546 -8 546 -8 518 -14 c 1,40,41
 498 -20 498 -20 475 -22.5 c 128,-1,42
 452 -25 452 -25 430 -26.5 c 128,-1,43
 408 -28 408 -28 386 -28 c 128,-1,44
 364 -28 364 -28 344 -28 c 0,45,46
 297 -28 297 -28 251 -23 c 0,47,48
 204 -18 204 -18 162 0 c 0,49,50
 118 18 118 18 90.5 39 c 128,-1,51
 63 60 63 60 47.5 84.5 c 128,-1,52
 32 109 32 109 25 137.5 c 128,-1,53
 18 166 18 166 14 198 c 1,0,1
279 220 m 1,54,55
 281 202 281 202 287 186.5 c 128,-1,56
 293 171 293 171 303 159.5 c 128,-1,57
 313 148 313 148 327 142 c 0,58,59
 342 136 342 136 360 136 c 0,60,61
 398 136 398 136 418 159 c 128,-1,62
 438 182 438 182 438 216 c 0,63,64
 438 260 438 260 419 285 c 128,-1,65
 400 310 400 310 359 310 c 0,66,67
 341 310 341 310 326.5 303 c 128,-1,68
 312 296 312 296 301 283.5 c 128,-1,69
 290 271 290 271 284.5 254.5 c 128,-1,70
 279 238 279 238 279 220 c 1,54,55
292 524 m 0,71,72
 292 509 292 509 295 494.5 c 128,-1,73
 298 480 298 480 306 469 c 128,-1,74
 314 458 314 458 327 451 c 128,-1,75
 340 444 340 444 361 444 c 0,76,77
 379 444 379 444 391.5 451 c 128,-1,78
 404 458 404 458 412 469.5 c 128,-1,79
 420 481 420 481 423.5 495.5 c 128,-1,80
 427 510 427 510 427 526 c 0,81,82
 427 544 427 544 423.5 558.5 c 128,-1,83
 420 573 420 573 412 583.5 c 128,-1,84
 404 594 404 594 390.5 600 c 128,-1,85
 377 606 377 606 357 606 c 0,86,87
 339 606 339 606 327 598 c 128,-1,88
 315 590 315 590 307.5 578 c 128,-1,89
 300 566 300 566 296 551 c 128,-1,90
 292 536 292 536 292 524 c 0,71,72
EndSplineSet
EndChar

StartChar: nine
Encoding: 57 57 28
Width: 728
GlyphClass: 2
Flags: W
LayerCount: 2
Fore
SplineSet
21 492 m 0,0,1
 21 542 21 542 35.5 582 c 128,-1,2
 50 622 50 622 74 653 c 128,-1,3
 98 684 98 684 130 706 c 128,-1,4
 162 728 162 728 199 742 c 128,-1,5
 236 756 236 756 276 763 c 128,-1,6
 316 770 316 770 356 770 c 0,7,8
 391 770 391 770 426.5 765.5 c 128,-1,9
 462 761 462 761 496 749.5 c 128,-1,10
 530 738 530 738 561 719 c 128,-1,11
 592 700 592 700 617 670 c 1,12,13
 642 638 642 638 659 606 c 128,-1,14
 676 574 676 574 686 539 c 128,-1,15
 696 504 696 504 700 467 c 128,-1,16
 704 430 704 430 704 391 c 128,-1,17
 704 352 704 352 700.5 313 c 128,-1,18
 697 274 697 274 688.5 237 c 128,-1,19
 680 200 680 200 665 164 c 128,-1,20
 650 128 650 128 627 96 c 1,21,22
 599 54 599 54 559 28.5 c 128,-1,23
 519 3 519 3 475 -10.5 c 128,-1,24
 431 -24 431 -24 386.5 -29 c 128,-1,25
 342 -34 342 -34 306 -34 c 0,26,27
 256 -34 256 -34 210 -21 c 256,28,29
 164 -8 164 -8 124 26 c 1,30,31
 104 41 104 41 90.5 60.5 c 128,-1,32
 77 80 77 80 68.5 102 c 128,-1,33
 60 124 60 124 56 148 c 128,-1,34
 52 172 52 172 52 195 c 1,35,-1
 60 206 l 2,36,37
 64 211 64 211 70 217 c 1,38,-1
 296 214 l 2,39,40
 302 214 302 214 306 211 c 128,-1,41
 310 208 310 208 312 204 c 128,-1,42
 314 200 314 200 314 194 c 1,43,-1
 316 184 l 1,44,45
 319 176 319 176 325.5 169.5 c 128,-1,46
 332 163 332 163 350 163 c 0,47,48
 374 163 374 163 388 176.5 c 128,-1,49
 402 190 402 190 408.5 210 c 128,-1,50
 415 230 415 230 417.5 252.5 c 128,-1,51
 420 275 420 275 421 294 c 1,52,53
 408 286 408 286 393 280 c 128,-1,54
 378 274 378 274 361 270 c 128,-1,55
 344 266 344 266 328 264 c 256,56,57
 312 262 312 262 296 262 c 0,58,59
 246 262 246 262 197 275 c 128,-1,60
 148 288 148 288 109 315.5 c 128,-1,61
 70 343 70 343 45.5 387 c 128,-1,62
 21 431 21 431 21 492 c 0,0,1
260 494 m 1,63,64
 262 472 262 472 267 454 c 128,-1,65
 272 436 272 436 283 424 c 128,-1,66
 294 412 294 412 309 405 c 128,-1,67
 324 398 324 398 346 398 c 0,68,69
 370 398 370 398 386 407 c 128,-1,70
 402 416 402 416 411 430.5 c 128,-1,71
 420 445 420 445 423 462.5 c 128,-1,72
 426 480 426 480 426 498 c 0,73,74
 426 518 426 518 423 537.5 c 128,-1,75
 420 557 420 557 411 572.5 c 128,-1,76
 402 588 402 588 387 597 c 128,-1,77
 372 606 372 606 346 606 c 0,78,79
 322 606 322 606 305 596 c 128,-1,80
 288 586 288 586 278 570 c 128,-1,81
 268 554 268 554 264 534 c 128,-1,82
 260 514 260 514 260 494 c 1,63,64
EndSplineSet
EndChar

StartChar: colon
Encoding: 58 58 29
Width: 385
GlyphClass: 2
Flags: W
LayerCount: 2
Fore
SplineSet
53 26 m 0,0,1
 53 68 53 68 54.5 115 c 128,-1,2
 56 162 56 162 58 207 c 0,3,4
 58 212 58 212 69 215 c 128,-1,5
 80 218 80 218 95.5 219 c 128,-1,6
 111 220 111 220 129.5 221 c 128,-1,7
 148 222 148 222 164 222 c 2,8,-1
 187 222 l 2,9,10
 197 222 197 222 206 222 c 0,11,12
 216 221 216 221 224 221 c 2,13,-1
 242 221 l 1,14,-1
 264 221 l 2,15,16
 274 221 274 221 284 220.5 c 128,-1,17
 294 220 294 220 302.5 218.5 c 128,-1,18
 311 217 311 217 316.5 214.5 c 128,-1,19
 322 212 322 212 324 207 c 1,20,-1
 324 115 l 1,21,-1
 324 70 l 2,22,23
 324 52 324 52 324 35 c 128,-1,24
 324 18 324 18 325 2 c 1,25,26
 323 -4 323 -4 306 -8 c 128,-1,27
 289 -12 289 -12 264 -13.5 c 128,-1,28
 239 -15 239 -15 210.5 -15.5 c 128,-1,29
 182 -16 182 -16 158 -16 c 0,30,31
 138 -16 138 -16 125 -16 c 128,-1,32
 112 -16 112 -16 110 -16 c 2,33,-1
 89 -16 l 2,34,35
 79 -16 79 -16 69 -16 c 1,36,-1
 54 5 l 1,37,38
 54 11 54 11 53.5 15.5 c 128,-1,39
 53 20 53 20 53 26 c 0,0,1
55 340 m 1,40,-1
 55 354 l 2,41,42
 55 364 55 364 55.5 375 c 128,-1,43
 56 386 56 386 56 398 c 2,44,-1
 56 426 l 2,45,46
 56 442 56 442 56.5 462 c 128,-1,47
 57 482 57 482 58.5 498.5 c 128,-1,48
 60 515 60 515 63 526.5 c 128,-1,49
 66 538 66 538 72 538 c 0,50,51
 86 538 86 538 99 538 c 2,52,-1
 126 538 l 2,53,54
 161 538 161 538 194.5 538 c 128,-1,55
 228 538 228 538 264 538 c 0,56,57
 275 538 275 538 285.5 538 c 128,-1,58
 296 538 296 538 304.5 536 c 128,-1,59
 313 534 313 534 318.5 531 c 128,-1,60
 324 528 324 528 324 523 c 0,61,62
 325 491 325 491 325.5 458 c 128,-1,63
 326 425 326 425 327 392 c 1,64,-1
 324 370 l 1,65,66
 326 360 326 360 327 352 c 128,-1,67
 328 344 328 344 328 334 c 256,68,69
 328 324 328 324 325 316 c 128,-1,70
 322 308 322 308 312 308 c 0,71,72
 252 306 252 306 192 304 c 2,73,-1
 72 301 l 1,74,-1
 56 324 l 1,75,76
 56 332 56 332 55 340 c 1,40,-1
EndSplineSet
EndChar

StartChar: semicolon
Encoding: 59 59 30
Width: 366
GlyphClass: 2
Flags: W
LayerCount: 2
Fore
SplineSet
-4 -90 m 1,0,-1
 4 -48 l 2,1,2
 8 -28 8 -28 14 -8 c 1,3,4
 14 -8 14 -8 16 3 c 256,5,6
 18 14 18 14 21 31 c 128,-1,7
 24 48 24 48 30 69 c 1,8,-1
 40 112 l 2,9,10
 45 134 45 134 51 155.5 c 128,-1,11
 57 177 57 177 62.5 193.5 c 128,-1,12
 68 210 68 210 73 220 c 128,-1,13
 78 230 78 230 82 230 c 0,14,15
 96 230 96 230 112 230 c 128,-1,16
 128 230 128 230 142 230 c 0,17,18
 158 230 158 230 170 230 c 2,19,-1
 196 230 l 2,20,21
 210 230 210 230 225.5 230.5 c 128,-1,22
 241 231 241 231 262 231 c 0,23,24
 276 231 276 231 289 230.5 c 128,-1,25
 302 230 302 230 312 228 c 128,-1,26
 322 226 322 226 328 224 c 1,27,28
 335 220 335 220 335 216 c 2,29,-1
 335 210 l 1,30,-1
 301 107 l 1,31,-1
 266 0 l 1,32,-1
 259 -24 l 1,33,-1
 245 -59 l 1,34,-1
 231 -92 l 2,35,36
 229 -96 229 -96 218.5 -99 c 128,-1,37
 208 -102 208 -102 192 -103 c 128,-1,38
 176 -104 176 -104 157 -105 c 128,-1,39
 138 -106 138 -106 117 -106 c 0,40,41
 91 -106 91 -106 66.5 -105 c 128,-1,42
 42 -104 42 -104 24 -104 c 2,43,-1
 13 -104 l 1,44,45
 4 -98 4 -98 -4 -90 c 1,0,-1
63 332 m 0,46,47
 63 334 63 334 64 336 c 1,48,49
 64 340 64 340 64 342 c 2,50,-1
 65 386 l 2,51,52
 65 392 65 392 65.5 404 c 128,-1,53
 66 416 66 416 66 432 c 128,-1,54
 66 448 66 448 67 464 c 128,-1,55
 68 480 68 480 69 494 c 128,-1,56
 70 508 70 508 73 518 c 128,-1,57
 76 528 76 528 80 528 c 2,58,-1
 101 528 l 2,59,60
 137 528 137 528 172.5 529 c 128,-1,61
 208 530 208 530 246 530 c 0,62,63
 262 530 262 530 277 529.5 c 128,-1,64
 292 529 292 529 305 527.5 c 128,-1,65
 318 526 318 526 325.5 524 c 128,-1,66
 333 522 333 522 333 518 c 0,67,68
 335 467 335 467 335.5 419.5 c 128,-1,69
 336 372 336 372 336 322 c 0,70,71
 336 312 336 312 335 304 c 0,72,73
 334 298 334 298 329 296 c 1,74,-1
 328 296 l 1,75,-1
 324 295 l 1,76,77
 264 293 264 293 204 290 c 0,78,79
 144 288 144 288 82 286 c 1,80,-1
 65 307 l 1,81,82
 64 313 64 313 63.5 319 c 128,-1,83
 63 325 63 325 63 332 c 0,46,47
EndSplineSet
EndChar

StartChar: less
Encoding: 60 60 31
Width: 635
GlyphClass: 2
Flags: W
LayerCount: 2
Fore
SplineSet
39 227 m 0,0,1
 39 237 39 237 39.5 246.5 c 128,-1,2
 40 256 40 256 40 266 c 0,3,4
 40 273 40 273 39.5 280.5 c 128,-1,5
 39 288 39 288 39 295 c 0,6,7
 39 310 39 310 42 324 c 0,8,9
 46 338 46 338 58 350 c 1,10,-1
 503 520 l 1,11,-1
 537 532 l 1,12,-1
 571 544 l 1,13,-1
 573 544 l 2,14,15
 581 544 581 544 585 537 c 128,-1,16
 589 530 589 530 590 518.5 c 128,-1,17
 591 507 591 507 590.5 492.5 c 128,-1,18
 590 478 590 478 590 462 c 0,19,20
 590 450 590 450 590 438 c 128,-1,21
 590 426 590 426 588.5 416.5 c 128,-1,22
 587 407 587 407 585.5 400 c 128,-1,23
 584 393 584 393 580 390 c 1,24,-1
 418 327 l 1,25,-1
 256 262 l 1,26,-1
 408 203 l 1,27,-1
 562 146 l 2,28,29
 571 142 571 142 576.5 139 c 128,-1,30
 582 136 582 136 586 129 c 128,-1,31
 590 122 590 122 591 110 c 0,32,33
 592 96 592 96 592 74 c 0,34,35
 592 54 592 54 591 35 c 128,-1,36
 590 16 590 16 588 4 c 1,37,38
 588 -4 588 -4 585.5 -11 c 128,-1,39
 583 -18 583 -18 573 -18 c 0,40,41
 570 -18 570 -18 566 -17 c 2,42,-1
 340 73 l 1,43,-1
 110 162 l 2,44,45
 98 166 98 166 86 170 c 128,-1,46
 74 174 74 174 63 180.5 c 128,-1,47
 52 187 52 187 45.5 197.5 c 128,-1,48
 39 208 39 208 39 227 c 0,0,1
EndSplineSet
EndChar

StartChar: equal
Encoding: 61 61 32
Width: 636
GlyphClass: 2
Flags: W
LayerCount: 2
Fore
SplineSet
41 119 m 0,0,1
 41 127 41 127 41.5 136.5 c 128,-1,2
 42 146 42 146 42 154 c 0,3,4
 42 160 42 160 42 167 c 128,-1,5
 42 174 42 174 42 180 c 0,6,7
 42 193 42 193 44 205.5 c 128,-1,8
 46 218 46 218 53 228 c 1,9,10
 57 228 57 228 61.5 228 c 128,-1,11
 66 228 66 228 71 227 c 0,12,13
 163 221 163 221 253 218 c 1,14,15
 342 214 342 214 434 214 c 2,16,-1
 452 214 l 1,17,18
 484 215 484 215 514 215.5 c 128,-1,19
 544 216 544 216 574 218 c 0,20,21
 578 218 578 218 580.5 211 c 128,-1,22
 583 204 583 204 584.5 193 c 128,-1,23
 586 182 586 182 586 169 c 128,-1,24
 586 156 586 156 586 143 c 2,25,-1
 586 110 l 2,26,27
 586 105 586 105 586.5 99 c 128,-1,28
 587 93 587 93 587 87 c 0,29,30
 587 77 587 77 584 68.5 c 128,-1,31
 581 60 581 60 571 60 c 2,32,-1
 434 58 l 2,33,34
 339 56 339 56 246.5 54 c 128,-1,35
 154 52 154 52 59 50 c 1,36,-1
 42 68 l 1,37,38
 40 92 40 92 41 119 c 0,0,1
42 352 m 0,39,40
 42 365 42 365 42 379 c 0,41,42
 42 392 42 392 42 406 c 0,43,44
 42 412 42 412 42 418 c 128,-1,45
 42 424 42 424 42 430 c 0,46,47
 42 445 42 445 44 456 c 1,48,49
 48 468 48 468 58 468 c 2,50,-1
 106 468 l 2,51,52
 224 468 224 468 340 467 c 128,-1,53
 456 466 456 466 574 466 c 0,54,55
 578 466 578 466 580 458.5 c 128,-1,56
 582 451 582 451 583.5 439.5 c 128,-1,57
 585 428 585 428 585.5 414 c 128,-1,58
 586 400 586 400 586 388 c 2,59,-1
 586 347 l 1,60,-1
 586 334 l 2,61,62
 586 326 586 326 585 319 c 128,-1,63
 584 312 584 312 580 312 c 128,-1,64
 576 312 576 312 571 318 c 1,65,-1
 438 314 l 1,66,67
 342 310 342 310 248 307 c 128,-1,68
 154 304 154 304 58 300 c 1,69,-1
 42 318 l 1,70,71
 42 326 42 326 42 334.5 c 128,-1,72
 42 343 42 343 42 352 c 0,39,40
EndSplineSet
EndChar

StartChar: greater
Encoding: 62 62 33
Width: 634
GlyphClass: 2
Flags: W
LayerCount: 2
Fore
SplineSet
39 2 m 1,0,1
 39 34 39 34 40 64 c 0,2,3
 42 94 42 94 44 126 c 0,4,5
 44 133 44 133 63.5 144 c 128,-1,6
 83 155 83 155 113.5 168.5 c 128,-1,7
 144 182 144 182 181 196 c 2,8,-1
 254 224 l 1,9,-1
 319 248 l 2,10,11
 350 259 350 259 366 266 c 1,12,-1
 288 298 l 1,13,-1
 210 330 l 1,14,-1
 132 362 l 2,15,16
 92 378 92 378 52 392 c 0,17,18
 48 394 48 394 47 401 c 128,-1,19
 46 408 46 408 46 416 c 0,20,21
 46 420 46 420 46 423 c 128,-1,22
 46 426 46 426 46 430 c 0,23,24
 46 436 46 436 45.5 449 c 128,-1,25
 45 462 45 462 45 478 c 0,26,27
 45 490 45 490 45.5 501 c 128,-1,28
 46 512 46 512 47 521 c 128,-1,29
 48 530 48 530 50 535.5 c 128,-1,30
 52 541 52 541 54 541 c 128,-1,31
 56 541 56 541 57.5 540.5 c 128,-1,32
 59 540 59 540 61 539 c 2,33,-1
 292 450 l 1,34,-1
 522 362 l 1,35,-1
 581 337 l 2,36,37
 585 335 585 335 587.5 323 c 128,-1,38
 590 311 590 311 591 294.5 c 128,-1,39
 592 278 592 278 592 260 c 128,-1,40
 592 242 592 242 592 228 c 0,41,42
 592 216 592 216 591 208 c 128,-1,43
 590 200 590 200 588 197 c 2,44,-1
 581 191 l 2,45,46
 578 188 578 188 577 188 c 2,47,-1
 378 107 l 1,48,-1
 182 26 l 1,49,-1
 122 1 l 2,50,51
 92 -11 92 -11 61 -21 c 1,52,53
 55 -15 55 -15 50 -9.5 c 128,-1,54
 45 -4 45 -4 39 2 c 1,0,1
EndSplineSet
EndChar

StartChar: question
Encoding: 63 63 34
Width: 560
GlyphClass: 2
Flags: W
LayerCount: 2
Fore
SplineSet
21 537 m 1,0,1
 21 584 21 584 21.5 628.5 c 128,-1,2
 22 673 22 673 22 721 c 0,3,4
 22 733 22 733 33 741 c 128,-1,5
 44 749 44 749 62 754.5 c 128,-1,6
 80 760 80 760 103 763.5 c 128,-1,7
 126 767 126 767 149.5 769 c 128,-1,8
 173 771 173 771 195 772.5 c 128,-1,9
 217 774 217 774 233 774 c 0,10,11
 291 774 291 774 339.5 766 c 128,-1,12
 388 758 388 758 429 738 c 1,13,-1
 450 727 l 1,14,15
 469 715 469 715 486 699.5 c 128,-1,16
 503 684 503 684 515 666 c 1,17,-1
 522 652 l 2,18,19
 528 641 528 641 532 630.5 c 128,-1,20
 536 620 536 620 538 608 c 0,21,22
 540 595 540 595 541 582.5 c 128,-1,23
 542 570 542 570 546 560 c 1,24,25
 545 534 545 534 539 506 c 0,26,27
 534 478 534 478 516 454 c 1,28,29
 498 432 498 432 479.5 416 c 128,-1,30
 461 400 461 400 443.5 387 c 128,-1,31
 426 374 426 374 410.5 364 c 128,-1,32
 395 354 395 354 383 343 c 128,-1,33
 371 332 371 332 363.5 320.5 c 128,-1,34
 356 309 356 309 355 294 c 1,35,36
 357 283 357 283 357.5 270.5 c 128,-1,37
 358 258 358 258 360 246 c 0,38,39
 360 242 360 242 358 239.5 c 128,-1,40
 356 237 356 237 354 237 c 2,41,-1
 350 236 l 2,42,43
 344 234 344 234 336 234 c 2,44,-1
 279 232 l 1,45,46
 234 232 234 232 190 231 c 128,-1,47
 146 230 146 230 102 228 c 0,48,49
 97 228 97 228 94.5 232.5 c 128,-1,50
 92 237 92 237 90 243 c 128,-1,51
 88 249 88 249 88 255.5 c 128,-1,52
 88 262 88 262 88 268 c 0,53,54
 88 282 88 282 88.5 294 c 128,-1,55
 89 306 89 306 93 319 c 0,56,57
 98 339 98 339 109.5 355.5 c 128,-1,58
 121 372 121 372 135.5 387.5 c 128,-1,59
 150 403 150 403 166 417.5 c 128,-1,60
 182 432 182 432 196 447.5 c 128,-1,61
 210 463 210 463 221 479.5 c 128,-1,62
 232 496 232 496 235 515 c 1,63,64
 233 526 233 526 228 532.5 c 128,-1,65
 223 539 223 539 215.5 542.5 c 128,-1,66
 208 546 208 546 199 547 c 128,-1,67
 190 548 190 548 181 548 c 2,68,-1
 180 548 l 1,69,-1
 177 548 l 1,70,71
 141 547 141 547 110 539 c 1,72,73
 78 532 78 532 44 518 c 1,74,-1
 21 537 l 1,0,1
85 17 m 1,75,-1
 85 30 l 2,76,77
 85 39 85 39 86 48 c 0,78,79
 86 56 86 56 86 66 c 2,80,-1
 86 84 l 2,81,82
 86 90 86 90 86 98 c 0,83,84
 85 106 85 106 85 116 c 128,-1,85
 85 126 85 126 85.5 137 c 128,-1,86
 86 148 86 148 88 157 c 128,-1,87
 90 166 90 166 93 173.5 c 128,-1,88
 96 181 96 181 100 184 c 1,89,90
 140 183 140 183 179 181.5 c 128,-1,91
 218 180 218 180 259 180 c 1,92,93
 292 179 292 179 311 177.5 c 128,-1,94
 330 176 330 176 340 172.5 c 128,-1,95
 350 169 350 169 353 162 c 128,-1,96
 356 155 356 155 356 143 c 2,97,-1
 356 109 l 1,98,-1
 356 93 l 2,99,100
 356 77 356 77 356.5 62.5 c 128,-1,101
 357 48 357 48 357 32 c 2,102,-1
 357 2 l 1,103,104
 356 -8 356 -8 346 -8 c 0,105,106
 344 -8 344 -8 344 -6 c 1,107,108
 302 -7 302 -7 260 -9.5 c 128,-1,109
 218 -12 218 -12 176 -14 c 2,110,-1
 101 -16 l 1,111,-1
 86 4 l 1,112,113
 86 12 86 12 85 17 c 1,75,-1
EndSplineSet
EndChar

StartChar: at
Encoding: 64 64 35
Width: 835
GlyphClass: 2
Flags: W
LayerCount: 2
Fore
SplineSet
36 362 m 0,0,1
 36 423 36 423 51.5 475.5 c 128,-1,2
 67 528 67 528 94 571 c 128,-1,3
 121 614 121 614 157.5 647.5 c 128,-1,4
 194 681 194 681 238 704 c 128,-1,5
 282 727 282 727 330 739 c 128,-1,6
 378 751 378 751 428 751 c 0,7,8
 499 751 499 751 565 730.5 c 128,-1,9
 631 710 631 710 682.5 672 c 128,-1,10
 734 634 734 634 765 578 c 128,-1,11
 796 522 796 522 796 452 c 0,12,13
 796 414 796 414 789 377.5 c 128,-1,14
 782 341 782 341 768.5 308.5 c 128,-1,15
 755 276 755 276 737.5 248 c 128,-1,16
 720 220 720 220 699 200.5 c 128,-1,17
 678 181 678 181 654.5 169.5 c 128,-1,18
 631 158 631 158 607 158 c 0,19,20
 578 159 578 159 554 178.5 c 128,-1,21
 530 198 530 198 514 240 c 1,22,-1
 510 240 l 1,23,24
 497 224 497 224 483.5 210.5 c 128,-1,25
 470 197 470 197 453 187.5 c 128,-1,26
 436 178 436 178 415 173 c 128,-1,27
 394 168 394 168 366 168 c 0,28,29
 335 168 335 168 307.5 180 c 128,-1,30
 280 192 280 192 259 212.5 c 128,-1,31
 238 233 238 233 225 260.5 c 128,-1,32
 212 288 212 288 212 320 c 2,33,-1
 212 338 l 2,34,35
 212 376 212 376 226 414 c 128,-1,36
 240 452 240 452 266 481 c 128,-1,37
 292 510 292 510 330 529 c 128,-1,38
 368 548 368 548 416 548 c 2,39,-1
 417 548 l 2,40,41
 447 548 447 548 474.5 538 c 128,-1,42
 502 528 502 528 522 508 c 1,43,-1
 546 472 l 1,44,45
 556 507 556 507 565 543 c 1,46,-1
 626 542 l 1,47,-1
 590 348 l 1,48,-1
 586 322 l 2,49,50
 583 306 583 306 583 289 c 0,51,52
 583 277 583 277 584.5 267.5 c 128,-1,53
 586 258 586 258 591 250 c 128,-1,54
 596 242 596 242 604 238 c 128,-1,55
 612 234 612 234 624 234 c 1,56,57
 650 245 650 245 667 264.5 c 128,-1,58
 684 284 684 284 694 308 c 128,-1,59
 704 332 704 332 708 358 c 128,-1,60
 712 384 712 384 712 408 c 0,61,62
 712 458 712 458 702 496 c 128,-1,63
 692 534 692 534 673 563.5 c 128,-1,64
 654 593 654 593 628 613.5 c 128,-1,65
 602 634 602 634 571.5 646 c 128,-1,66
 541 658 541 658 506.5 664 c 128,-1,67
 472 670 472 670 437 670 c 0,68,69
 377 670 377 670 321.5 650 c 128,-1,70
 266 630 266 630 224 590 c 128,-1,71
 182 550 182 550 156.5 491 c 128,-1,72
 131 432 131 432 131 354 c 0,73,74
 131 291 131 291 156.5 239.5 c 128,-1,75
 182 188 182 188 224 152 c 128,-1,76
 266 116 266 116 321 96 c 128,-1,77
 376 76 376 76 436 76 c 0,78,79
 498 76 498 76 554 93 c 1,80,-1
 566 57 l 1,81,-1
 578 20 l 1,82,83
 537 4 537 4 495.5 -1 c 128,-1,84
 454 -6 454 -6 406 -6 c 0,85,86
 357 -6 357 -6 310.5 6.5 c 128,-1,87
 264 19 264 19 223 42.5 c 128,-1,88
 182 66 182 66 148 99 c 128,-1,89
 114 132 114 132 89 173 c 128,-1,90
 64 214 64 214 50 262 c 128,-1,91
 36 310 36 310 36 362 c 0,0,1
316 346 m 1,92,93
 316 324 316 324 321 307 c 128,-1,94
 326 290 326 290 335 278 c 128,-1,95
 344 266 344 266 356 260 c 128,-1,96
 368 254 368 254 382 254 c 0,97,98
 411 254 411 254 434.5 264 c 128,-1,99
 458 274 458 274 474 291 c 128,-1,100
 490 308 490 308 498.5 330 c 128,-1,101
 507 352 507 352 507 374 c 0,102,103
 507 390 507 390 502.5 403 c 128,-1,104
 498 416 498 416 491 426 c 0,105,106
 467 456 467 456 429 456 c 0,107,108
 403 456 403 456 383.5 447 c 128,-1,109
 364 438 364 438 350 423 c 128,-1,110
 336 408 336 408 327.5 388 c 128,-1,111
 319 368 319 368 316 346 c 1,92,93
EndSplineSet
EndChar

StartChar: A
Encoding: 65 65 36
Width: 819
GlyphClass: 2
Flags: W
LayerCount: 2
Fore
SplineSet
-24 0 m 1,0,1
 2 94 2 94 32 187 c 2,2,-1
 92 372 l 1,3,-1
 153 556 l 1,4,-1
 214 742 l 2,5,6
 216 746 216 746 218 749 c 128,-1,7
 220 752 220 752 222 754 c 1,8,-1
 306 754 l 2,9,10
 350 754 350 754 393 755 c 128,-1,11
 436 756 436 756 480 756 c 1,12,-1
 526 754 l 2,13,14
 532 754 532 754 542 755 c 128,-1,15
 552 756 552 756 564 756 c 0,16,17
 579 756 579 756 591 752 c 128,-1,18
 603 748 603 748 603 734 c 1,19,20
 665 563 665 563 718 394 c 2,21,-1
 824 60 l 1,22,-1
 832 33 l 2,23,24
 836 18 836 18 842 6 c 1,25,26
 842 -2 842 -2 838 -6 c 1,27,28
 834 -8 834 -8 826 -10 c 128,-1,29
 818 -12 818 -12 806 -12 c 2,30,-1
 777 -12 l 1,31,-1
 760 -12 l 2,32,33
 730 -12 730 -12 700.5 -12.5 c 128,-1,34
 671 -13 671 -13 641 -13 c 0,35,36
 614 -13 614 -13 587 -12.5 c 128,-1,37
 560 -12 560 -12 534 -10 c 1,38,39
 528 -8 528 -8 526 -5 c 128,-1,40
 524 -2 524 -2 522 4 c 0,41,42
 521 8 521 8 519 17 c 2,43,-1
 515 37 l 2,44,45
 513 48 513 48 509.5 60 c 128,-1,46
 506 72 506 72 501.5 81.5 c 128,-1,47
 497 91 497 91 491.5 97.5 c 128,-1,48
 486 104 486 104 478 104 c 2,49,-1
 306 102 l 1,50,-1
 280 -2 l 1,51,52
 276 -10 276 -10 260 -12 c 128,-1,53
 244 -14 244 -14 224 -14 c 0,54,55
 213 -14 213 -14 202.5 -14 c 128,-1,56
 192 -14 192 -14 184 -14 c 0,57,58
 152 -14 152 -14 120 -15.5 c 128,-1,59
 88 -17 88 -17 56 -17 c 2,60,-1
 42 -17 l 2,61,62
 29 -17 29 -17 16.5 -17.5 c 128,-1,63
 4 -18 4 -18 -10 -18 c 1,64,65
 -14 -14 -14 -14 -17 -9.5 c 128,-1,66
 -20 -5 -20 -5 -24 0 c 1,0,1
322 304 m 1,67,-1
 337 280 l 1,68,69
 339 280 339 280 348 280 c 128,-1,70
 357 280 357 280 370 280 c 0,71,72
 386 280 386 280 404 281 c 128,-1,73
 422 282 422 282 438 284 c 128,-1,74
 454 286 454 286 465 290 c 128,-1,75
 476 294 476 294 476 300 c 0,76,77
 476 318 476 318 470 338 c 0,78,79
 464 356 464 356 460 374 c 2,80,-1
 438 470 l 1,81,-1
 417 566 l 1,82,-1
 413 577 l 2,83,84
 411 582 411 582 404 586 c 1,85,86
 398 586 398 586 391 570.5 c 128,-1,87
 384 555 384 555 377 531 c 128,-1,88
 370 507 370 507 363 477 c 2,89,-1
 348 415 l 1,90,-1
 335 355 l 2,91,92
 328 326 328 326 322 304 c 1,67,-1
EndSplineSet
EndChar

StartChar: B
Encoding: 66 66 37
Width: 785
GlyphClass: 2
Flags: W
LayerCount: 2
Fore
SplineSet
46 238 m 0,0,1
 46 318 46 318 46 395.5 c 128,-1,2
 46 473 46 473 48 553 c 0,3,4
 48 563 48 563 48 573 c 128,-1,5
 48 583 48 583 48 593 c 0,6,7
 48 628 48 628 49 663 c 128,-1,8
 50 698 50 698 50 734 c 2,9,10
 50 734 50 734 50 736 c 0,11,12
 50 748 50 748 59 748 c 2,13,-1
 64 748 l 1,14,-1
 157 754 l 2,15,16
 196 757 196 757 237 757 c 1,17,18
 244 756 244 756 251 756 c 2,19,-1
 347 756 l 1,20,-1
 478 756 l 2,21,22
 504 756 504 756 530.5 754 c 128,-1,23
 557 752 557 752 582 746.5 c 128,-1,24
 607 741 607 741 630.5 731.5 c 128,-1,25
 654 722 654 722 676 706 c 0,26,27
 692 694 692 694 705 677.5 c 128,-1,28
 718 661 718 661 726 641.5 c 128,-1,29
 734 622 734 622 738 600 c 128,-1,30
 742 578 742 578 742 556 c 0,31,32
 742 523 742 523 734.5 497.5 c 128,-1,33
 727 472 727 472 712.5 452 c 128,-1,34
 698 432 698 432 678 416 c 128,-1,35
 658 400 658 400 632 386 c 1,36,37
 696 368 696 368 730 324 c 128,-1,38
 764 280 764 280 764 212 c 0,39,40
 764 179 764 179 756 151.5 c 128,-1,41
 748 124 748 124 734 102 c 128,-1,42
 720 80 720 80 700 62 c 128,-1,43
 680 44 680 44 658 31 c 0,44,45
 612 5 612 5 563 -4.5 c 128,-1,46
 514 -14 514 -14 464 -14 c 0,47,48
 428 -14 428 -14 392 -13 c 128,-1,49
 356 -12 356 -12 319 -12 c 0,50,51
 255 -12 255 -12 192 -13 c 128,-1,52
 129 -14 129 -14 64 -16 c 1,53,54
 54 0 54 0 52 20.5 c 128,-1,55
 50 41 50 41 49 68 c 2,56,-1
 47 153 l 2,57,58
 46 196 46 196 46 238 c 0,0,1
333 574 m 0,59,60
 333 540 333 540 334.5 507 c 128,-1,61
 336 474 336 474 336 440 c 0,62,63
 336 430 336 430 348 429 c 1,64,65
 359 431 359 431 372.5 432.5 c 128,-1,66
 386 434 386 434 399 436.5 c 128,-1,67
 412 439 412 439 424 443.5 c 128,-1,68
 436 448 436 448 445.5 457 c 128,-1,69
 455 466 455 466 460.5 480 c 128,-1,70
 466 494 466 494 466 516 c 0,71,72
 466 543 466 543 454 558.5 c 128,-1,73
 442 574 442 574 424 582 c 0,74,75
 411 588 411 588 392.5 590 c 128,-1,76
 374 592 374 592 361 592 c 1,77,78
 347 590 347 590 340 587.5 c 128,-1,79
 333 585 333 585 333 574 c 0,59,60
342 193 m 2,80,81
 342 183 342 183 343 175.5 c 128,-1,82
 344 168 344 168 344 162 c 128,-1,83
 344 156 344 156 346 156 c 2,84,-1
 362 156 l 2,85,86
 383 156 383 156 403.5 158 c 128,-1,87
 424 160 424 160 440.5 169 c 128,-1,88
 457 178 457 178 467 195 c 128,-1,89
 477 212 477 212 477 240 c 0,90,91
 477 269 477 269 464.5 284.5 c 128,-1,92
 452 300 452 300 433 307 c 128,-1,93
 414 314 414 314 392 315 c 128,-1,94
 370 316 370 316 352 317 c 1,95,-1
 346 298 l 1,96,97
 344 276 344 276 343 255 c 128,-1,98
 342 234 342 234 342 211 c 2,99,-1
 342 193 l 2,80,81
EndSplineSet
EndChar

StartChar: C
Encoding: 67 67 38
Width: 778
GlyphClass: 2
Flags: W
LayerCount: 2
Fore
SplineSet
20 398 m 1,0,-1
 24 442 l 2,1,2
 26 464 26 464 30 486 c 1,3,4
 35 506 35 506 42 528 c 0,5,6
 48 550 48 550 60 574 c 0,7,8
 88 631 88 631 128.5 668.5 c 128,-1,9
 169 706 169 706 217 728.5 c 128,-1,10
 265 751 265 751 318 760 c 0,11,12
 372 769 372 769 424 769 c 0,13,14
 506 769 506 769 566 749.5 c 128,-1,15
 626 730 626 730 666.5 696 c 128,-1,16
 707 662 707 662 728.5 615 c 128,-1,17
 750 568 750 568 756 514 c 1,18,-1
 760 466 l 2,19,20
 760 461 760 461 750 457.5 c 128,-1,21
 740 454 740 454 724 452.5 c 128,-1,22
 708 451 708 451 688 450.5 c 128,-1,23
 668 450 668 450 646 450 c 0,24,25
 610 450 610 450 574 451 c 128,-1,26
 538 452 538 452 513 452 c 0,27,28
 509 452 509 452 505.5 451.5 c 128,-1,29
 502 451 502 451 498 451 c 0,30,31
 486 451 486 451 480 458.5 c 128,-1,32
 474 466 474 466 471.5 478 c 128,-1,33
 469 490 469 490 467 504 c 128,-1,34
 465 518 465 518 460.5 529.5 c 128,-1,35
 456 541 456 541 447 548.5 c 128,-1,36
 438 556 438 556 422 556 c 0,37,38
 400 556 400 556 386 547 c 128,-1,39
 372 538 372 538 364 523.5 c 128,-1,40
 356 509 356 509 351.5 489.5 c 128,-1,41
 347 470 347 470 345.5 448.5 c 128,-1,42
 344 427 344 427 344 405.5 c 128,-1,43
 344 384 344 384 343 364 c 0,44,45
 343 354 343 354 342 342 c 128,-1,46
 341 330 341 330 341 316 c 0,47,48
 341 296 341 296 343.5 274 c 128,-1,49
 346 252 346 252 353 233 c 128,-1,50
 360 214 360 214 373 201.5 c 128,-1,51
 386 189 386 189 407 188 c 0,52,53
 427 188 427 188 436.5 201 c 128,-1,54
 446 214 446 214 452 231 c 128,-1,55
 458 248 458 248 462 264.5 c 128,-1,56
 466 281 466 281 474 289 c 1,57,58
 497 289 497 289 519.5 288.5 c 128,-1,59
 542 288 542 288 566 288 c 0,60,61
 578 288 578 288 589 288.5 c 128,-1,62
 600 289 600 289 611 289 c 0,63,64
 644 289 644 289 678 288 c 0,65,66
 688 288 688 288 698 288 c 2,67,-1
 718 288 l 1,68,-1
 746 288 l 1,69,70
 762 286 762 286 764 268 c 1,71,72
 762 252 762 252 761 239 c 128,-1,73
 760 226 760 226 758.5 214 c 128,-1,74
 757 202 757 202 753.5 190 c 128,-1,75
 750 178 750 178 742 162 c 1,76,77
 722 110 722 110 686 73 c 128,-1,78
 650 36 650 36 604 13 c 128,-1,79
 558 -10 558 -10 505 -21 c 128,-1,80
 452 -32 452 -32 400 -32 c 0,81,82
 318 -32 318 -32 258.5 -12 c 128,-1,83
 199 8 199 8 156.5 40.5 c 128,-1,84
 114 73 114 73 87.5 116.5 c 128,-1,85
 61 160 61 160 45.5 207.5 c 128,-1,86
 30 255 30 255 25 304.5 c 128,-1,87
 20 354 20 354 20 398 c 1,0,-1
EndSplineSet
EndChar

StartChar: D
Encoding: 68 68 39
Width: 824
GlyphClass: 2
Flags: W
LayerCount: 2
Fore
SplineSet
52 129 m 0,0,1
 52 165 52 165 52.5 200.5 c 128,-1,2
 53 236 53 236 53 272 c 2,3,-1
 53 415 l 2,4,5
 53 438 53 438 52.5 460 c 128,-1,6
 52 482 52 482 52 506 c 2,7,-1
 52 552 l 2,8,9
 52 564 52 564 52 575 c 128,-1,10
 52 586 52 586 52 598 c 2,11,-1
 52 734 l 1,12,13
 52 734 52 734 52 736 c 0,14,15
 52 744 52 744 55 746 c 128,-1,16
 58 748 58 748 66 749 c 0,17,18
 99 752 99 752 132.5 754 c 128,-1,19
 166 756 166 756 200 756 c 2,20,-1
 256 756 l 2,21,22
 280 756 280 756 302 757 c 128,-1,23
 324 758 324 758 346 758 c 0,24,25
 381 758 381 758 417.5 756 c 128,-1,26
 454 754 454 754 496 750 c 0,27,28
 524 747 524 747 551 740.5 c 128,-1,29
 578 734 578 734 602 724.5 c 128,-1,30
 626 715 626 715 648 702.5 c 128,-1,31
 670 690 670 690 687 676 c 2,32,-1
 705 660 l 2,33,34
 715 652 715 652 726.5 637.5 c 128,-1,35
 738 623 738 623 751 599.5 c 128,-1,36
 764 576 764 576 778 540 c 0,37,38
 790 508 790 508 798 468 c 128,-1,39
 806 428 806 428 806 380 c 0,40,41
 806 318 806 318 792.5 264 c 128,-1,42
 779 210 779 210 754 167 c 128,-1,43
 729 124 729 124 694.5 91 c 128,-1,44
 660 58 660 58 619.5 35 c 128,-1,45
 579 12 579 12 533 0 c 128,-1,46
 487 -12 487 -12 439 -12 c 1,47,48
 438 -14 438 -14 436 -14 c 2,49,-1
 420 -14 l 2,50,51
 388 -14 388 -14 356 -13 c 128,-1,52
 324 -12 324 -12 292 -12 c 0,53,54
 234 -12 234 -12 178 -13 c 128,-1,55
 122 -14 122 -14 65 -16 c 1,56,57
 61 -8 61 -8 58.5 -3 c 128,-1,58
 56 2 56 2 54.5 7 c 128,-1,59
 53 12 53 12 52.5 17 c 128,-1,60
 52 22 52 22 52 28 c 0,61,62
 52 54 52 54 52 78.5 c 128,-1,63
 52 103 52 103 52 129 c 0,0,1
329 538 m 2,64,65
 329 445 329 445 331.5 353.5 c 128,-1,66
 334 262 334 262 336 170 c 1,67,68
 338 161 338 161 347 160 c 1,69,70
 367 160 367 160 387 162 c 128,-1,71
 407 164 407 164 426 168 c 1,72,73
 444 174 444 174 458 188 c 128,-1,74
 472 202 472 202 481 221 c 128,-1,75
 490 240 490 240 495.5 261 c 128,-1,76
 501 282 501 282 504 303.5 c 128,-1,77
 507 325 507 325 508 344.5 c 128,-1,78
 509 364 509 364 509 379 c 2,79,-1
 509 410 l 2,80,81
 509 427 509 427 507.5 445.5 c 128,-1,82
 506 464 506 464 503 482 c 128,-1,83
 500 500 500 500 493.5 517 c 128,-1,84
 487 534 487 534 477.5 548 c 128,-1,85
 468 562 468 562 453 573 c 0,86,87
 441 581 441 581 427.5 584.5 c 128,-1,88
 414 588 414 588 400.5 590 c 128,-1,89
 387 592 387 592 372.5 592 c 128,-1,90
 358 592 358 592 345 592 c 1,91,92
 341 584 341 584 337 577 c 128,-1,93
 333 570 333 570 329 562 c 1,94,-1
 329 538 l 2,64,65
EndSplineSet
EndChar

StartChar: E
Encoding: 69 69 40
Width: 653
GlyphClass: 2
Flags: W
LayerCount: 2
Fore
SplineSet
46 18 m 2,0,-1
 46 37 l 2,1,2
 46 165 46 165 48 290 c 0,3,4
 50 414 50 414 50 542 c 2,5,-1
 50 591 l 2,6,7
 50 593 50 593 50 609.5 c 128,-1,8
 50 626 50 626 50 648 c 0,9,10
 50 665 50 665 50 683.5 c 128,-1,11
 50 702 50 702 51 717 c 128,-1,12
 52 732 52 732 54 741 c 128,-1,13
 56 750 56 750 58 750 c 256,14,15
 60 750 60 750 63 749 c 1,16,-1
 340 754 l 2,17,18
 478 756 478 756 619 756 c 1,19,20
 632 754 632 754 632 744 c 2,21,-1
 632 656 l 1,22,-1
 632 616 l 1,23,-1
 632 585 l 2,24,25
 632 570 632 570 630 554 c 1,26,27
 628 548 628 548 624.5 545.5 c 128,-1,28
 621 543 621 543 615.5 541.5 c 128,-1,29
 610 540 610 540 602 540 c 2,30,-1
 588 540 l 2,31,32
 528 540 528 540 470 541 c 128,-1,33
 412 542 412 542 352 544 c 1,34,35
 350 524 350 524 347 504.5 c 128,-1,36
 344 485 344 485 344 465 c 1,37,-1
 482 468 l 2,38,39
 508 469 508 469 532 470 c 1,40,-1
 582 470 l 2,41,42
 598 470 598 470 602.5 463 c 128,-1,43
 607 456 607 456 607 448 c 0,44,45
 607 444 607 444 606.5 440 c 128,-1,46
 606 436 606 436 606 432 c 0,47,48
 606 396 606 396 607.5 361 c 128,-1,49
 609 326 609 326 609 290 c 1,50,51
 607 280 607 280 601 280 c 0,52,53
 598 280 598 280 596 282 c 1,54,55
 537 279 537 279 479.5 276.5 c 128,-1,56
 422 274 422 274 362 274 c 2,57,-1
 349 274 l 1,58,-1
 349 202 l 1,59,60
 415 202 415 202 477.5 206 c 128,-1,61
 540 210 540 210 604 210 c 0,62,63
 616 210 616 210 627.5 207 c 128,-1,64
 639 204 639 204 642 196 c 1,65,66
 642 186 642 186 642 176 c 2,67,-1
 642 158 l 2,68,69
 642 122 642 122 643 87 c 128,-1,70
 644 52 644 52 644 16 c 0,71,72
 644 6 644 6 640 -1 c 128,-1,73
 636 -8 636 -8 624 -9 c 1,74,75
 584 -9 584 -9 543.5 -8.5 c 128,-1,76
 503 -8 503 -8 462 -8 c 0,77,78
 361 -8 361 -8 261.5 -11.5 c 128,-1,79
 162 -15 162 -15 62 -16 c 1,80,-1
 55 -8 l 1,81,-1
 48 0 l 1,82,83
 46 10 46 10 46 18 c 2,0,-1
EndSplineSet
EndChar

StartChar: F
Encoding: 70 70 41
Width: 632
GlyphClass: 2
Flags: W
LayerCount: 2
Fore
SplineSet
50 70 m 2,0,-1
 52 738 l 2,1,2
 52 743 52 743 59 746.5 c 128,-1,3
 66 750 66 750 77 752 c 128,-1,4
 88 754 88 754 101 754.5 c 128,-1,5
 114 755 114 755 128 755 c 0,6,7
 140 755 140 755 152 754.5 c 128,-1,8
 164 754 164 754 174 754 c 0,9,10
 233 754 233 754 291.5 755.5 c 128,-1,11
 350 757 350 757 410 757 c 0,12,13
 452 757 452 757 492 756 c 128,-1,14
 532 755 532 755 576 755 c 0,15,16
 582 755 582 755 588 755.5 c 128,-1,17
 594 756 594 756 600 756 c 0,18,19
 612 756 612 756 622 752 c 128,-1,20
 632 748 632 748 632 733.5 c 128,-1,21
 632 719 632 719 632 705 c 2,22,-1
 632 677 l 2,23,24
 632 645 632 645 632 614.5 c 128,-1,25
 632 584 632 584 630 554 c 1,26,27
 628 548 628 548 624 547 c 0,28,29
 622 546 622 546 622 548 c 1,30,31
 574 544 574 544 526.5 544 c 128,-1,32
 479 544 479 544 431 543 c 2,33,-1
 362 542 l 1,34,35
 362 528 362 528 361.5 515 c 128,-1,36
 361 502 361 502 361 488 c 2,37,-1
 361 481 l 1,38,39
 362 478 362 478 362 474 c 1,40,41
 389 476 389 476 411.5 477.5 c 128,-1,42
 434 479 434 479 456.5 480.5 c 128,-1,43
 479 482 479 482 502.5 482 c 128,-1,44
 526 482 526 482 554 482 c 0,45,46
 564 482 564 482 575 481 c 128,-1,47
 586 480 586 480 594 478.5 c 128,-1,48
 602 477 602 477 608 474.5 c 128,-1,49
 614 472 614 472 614 468 c 2,50,-1
 614 301 l 2,51,52
 614 289 614 289 612 282 c 128,-1,53
 610 275 610 275 605 271 c 128,-1,54
 600 267 600 267 593.5 265.5 c 128,-1,55
 587 264 587 264 579 264 c 0,56,57
 572 264 572 264 564 265 c 128,-1,58
 556 266 556 266 548 266 c 0,59,60
 456 260 456 260 363 258 c 1,61,62
 363 212 363 212 364.5 166 c 128,-1,63
 366 120 366 120 366 74 c 0,64,65
 366 58 366 58 366 42.5 c 128,-1,66
 366 27 366 27 366 12 c 0,67,68
 366 -2 366 -2 363 -7 c 128,-1,69
 360 -12 360 -12 348 -14 c 1,70,71
 276 -14 276 -14 206 -15 c 128,-1,72
 136 -16 136 -16 64 -16 c 1,73,74
 60 -11 60 -11 58 -6 c 128,-1,75
 56 -1 56 -1 52 4 c 1,76,77
 51 20 51 20 50.5 36.5 c 128,-1,78
 50 53 50 53 50 70 c 2,0,-1
EndSplineSet
EndChar

StartChar: G
Encoding: 71 71 42
Width: 840
GlyphClass: 2
Flags: W
LayerCount: 2
Fore
SplineSet
21 374 m 0,0,1
 21 457 21 457 41.5 518.5 c 128,-1,2
 62 580 62 580 96 624 c 128,-1,3
 130 668 130 668 175 696 c 128,-1,4
 220 724 220 724 269 740.5 c 128,-1,5
 318 757 318 757 366 764 c 1,6,7
 416 770 416 770 458 770 c 0,8,9
 474 770 474 770 496 768.5 c 128,-1,10
 518 767 518 767 543 763.5 c 128,-1,11
 568 760 568 760 594 755 c 128,-1,12
 620 750 620 750 643 741 c 0,13,14
 696 721 696 721 731 682 c 0,15,16
 766 642 766 642 778 592 c 1,17,18
 782 570 782 570 784 550 c 128,-1,19
 786 530 786 530 788 510 c 1,20,21
 786 500 786 500 776 498 c 0,22,23
 766 495 766 495 756 495 c 0,24,25
 692 495 692 495 631 497 c 128,-1,26
 570 499 570 499 508 499 c 1,27,28
 502 501 502 501 499 507 c 128,-1,29
 496 513 496 513 494 520.5 c 128,-1,30
 492 528 492 528 490 535.5 c 128,-1,31
 488 543 488 543 482.5 549.5 c 128,-1,32
 477 556 477 556 467.5 560 c 128,-1,33
 458 564 458 564 441 564 c 0,34,35
 409 564 409 564 390 550 c 128,-1,36
 371 536 371 536 360.5 515 c 128,-1,37
 350 494 350 494 346 467 c 128,-1,38
 342 440 342 440 342 414 c 1,39,40
 340 396 340 396 340 382.5 c 128,-1,41
 340 369 340 369 340 359 c 128,-1,42
 340 349 340 349 340 341 c 2,43,-1
 340 326 l 2,44,45
 340 312 340 312 340.5 295.5 c 128,-1,46
 341 279 341 279 344.5 262.5 c 128,-1,47
 348 246 348 246 354.5 232 c 128,-1,48
 361 218 361 218 373 206.5 c 128,-1,49
 385 195 385 195 403 188.5 c 128,-1,50
 421 182 421 182 447 182 c 256,51,52
 473 182 473 182 494.5 184 c 128,-1,53
 516 186 516 186 538 193 c 1,54,-1
 540 254 l 1,55,-1
 516 256 l 1,56,-1
 510 253 l 1,57,-1
 480 253 l 2,58,59
 473 253 473 253 465.5 252.5 c 128,-1,60
 458 252 458 252 449 252 c 1,61,62
 445 257 445 257 440 262 c 0,63,64
 436 266 436 266 432 272 c 1,65,66
 431 284 431 284 431 296 c 2,67,-1
 431 321 l 1,68,-1
 431 354 l 1,69,-1
 431 410 l 2,70,71
 431 418 431 418 435 424 c 128,-1,72
 439 430 439 430 449 438 c 1,73,-1
 485 438 l 2,74,75
 512 438 512 438 534 437.5 c 128,-1,76
 556 437 556 437 576 436.5 c 128,-1,77
 596 436 596 436 616 436 c 128,-1,78
 636 436 636 436 658 436 c 0,79,80
 668 436 668 436 677.5 436 c 128,-1,81
 687 436 687 436 698 436 c 0,82,83
 714 436 714 436 731.5 436 c 128,-1,84
 749 436 749 436 764.5 434 c 128,-1,85
 780 432 780 432 791 428 c 256,86,87
 802 424 802 424 806 418 c 1,88,89
 806 322 806 322 803 227 c 128,-1,90
 800 132 800 132 800 45 c 0,91,92
 800 43 800 43 800.5 40.5 c 128,-1,93
 801 38 801 38 801 35 c 0,94,95
 800 32 800 32 799.5 29 c 128,-1,96
 799 26 799 26 798 24 c 0,97,98
 792 17 792 17 774.5 10.5 c 128,-1,99
 757 4 757 4 733.5 -1.5 c 128,-1,100
 710 -7 710 -7 682 -11.5 c 128,-1,101
 654 -16 654 -16 627 -19.5 c 128,-1,102
 600 -23 600 -23 575 -24.5 c 128,-1,103
 550 -26 550 -26 532 -26 c 2,104,-1
 525 -26 l 2,105,106
 521 -26 521 -26 519 -26 c 0,107,108
 498 -27 498 -27 477.5 -28.5 c 128,-1,109
 457 -30 457 -30 436 -30 c 0,110,111
 333 -30 333 -30 255.5 -1.5 c 128,-1,112
 178 27 178 27 126 79.5 c 128,-1,113
 74 132 74 132 47.5 207 c 128,-1,114
 21 282 21 282 21 374 c 0,0,1
EndSplineSet
EndChar

StartChar: H
Encoding: 72 72 43
Width: 827
GlyphClass: 2
Flags: W
LayerCount: 2
Fore
SplineSet
45 69 m 0,0,1
 45 97 45 97 46.5 126.5 c 128,-1,2
 48 156 48 156 48 176 c 0,3,4
 48 298 48 298 50 412 c 128,-1,5
 52 526 52 526 53 638 c 0,6,7
 53 650 53 650 53.5 668 c 128,-1,8
 54 686 54 686 54.5 704 c 128,-1,9
 55 722 55 722 57.5 736 c 128,-1,10
 60 750 60 750 64 752 c 1,11,12
 77 752 77 752 90.5 752 c 128,-1,13
 104 752 104 752 118 752 c 2,14,-1
 173 752 l 2,15,16
 193 752 193 752 211.5 752 c 128,-1,17
 230 752 230 752 250 752 c 0,18,19
 288 752 288 752 310 749 c 128,-1,20
 332 746 332 746 344 739.5 c 128,-1,21
 356 733 356 733 360 721.5 c 128,-1,22
 364 710 364 710 364 694 c 0,23,24
 364 682 364 682 363 667 c 128,-1,25
 362 652 362 652 362 633 c 2,26,-1
 362 610 l 2,27,28
 362 586 362 586 360.5 562 c 128,-1,29
 359 538 359 538 359 514 c 2,30,-1
 359 504 l 1,31,32
 360 500 360 500 360 496 c 1,33,-1
 380 496 l 2,34,35
 393 496 393 496 406 495.5 c 128,-1,36
 419 495 419 495 432 495 c 0,37,38
 440 495 440 495 449 495.5 c 128,-1,39
 458 496 458 496 466 498 c 1,40,41
 466 534 466 534 466 569 c 128,-1,42
 466 604 466 604 466 640 c 2,43,-1
 466 674 l 2,44,45
 466 682 466 682 466 690 c 128,-1,46
 466 698 466 698 466 706 c 0,47,48
 466 724 466 724 467 735 c 128,-1,49
 468 746 468 746 471 751 c 128,-1,50
 474 756 474 756 479 757 c 128,-1,51
 484 758 484 758 492 758 c 0,52,53
 502 758 502 758 513 757.5 c 128,-1,54
 524 757 524 757 534 757 c 0,55,56
 538 757 538 757 547.5 757.5 c 128,-1,57
 557 758 557 758 571 758.5 c 128,-1,58
 585 759 585 759 602.5 759.5 c 128,-1,59
 620 760 620 760 638 760 c 0,60,61
 662 760 662 760 687 759 c 128,-1,62
 712 758 712 758 731 754.5 c 128,-1,63
 750 751 750 751 762 745 c 128,-1,64
 774 739 774 739 774 730 c 0,65,66
 774 718 774 718 774.5 707 c 128,-1,67
 775 696 775 696 775 684 c 0,68,69
 775 658 775 658 774.5 633 c 128,-1,70
 774 608 774 608 774 582 c 0,71,72
 774 504 774 504 775.5 427 c 128,-1,73
 777 350 777 350 777 272 c 0,74,75
 777 266 777 266 776.5 261 c 128,-1,76
 776 256 776 256 776 252 c 2,77,-1
 776 228 l 2,78,79
 776 216 776 216 776 204 c 128,-1,80
 776 192 776 192 777 180 c 1,81,-1
 777 176 l 1,82,-1
 777 169 l 1,83,84
 776 166 776 166 776 163 c 0,85,86
 776 123 776 123 777 82.5 c 128,-1,87
 778 42 778 42 778 2 c 1,88,89
 777 -4 777 -4 768.5 -7.5 c 128,-1,90
 760 -11 760 -11 746.5 -13 c 128,-1,91
 733 -15 733 -15 716.5 -15.5 c 128,-1,92
 700 -16 700 -16 682 -16 c 2,93,-1
 618 -16 l 2,94,95
 590 -16 590 -16 567 -16 c 2,96,-1
 522 -15 l 1,97,98
 500 -16 500 -16 474 -14 c 1,99,-1
 459 5 l 1,100,-1
 459 38 l 2,101,102
 459 88 459 88 459.5 137 c 128,-1,103
 460 186 460 186 460 236 c 0,104,105
 460 244 460 244 459 248 c 128,-1,106
 458 252 458 252 455 254 c 128,-1,107
 452 256 452 256 446 256 c 2,108,-1
 428 256 l 2,109,110
 412 256 412 256 397 255 c 128,-1,111
 382 254 382 254 366 252 c 1,112,113
 366 190 366 190 365 127.5 c 128,-1,114
 364 65 364 65 364 2 c 1,115,116
 362 -4 362 -4 343.5 -7.5 c 128,-1,117
 325 -11 325 -11 298 -12 c 256,118,119
 271 -13 271 -13 239 -13 c 2,120,-1
 180 -13 l 2,121,122
 147 -13 147 -13 118.5 -12.5 c 128,-1,123
 90 -12 90 -12 62 -10 c 1,124,125
 56 -8 56 -8 53 -1 c 128,-1,126
 50 6 50 6 48 16.5 c 128,-1,127
 46 27 46 27 45.5 40.5 c 128,-1,128
 45 54 45 54 45 69 c 0,0,1
EndSplineSet
EndChar

StartChar: I
Encoding: 73 73 44
Width: 421
GlyphClass: 2
Flags: W
LayerCount: 2
Fore
SplineSet
41 -4 m 1,0,1
 42 48 42 48 43 98 c 128,-1,2
 44 148 44 148 48 200 c 1,3,4
 48 410 48 410 54 626 c 1,5,6
 52 658 52 658 52 688 c 2,7,-1
 52 703 l 1,8,9
 51 711 51 711 50.5 720.5 c 128,-1,10
 50 730 50 730 50 739 c 0,11,12
 50 749 50 749 59 756 c 1,13,14
 113 752 113 752 166.5 751 c 128,-1,15
 220 750 220 750 277 750 c 0,16,17
 297 750 297 750 316.5 750 c 128,-1,18
 336 750 336 750 355 752 c 1,19,20
 361 751 361 751 362.5 746.5 c 128,-1,21
 364 742 364 742 364 728 c 2,22,-1
 364 726 l 1,23,-1
 361 586 l 1,24,-1
 361 558 l 2,25,26
 361 458 361 458 363 360 c 0,27,28
 364 284 364 284 364 206 c 0,29,30
 364 184 364 184 364 162 c 0,31,32
 364 158 364 158 366 154.5 c 128,-1,33
 368 151 368 151 368 147 c 2,34,-1
 372 3 l 1,35,36
 370 -5 370 -5 365 -8.5 c 128,-1,37
 360 -12 360 -12 354 -13 c 1,38,-1
 336 -13 l 1,39,40
 266 -14 266 -14 198 -16 c 0,41,42
 132 -18 132 -18 62 -18 c 1,43,44
 56 -16 56 -16 50.5 -12 c 128,-1,45
 45 -8 45 -8 41 -4 c 1,0,1
EndSplineSet
EndChar

StartChar: J
Encoding: 74 74 45
Width: 691
GlyphClass: 2
Flags: W
LayerCount: 2
Fore
SplineSet
-12 235 m 0,0,1
 -12 246 -12 246 -9 255 c 128,-1,2
 -6 264 -6 264 4 264 c 0,3,4
 20 264 20 264 36 263 c 128,-1,5
 52 262 52 262 68 262 c 2,6,-1
 88 262 l 2,7,8
 98 262 98 262 108 262 c 0,9,10
 112 262 112 262 117 261.5 c 128,-1,11
 122 261 122 261 126 261 c 0,12,13
 132 261 132 261 137.5 261.5 c 128,-1,14
 143 262 143 262 149 262 c 2,15,-1
 232 260 l 2,16,17
 246 260 246 260 253 254 c 128,-1,18
 260 248 260 248 262 240 c 128,-1,19
 264 232 264 232 265 223 c 128,-1,20
 266 214 266 214 268 206 c 128,-1,21
 270 198 270 198 276 193 c 1,22,23
 280 188 280 188 294 188 c 0,24,25
 306 188 306 188 314 195.5 c 128,-1,26
 322 203 322 203 325.5 214.5 c 128,-1,27
 329 226 329 226 329.5 239 c 128,-1,28
 330 252 330 252 330 264 c 2,29,-1
 330 270 l 2,30,31
 330 269 330 269 330 268 c 1,32,-1
 328 268 l 1,33,34
 327 340 327 340 325.5 415.5 c 128,-1,35
 324 491 324 491 324 568 c 0,36,37
 324 610 324 610 325 650 c 0,38,39
 326 692 326 692 327 734 c 1,40,41
 326 735 326 735 326 738 c 0,42,43
 326 749 326 749 338 754 c 1,44,-1
 346 755 l 1,45,46
 370 755 370 755 394 754.5 c 128,-1,47
 418 754 418 754 442 754 c 0,48,49
 478 754 478 754 513 754.5 c 128,-1,50
 548 755 548 755 584 755 c 2,51,-1
 631 755 l 2,52,53
 642 755 642 755 647 741 c 1,54,55
 646 729 646 729 646 716.5 c 128,-1,56
 646 704 646 704 646 692 c 2,57,-1
 644 667 l 1,58,59
 642 598 642 598 641.5 531 c 128,-1,60
 641 464 641 464 641 393 c 2,61,-1
 641 339 l 1,62,-1
 641 287 l 1,63,64
 640 262 640 262 640 236 c 0,65,66
 640 183 640 183 624 143.5 c 128,-1,67
 608 104 608 104 582 74 c 128,-1,68
 556 44 556 44 522 25 c 128,-1,69
 488 6 488 6 452 -6 c 128,-1,70
 416 -18 416 -18 380 -23 c 256,71,72
 344 -28 344 -28 312 -28 c 0,73,74
 276 -28 276 -28 240 -25 c 256,75,76
 204 -22 204 -22 170 -12 c 0,77,78
 142 -4 142 -4 110 13 c 128,-1,79
 78 30 78 30 51 57.5 c 128,-1,80
 24 85 24 85 6.5 124.5 c 128,-1,81
 -11 164 -11 164 -11 216 c 0,82,83
 -11 220 -11 220 -11.5 224.5 c 128,-1,84
 -12 229 -12 229 -12 235 c 0,0,1
EndSplineSet
EndChar

StartChar: K
Encoding: 75 75 46
Width: 823
GlyphClass: 2
Flags: W
LayerCount: 2
Fore
SplineSet
50 3 m 1,0,1
 50 42 50 42 50 79.5 c 128,-1,2
 50 117 50 117 50 156 c 2,3,-1
 50 432 l 1,4,-1
 52 672 l 2,5,6
 52 681 52 681 51 691.5 c 128,-1,7
 50 702 50 702 50 714 c 0,8,9
 50 728 50 728 52 740 c 128,-1,10
 54 752 54 752 62 757 c 1,11,12
 72 758 72 758 81 758 c 2,13,-1
 100 758 l 1,14,-1
 139 758 l 2,15,16
 159 758 159 758 179 757 c 2,17,-1
 244 756 l 2,18,19
 245 756 245 756 257.5 757 c 128,-1,20
 270 758 270 758 286 758 c 0,21,22
 298 758 298 758 310.5 757 c 128,-1,23
 323 756 323 756 333.5 754 c 128,-1,24
 344 752 344 752 351 749 c 128,-1,25
 358 746 358 746 358 740 c 2,26,-1
 358 739 l 1,27,28
 357 669 357 669 356.5 600.5 c 128,-1,29
 356 532 356 532 356 462 c 1,30,-1
 399 550 l 1,31,-1
 440 637 l 2,32,33
 446 650 446 650 453 666 c 2,34,-1
 466 698 l 2,35,36
 473 714 473 714 481 729 c 128,-1,37
 489 744 489 744 498 754 c 1,38,39
 524 754 524 754 549 754 c 2,40,-1
 600 754 l 2,41,42
 652 754 652 754 703 753 c 128,-1,43
 754 752 754 752 804 750 c 1,44,45
 812 748 812 748 812 744 c 0,46,47
 812 742 812 742 810 742 c 1,48,-1
 713 568 l 1,49,-1
 613 394 l 1,50,-1
 621 380 l 1,51,-1
 632 366 l 1,52,53
 638 360 638 360 642 352 c 2,54,-1
 723 212 l 1,55,-1
 805 72 l 2,56,57
 808 66 808 66 814 56 c 2,58,-1
 826 38 l 2,59,60
 832 28 832 28 836 19.5 c 128,-1,61
 840 11 840 11 840 6 c 0,62,63
 840 -2 840 -2 831 -10 c 1,64,65
 819 -10 819 -10 807.5 -10 c 128,-1,66
 796 -10 796 -10 784 -10 c 256,67,68
 772 -10 772 -10 760 -10 c 128,-1,69
 748 -10 748 -10 736 -10 c 2,70,-1
 512 -10 l 1,71,72
 512 -10 512 -10 510 -10 c 1,73,-1
 438 130 l 1,74,-1
 367 269 l 1,75,76
 363 233 363 233 362.5 195.5 c 128,-1,77
 362 158 362 158 360 120 c 1,78,79
 360 90 360 90 360 61 c 128,-1,80
 360 32 360 32 360 2 c 1,81,82
 359 -4 359 -4 354 -7.5 c 128,-1,83
 349 -11 349 -11 340.5 -12.5 c 128,-1,84
 332 -14 332 -14 322 -15 c 128,-1,85
 312 -16 312 -16 300 -16 c 0,86,87
 290 -16 290 -16 280.5 -16 c 128,-1,88
 271 -16 271 -16 263 -16 c 0,89,90
 217 -16 217 -16 171.5 -16 c 128,-1,91
 126 -16 126 -16 80 -16 c 0,92,93
 72 -16 72 -16 67 -15 c 128,-1,94
 62 -14 62 -14 59 -12 c 128,-1,95
 56 -10 56 -10 54 -6 c 2,96,-1
 50 3 l 1,0,1
EndSplineSet
EndChar

StartChar: L
Encoding: 76 76 47
Width: 632
GlyphClass: 2
Flags: W
LayerCount: 2
Fore
SplineSet
51 668 m 0,0,1
 51 684 51 684 51.5 699 c 128,-1,2
 52 714 52 714 54 726.5 c 128,-1,3
 56 739 56 739 59.5 747.5 c 128,-1,4
 63 756 63 756 68 759 c 1,5,6
 75 758 75 758 82 758 c 2,7,-1
 98 758 l 2,8,9
 122 758 122 758 149 759 c 128,-1,10
 176 760 176 760 203 760 c 0,11,12
 233 760 233 760 261.5 759 c 128,-1,13
 290 758 290 758 312 755 c 128,-1,14
 334 752 334 752 349 747 c 128,-1,15
 364 742 364 742 367 733 c 1,16,17
 367 689 367 689 365 647.5 c 128,-1,18
 363 606 363 606 363 562 c 2,19,-1
 362 420 l 2,20,21
 362 414 362 414 361.5 408 c 128,-1,22
 361 402 361 402 361 396 c 2,23,-1
 359 217 l 1,24,-1
 372 210 l 1,25,26
 396 212 396 212 415 213 c 128,-1,27
 434 214 434 214 456 214 c 128,-1,28
 478 214 478 214 504.5 214.5 c 128,-1,29
 531 215 531 215 569 215 c 0,30,31
 583 215 583 215 594.5 214.5 c 128,-1,32
 606 214 606 214 615 212 c 128,-1,33
 624 210 624 210 628.5 206 c 128,-1,34
 633 202 633 202 633 196 c 0,35,36
 633 195 633 195 632 194 c 1,37,-1
 632 194 l 1,38,39
 630 194 630 194 630 188 c 128,-1,40
 630 182 630 182 630 176 c 2,41,-1
 630 165 l 1,42,-1
 630 160 l 2,43,44
 630 150 630 150 630 141 c 128,-1,45
 630 132 630 132 633 122 c 1,46,-1
 633 64 l 1,47,48
 632 34 632 34 632 4 c 1,49,50
 630 -2 630 -2 611 -5 c 128,-1,51
 592 -8 592 -8 561 -10 c 128,-1,52
 530 -12 530 -12 490.5 -13 c 128,-1,53
 451 -14 451 -14 410 -14 c 2,54,-1
 330 -14 l 2,55,56
 291 -14 291 -14 261 -14 c 0,57,58
 231 -15 231 -15 201.5 -16 c 128,-1,59
 172 -17 172 -17 142 -17 c 0,60,61
 122 -17 122 -17 103 -16.5 c 128,-1,62
 84 -16 84 -16 64 -16 c 1,63,64
 56 -4 56 -4 54 11 c 128,-1,65
 52 26 52 26 52 42 c 0,66,67
 52 52 52 52 52 63 c 128,-1,68
 52 74 52 74 52 84 c 2,69,-1
 52 184 l 2,70,71
 52 278 52 278 53 369 c 128,-1,72
 54 460 54 460 54 554 c 0,73,74
 54 574 54 574 52.5 605 c 128,-1,75
 51 636 51 636 51 668 c 0,0,1
EndSplineSet
EndChar

StartChar: M
Encoding: 77 77 48
Width: 1096
GlyphClass: 2
Flags: W
LayerCount: 2
Fore
SplineSet
61 -2 m 0,0,1
 61 0 61 0 61.5 3 c 128,-1,2
 62 6 62 6 64 12 c 1,3,4
 63 33 63 33 62 54.5 c 128,-1,5
 61 76 61 76 61 98 c 0,6,7
 62 234 62 234 62 369 c 128,-1,8
 62 504 62 504 63 641 c 0,9,10
 63 667 63 667 62.5 690.5 c 128,-1,11
 62 714 62 714 62 740 c 0,12,13
 62 744 62 744 64 748 c 128,-1,14
 66 752 66 752 74 756 c 1,15,16
 88 756 88 756 99.5 756.5 c 128,-1,17
 111 757 111 757 123 757 c 2,18,-1
 149 757 l 1,19,-1
 182 757 l 2,20,21
 228 757 228 757 261.5 756.5 c 128,-1,22
 295 756 295 756 318.5 755.5 c 128,-1,23
 342 755 342 755 357 754.5 c 128,-1,24
 372 754 372 754 383 753 c 128,-1,25
 394 752 394 752 402 751.5 c 128,-1,26
 410 751 410 751 420 750.5 c 128,-1,27
 430 750 430 750 442 749.5 c 128,-1,28
 454 749 454 749 472 749 c 1,29,30
 490 649 490 649 510 550 c 1,31,-1
 548 351 l 1,32,-1
 609 660 l 2,33,34
 609 662 609 662 610.5 670 c 128,-1,35
 612 678 612 678 613.5 688 c 128,-1,36
 615 698 615 698 617.5 710 c 128,-1,37
 620 722 620 722 622.5 731.5 c 128,-1,38
 625 741 625 741 628.5 747.5 c 128,-1,39
 632 754 632 754 634 754 c 0,40,41
 635 754 635 754 635.5 753.5 c 128,-1,42
 636 753 636 753 638 753 c 0,43,44
 718 753 718 753 796 754.5 c 128,-1,45
 874 756 874 756 954 756 c 0,46,47
 973 756 973 756 991.5 756 c 128,-1,48
 1010 756 1010 756 1028 756 c 1,49,50
 1035 755 1035 755 1038.5 749.5 c 128,-1,51
 1042 744 1042 744 1042 728 c 0,52,53
 1045 597 1045 597 1048.5 460.5 c 128,-1,54
 1052 324 1052 324 1054 187 c 1,55,56
 1054 92 1054 92 1052 2 c 1,57,58
 1050 -8 1050 -8 1042 -11 c 128,-1,59
 1034 -14 1034 -14 1022 -14 c 1,60,-1
 1000 -16 l 1,61,62
 984 -16 984 -16 968 -16 c 2,63,-1
 936 -16 l 2,64,65
 900 -16 900 -16 865 -17 c 1,66,-1
 794 -17 l 1,67,68
 786 -11 786 -11 781 3.5 c 128,-1,69
 776 18 776 18 774 37.5 c 128,-1,70
 772 57 772 57 771 79.5 c 128,-1,71
 770 102 770 102 770 124 c 0,72,73
 770 154 770 154 770 180 c 128,-1,74
 770 206 770 206 770 229 c 128,-1,75
 770 252 770 252 770.5 273 c 128,-1,76
 771 294 771 294 771 316 c 2,77,-1
 771 351 l 1,78,79
 770 370 770 370 770 388 c 1,80,81
 744 292 744 292 724 194 c 128,-1,82
 704 96 704 96 681 0 c 0,83,84
 679 -6 679 -6 671.5 -9 c 128,-1,85
 664 -12 664 -12 655 -13.5 c 128,-1,86
 646 -15 646 -15 635 -15 c 2,87,-1
 614 -15 l 1,88,89
 582 -14 582 -14 552 -14 c 0,90,91
 528 -14 528 -14 506 -14 c 128,-1,92
 484 -14 484 -14 458 -14 c 0,93,94
 446 -14 446 -14 435 -11 c 128,-1,95
 424 -8 424 -8 420 3 c 1,96,-1
 386 154 l 1,97,-1
 372 212 l 1,98,-1
 360 270 l 1,99,-1
 324 422 l 1,100,101
 322 362 322 362 320 301.5 c 128,-1,102
 318 241 318 241 318 178 c 2,103,-1
 318 90 l 2,104,105
 318 46 318 46 319 1 c 1,106,107
 316 -10 316 -10 308 -10 c 0,108,109
 296 -10 296 -10 284.5 -10 c 128,-1,110
 273 -10 273 -10 261 -10 c 0,111,112
 217 -10 217 -10 174.5 -10.5 c 128,-1,113
 132 -11 132 -11 88 -11 c 0,114,115
 78 -11 78 -11 69.5 -9.5 c 128,-1,116
 61 -8 61 -8 61 -2 c 0,0,1
EndSplineSet
EndChar

StartChar: N
Encoding: 78 78 49
Width: 863
GlyphClass: 2
Flags: W
LayerCount: 2
Fore
SplineSet
40 16 m 0,0,1
 40 25 40 25 40 34 c 0,2,3
 40 44 40 44 40 52 c 2,4,-1
 42 224 l 1,5,6
 42 343 42 343 43 460.5 c 128,-1,7
 44 578 44 578 48 697 c 1,8,-1
 49 738 l 2,9,10
 49 746 49 746 52 748 c 0,11,12
 56 750 56 750 62 751 c 0,13,14
 146 752 146 752 228 754 c 0,15,16
 312 756 312 756 396 756 c 0,17,18
 400 756 400 756 403 751 c 128,-1,19
 406 746 406 746 408 740.5 c 128,-1,20
 410 735 410 735 412 728.5 c 128,-1,21
 414 722 414 722 416 716 c 0,22,23
 448 622 448 622 484 533 c 1,24,-1
 554 350 l 1,25,26
 554 448 554 448 554 544 c 1,27,28
 556 640 556 640 556 740 c 0,29,30
 556 744 556 744 562 747 c 128,-1,31
 568 750 568 750 579.5 751.5 c 128,-1,32
 591 753 591 753 605.5 753.5 c 128,-1,33
 620 754 620 754 636 754 c 0,34,35
 653 754 653 754 670.5 753.5 c 128,-1,36
 688 753 688 753 704.5 752.5 c 128,-1,37
 721 752 721 752 734.5 752 c 128,-1,38
 748 752 748 752 758 752 c 2,39,-1
 796 752 l 2,40,41
 800 752 800 752 802 751 c 128,-1,42
 804 750 804 750 804 749 c 0,43,44
 806 645 806 645 807 547.5 c 128,-1,45
 808 450 808 450 808 351 c 0,46,47
 808 310 808 310 807 270 c 0,48,49
 807 257 807 257 807 244 c 0,50,51
 807 237 807 237 807 230 c 0,52,53
 807 210 807 210 807 190 c 2,54,-1
 807 150 l 1,55,56
 808 114 808 114 808 77 c 2,57,-1
 808 4 l 1,58,59
 806 -4 806 -4 796 -6.5 c 128,-1,60
 786 -9 786 -9 775 -9 c 2,61,-1
 762 -9 l 2,62,63
 723 -9 723 -9 685.5 -10 c 128,-1,64
 648 -11 648 -11 609 -11 c 2,65,-1
 535 -11 l 1,66,67
 498 -10 498 -10 462 -10 c 1,68,69
 459 -9 459 -9 454.5 -0.5 c 128,-1,70
 450 8 450 8 444.5 22 c 128,-1,71
 439 36 439 36 433 52 c 2,72,-1
 421 85 l 1,73,-1
 410 115 l 1,74,-1
 402 138 l 1,75,-1
 311 380 l 1,76,77
 311 336 311 336 310.5 292 c 128,-1,78
 310 248 310 248 310 204 c 0,79,80
 310 171 310 171 311 138 c 128,-1,81
 312 105 312 105 312 72 c 2,82,-1
 312 22 l 1,83,-1
 312 9 l 2,84,85
 312 3 312 3 310 -2.5 c 128,-1,86
 308 -8 308 -8 304 -12 c 128,-1,87
 300 -16 300 -16 292 -16 c 0,88,89
 255 -14 255 -14 221 -14 c 2,90,-1
 197 -14 l 1,91,-1
 162 -14 l 1,92,-1
 102 -16 l 1,93,-1
 62 -17 l 1,94,-1
 48 -2 l 2,95,96
 40 6 40 6 40 16 c 0,0,1
804 749 m 1,97,-1
 804 750 l 1,98,-1
 805 750 l 1,99,-1
 805 749 l 1,100,-1
 805 748 l 1,101,-1
 804 749 l 1,97,-1
EndSplineSet
EndChar

StartChar: O
Encoding: 79 79 50
Width: 822
GlyphClass: 2
Flags: W
LayerCount: 2
Fore
SplineSet
12 376 m 1,0,-1
 18 431 l 2,1,2
 20 458 20 458 25 484 c 128,-1,3
 30 510 30 510 39 535 c 128,-1,4
 48 560 48 560 62 587 c 0,5,6
 90 637 90 637 128 672.5 c 128,-1,7
 166 708 166 708 213 731 c 128,-1,8
 260 754 260 754 313 764.5 c 128,-1,9
 366 775 366 775 422 775 c 0,10,11
 452 775 452 775 490 769.5 c 128,-1,12
 528 764 528 764 567 751.5 c 128,-1,13
 606 739 606 739 642 717.5 c 128,-1,14
 678 696 678 696 704 662 c 1,15,16
 731 629 731 629 749.5 597.5 c 128,-1,17
 768 566 768 566 780 528 c 0,18,19
 784 513 784 513 787.5 495 c 128,-1,20
 791 477 791 477 793.5 458.5 c 128,-1,21
 796 440 796 440 797 422 c 128,-1,22
 798 404 798 404 798 388 c 0,23,24
 798 349 798 349 794 311.5 c 128,-1,25
 790 274 790 274 781.5 239 c 128,-1,26
 773 204 773 204 758.5 173 c 128,-1,27
 744 142 744 142 724 116 c 2,28,-1
 702 86 l 2,29,30
 678 54 678 54 642.5 33 c 128,-1,31
 607 12 607 12 566.5 -2 c 128,-1,32
 526 -16 526 -16 483.5 -22 c 128,-1,33
 441 -28 441 -28 402 -28 c 0,34,35
 336 -28 336 -28 278 -15 c 128,-1,36
 220 -2 220 -2 168 32 c 0,37,38
 120 63 120 63 90 103 c 128,-1,39
 60 143 60 143 43 188 c 128,-1,40
 26 233 26 233 19 281 c 128,-1,41
 12 329 12 329 12 376 c 1,0,-1
310 336 m 0,42,43
 310 310 310 310 313 280.5 c 128,-1,44
 316 251 316 251 326 226 c 128,-1,45
 336 201 336 201 353 184 c 0,46,47
 370 168 370 168 397 166 c 1,48,49
 423 166 423 166 441.5 175 c 128,-1,50
 460 184 460 184 472 201 c 128,-1,51
 484 218 484 218 491 240 c 128,-1,52
 498 262 498 262 501 287 c 128,-1,53
 504 312 504 312 505 339.5 c 128,-1,54
 506 367 506 367 506 394 c 0,55,56
 506 412 506 412 505 432.5 c 128,-1,57
 504 453 504 453 500.5 473 c 128,-1,58
 497 493 497 493 490.5 511.5 c 128,-1,59
 484 530 484 530 473.5 543.5 c 128,-1,60
 463 557 463 557 447.5 565.5 c 128,-1,61
 432 574 432 574 410 574 c 0,62,63
 386 574 386 574 371 564 c 128,-1,64
 356 554 356 554 345 538 c 128,-1,65
 334 522 334 522 328.5 502 c 128,-1,66
 323 482 323 482 319.5 460 c 128,-1,67
 316 438 316 438 315 417 c 128,-1,68
 314 396 314 396 312 380 c 0,69,70
 311 371 311 371 310.5 359.5 c 128,-1,71
 310 348 310 348 310 336 c 0,42,43
EndSplineSet
EndChar

StartChar: P
Encoding: 80 80 51
Width: 763
GlyphClass: 2
Flags: W
LayerCount: 2
Fore
SplineSet
52 68 m 2,0,-1
 52 222 l 1,1,-1
 52 284 l 2,2,3
 52 330 52 330 53 376 c 0,4,5
 54 427 54 427 54 480 c 0,6,7
 54 506 54 506 54 532 c 2,8,-1
 54 734 l 2,9,10
 54 739 54 739 59 741.5 c 128,-1,11
 64 744 64 744 72 745 c 128,-1,12
 80 746 80 746 89 746 c 128,-1,13
 98 746 98 746 106 746 c 2,14,-1
 166 748 l 1,15,16
 182 750 182 750 197 750 c 2,17,-1
 226 750 l 1,18,-1
 267 750 l 1,19,-1
 266 752 l 2,20,21
 266 754 266 754 270 754.5 c 128,-1,22
 274 755 274 755 279 755.5 c 128,-1,23
 284 756 284 756 291 756 c 128,-1,24
 298 756 298 756 304 756 c 0,25,26
 352 756 352 756 397 755 c 128,-1,27
 442 754 442 754 488 750 c 0,28,29
 494 750 494 750 500 751 c 128,-1,30
 506 752 506 752 512 752 c 0,31,32
 561 752 561 752 606 735.5 c 128,-1,33
 651 719 651 719 685.5 687 c 128,-1,34
 720 655 720 655 740 608.5 c 128,-1,35
 760 562 760 562 760 500 c 0,36,37
 760 447 760 447 747 407.5 c 128,-1,38
 734 368 734 368 711 340 c 128,-1,39
 688 312 688 312 658 293 c 128,-1,40
 628 274 628 274 595 263 c 128,-1,41
 562 252 562 252 529 246 c 128,-1,42
 496 240 496 240 466 238 c 2,43,-1
 408 236 l 1,44,-1
 370 234 l 1,45,46
 368 190 368 190 367 148 c 128,-1,47
 366 106 366 106 366 62 c 0,48,49
 366 48 366 48 366 34 c 128,-1,50
 366 20 366 20 366 6 c 1,51,52
 365 -2 365 -2 361.5 -7 c 128,-1,53
 358 -12 358 -12 349 -12 c 2,54,-1
 65 -17 l 1,55,56
 57 5 57 5 54.5 25.5 c 128,-1,57
 52 46 52 46 52 68 c 2,0,-1
334 418 m 1,58,-1
 350 396 l 1,59,60
 374 396 374 396 398.5 401 c 128,-1,61
 423 406 423 406 442.5 418 c 128,-1,62
 462 430 462 430 474 450 c 128,-1,63
 486 470 486 470 486 500 c 0,64,65
 486 522 486 522 479 536 c 1,66,67
 472 554 472 554 458 564.5 c 128,-1,68
 444 575 444 575 426.5 579.5 c 128,-1,69
 409 584 409 584 389.5 585 c 128,-1,70
 370 586 370 586 351 586 c 1,71,72
 347 584 347 584 344.5 574 c 128,-1,73
 342 564 342 564 340 549 c 128,-1,74
 338 534 338 534 337 516 c 128,-1,75
 336 498 336 498 335.5 480 c 128,-1,76
 335 462 335 462 334.5 445.5 c 128,-1,77
 334 429 334 429 334 418 c 1,58,-1
EndSplineSet
EndChar

StartChar: Q
Encoding: 81 81 52
Width: 821
GlyphClass: 2
Flags: W
LayerCount: 2
Fore
SplineSet
20 374 m 0,0,1
 20 447 20 447 36 505 c 128,-1,2
 52 563 52 563 80 607.5 c 128,-1,3
 108 652 108 652 147 684 c 128,-1,4
 186 716 186 716 231.5 736 c 128,-1,5
 277 756 277 756 327.5 765.5 c 128,-1,6
 378 775 378 775 428 775 c 0,7,8
 517 775 517 775 586.5 745.5 c 128,-1,9
 656 716 656 716 704 665 c 128,-1,10
 752 614 752 614 777 544 c 128,-1,11
 802 474 802 474 802 394 c 0,12,13
 802 368 802 368 798 341 c 128,-1,14
 794 314 794 314 786.5 289 c 128,-1,15
 779 264 779 264 768 240.5 c 128,-1,16
 757 217 757 217 743 198 c 1,17,18
 753 198 753 198 762.5 198.5 c 128,-1,19
 772 199 772 199 782 199 c 0,20,21
 796 199 796 199 804.5 196 c 128,-1,22
 813 193 813 193 817.5 188.5 c 128,-1,23
 822 184 822 184 823.5 179 c 128,-1,24
 825 174 825 174 825 168 c 256,25,26
 825 162 825 162 824 156 c 0,27,28
 824 152 824 152 824 146 c 128,-1,29
 824 140 824 140 824 134 c 128,-1,30
 824 128 824 128 824 122 c 2,31,-1
 825 74 l 1,32,33
 824 55 824 55 824 36 c 0,34,35
 824 26 824 26 824 17 c 128,-1,36
 824 8 824 8 824 -2 c 1,37,38
 823 -10 823 -10 818.5 -14.5 c 128,-1,39
 814 -19 814 -19 804 -22 c 1,40,41
 798 -21 798 -21 783.5 -19.5 c 128,-1,42
 769 -18 769 -18 750 -17 c 128,-1,43
 731 -16 731 -16 709.5 -15.5 c 128,-1,44
 688 -15 688 -15 666 -15 c 0,45,46
 628 -15 628 -15 594 -18 c 128,-1,47
 560 -21 560 -21 527 -24.5 c 128,-1,48
 494 -28 494 -28 461.5 -31 c 128,-1,49
 429 -34 429 -34 396 -34 c 0,50,51
 341 -34 341 -34 296 -23 c 128,-1,52
 251 -12 251 -12 214.5 8 c 128,-1,53
 178 28 178 28 149 57 c 128,-1,54
 120 86 120 86 98 122 c 1,55,-1
 92 122 l 1,56,57
 89 125 89 125 85.5 127.5 c 128,-1,58
 82 130 82 130 80 135 c 0,59,60
 47 188 47 188 33.5 250 c 128,-1,61
 20 312 20 312 20 374 c 0,0,1
310 364 m 0,62,63
 310 346 310 346 310.5 324 c 128,-1,64
 311 302 311 302 313.5 279 c 128,-1,65
 316 256 316 256 322 235 c 128,-1,66
 328 214 328 214 338 197 c 128,-1,67
 348 180 348 180 364 170 c 128,-1,68
 380 160 380 160 403 160 c 0,69,70
 404 160 404 160 404.5 160 c 128,-1,71
 405 160 405 160 406 160 c 2,72,-1
 404 172 l 2,73,74
 404 174 404 174 408 174 c 128,-1,75
 412 174 412 174 416.5 173 c 128,-1,76
 421 172 421 172 425 172 c 0,77,78
 443 172 443 172 456 180 c 128,-1,79
 469 188 469 188 477.5 201 c 128,-1,80
 486 214 486 214 491.5 231 c 128,-1,81
 497 248 497 248 499.5 266 c 128,-1,82
 502 284 502 284 503 301 c 128,-1,83
 504 318 504 318 505 333 c 1,84,85
 505 349 505 349 505.5 367 c 128,-1,86
 506 385 506 385 506 405 c 0,87,88
 506 434 506 434 503.5 465.5 c 128,-1,89
 501 497 501 497 491.5 523.5 c 128,-1,90
 482 550 482 550 463 567 c 128,-1,91
 444 584 444 584 412 584 c 0,92,93
 390 584 390 584 374 573.5 c 128,-1,94
 358 563 358 563 346.5 546 c 128,-1,95
 335 529 335 529 328 506.5 c 128,-1,96
 321 484 321 484 317 459.5 c 128,-1,97
 313 435 313 435 311.5 410.5 c 128,-1,98
 310 386 310 386 310 364 c 0,62,63
EndSplineSet
EndChar

StartChar: R
Encoding: 82 82 53
Width: 780
GlyphClass: 2
Flags: W
LayerCount: 2
Fore
SplineSet
46 -8 m 1,0,1
 46 76 46 76 47 160 c 128,-1,2
 48 244 48 244 48 330 c 1,3,-1
 49 409 l 2,4,5
 49 425 49 425 49.5 440.5 c 128,-1,6
 50 456 50 456 50 472 c 2,7,-1
 48 526 l 2,8,9
 48 552 48 552 48 582 c 0,10,11
 48 621 48 621 49 660 c 128,-1,12
 50 699 50 699 50 738 c 0,13,14
 50 747 50 747 61 749.5 c 128,-1,15
 72 752 72 752 88 752 c 0,16,17
 120 752 120 752 150 752 c 0,18,19
 178 752 178 752 210 751 c 1,20,-1
 278 752 l 2,21,22
 317 752 317 752 356 753 c 128,-1,23
 395 754 395 754 434 754 c 0,24,25
 456 754 456 754 478 753 c 0,26,27
 502 752 502 752 524 752 c 0,28,29
 638 749 638 749 697 697.5 c 128,-1,30
 756 646 756 646 756 554 c 0,31,32
 756 521 756 521 747.5 494.5 c 128,-1,33
 739 468 739 468 723.5 446 c 128,-1,34
 708 424 708 424 685 407 c 128,-1,35
 662 390 662 390 634 377 c 1,36,37
 666 367 666 367 686 349 c 128,-1,38
 706 331 706 331 719 308 c 128,-1,39
 732 285 732 285 739 258.5 c 128,-1,40
 746 232 746 232 750 204 c 128,-1,41
 754 176 754 176 756 148 c 128,-1,42
 758 120 758 120 761 96 c 1,43,-1
 770 52 l 2,44,45
 774 30 774 30 780 8 c 1,46,47
 780 -2 780 -2 776 -2 c 1,48,-1
 773 -4 l 1,49,-1
 772 -6 l 1,50,51
 726 -9 726 -9 680 -10 c 128,-1,52
 634 -11 634 -11 588 -11 c 0,53,54
 562 -11 562 -11 539 -10 c 2,55,-1
 489 -8 l 1,56,57
 483 -6 483 -6 478.5 4 c 128,-1,58
 474 14 474 14 470 30 c 128,-1,59
 466 46 466 46 462.5 64.5 c 128,-1,60
 459 83 459 83 456.5 101.5 c 128,-1,61
 454 120 454 120 452 137 c 128,-1,62
 450 154 450 154 448 165 c 1,63,64
 447 191 447 191 443 206.5 c 128,-1,65
 439 222 439 222 431.5 231 c 128,-1,66
 424 240 424 240 411.5 243 c 128,-1,67
 399 246 399 246 381 246 c 0,68,69
 375 246 375 246 369.5 246 c 128,-1,70
 364 246 364 246 359 246 c 1,71,-1
 359 153 l 2,72,73
 359 138 359 138 359.5 123 c 128,-1,74
 360 108 360 108 360 93 c 2,75,-1
 360 2 l 1,76,77
 359 -5 359 -5 354.5 -8.5 c 128,-1,78
 350 -12 350 -12 342 -12 c 0,79,80
 284 -14 284 -14 226 -14 c 2,81,-1
 202 -14 l 1,82,-1
 154 -14 l 2,83,84
 108 -14 108 -14 62 -15 c 1,85,86
 54 -12 54 -12 46 -8 c 1,0,1
356 540 m 0,87,88
 356 526 356 526 356 509 c 128,-1,89
 356 492 356 492 358 475.5 c 128,-1,90
 360 459 360 459 364.5 445.5 c 128,-1,91
 369 432 369 432 377 424 c 1,92,93
 396 424 396 424 416 428.5 c 128,-1,94
 436 433 436 433 453 443.5 c 128,-1,95
 470 454 470 454 480.5 472 c 128,-1,96
 491 490 491 490 491 520 c 0,97,98
 491 542 491 542 480.5 555 c 128,-1,99
 470 568 470 568 454 574 c 1,100,101
 437 582 437 582 418 584 c 0,102,103
 400 586 400 586 380 586 c 2,104,-1
 368 586 l 1,105,106
 360 582 360 582 358 570.5 c 128,-1,107
 356 559 356 559 356 540 c 0,87,88
EndSplineSet
EndChar

StartChar: S
Encoding: 83 83 54
Width: 742
GlyphClass: 2
Flags: W
LayerCount: 2
Fore
SplineSet
20 211 m 0,0,1
 20 221 20 221 30 222 c 1,2,3
 34 221 34 221 40 221 c 2,4,-1
 50 221 l 2,5,6
 112 221 112 221 171 223 c 128,-1,7
 230 225 230 225 292 225 c 0,8,9
 302 225 302 225 307 220 c 128,-1,10
 312 215 312 215 315.5 207.5 c 128,-1,11
 319 200 319 200 322.5 192 c 128,-1,12
 326 184 326 184 332 176.5 c 128,-1,13
 338 169 338 169 349 164 c 128,-1,14
 360 159 360 159 378 159 c 0,15,16
 389 159 389 159 400.5 162.5 c 128,-1,17
 412 166 412 166 420 172 c 128,-1,18
 428 178 428 178 434 188 c 128,-1,19
 440 198 440 198 440 210 c 0,20,21
 440 225 440 225 428 235.5 c 128,-1,22
 416 246 416 246 399 252 c 1,23,24
 382 260 382 260 362 264 c 128,-1,25
 342 268 342 268 326 272 c 1,26,27
 308 278 308 278 290 281 c 128,-1,28
 272 284 272 284 254 289 c 0,29,30
 194 305 194 305 151 324.5 c 128,-1,31
 108 344 108 344 80.5 370 c 128,-1,32
 53 396 53 396 39.5 429 c 128,-1,33
 26 462 26 462 26 505 c 0,34,35
 26 557 26 557 41.5 597.5 c 128,-1,36
 57 638 57 638 83.5 668 c 128,-1,37
 110 698 110 698 145 719 c 128,-1,38
 180 740 180 740 221 753 c 128,-1,39
 262 766 262 766 305 772 c 128,-1,40
 348 778 348 778 390 778 c 0,41,42
 418 778 418 778 447.5 775.5 c 128,-1,43
 477 773 477 773 506.5 767 c 128,-1,44
 536 761 536 761 564 751 c 0,45,46
 590 741 590 741 614 726 c 1,47,-1
 615 725 l 1,48,49
 643 705 643 705 661.5 684.5 c 128,-1,50
 680 664 680 664 690 643 c 128,-1,51
 700 622 700 622 705 600 c 128,-1,52
 710 578 710 578 712 552 c 1,53,-1
 694 534 l 1,54,55
 636 532 636 532 580 531 c 128,-1,56
 524 530 524 530 464 530 c 0,57,58
 446 530 446 530 437.5 533.5 c 128,-1,59
 429 537 429 537 425.5 542.5 c 128,-1,60
 422 548 422 548 420 554 c 128,-1,61
 418 560 418 560 414 566 c 0,62,63
 411 570 411 570 403 574 c 0,64,65
 394 578 394 578 378 578 c 0,66,67
 374 578 374 578 364.5 577 c 128,-1,68
 355 576 355 576 344 572 c 0,69,70
 334 568 334 568 326 562 c 1,71,72
 316 556 316 556 316 546 c 0,73,74
 316 534 316 534 327 526 c 128,-1,75
 338 518 338 518 352 513 c 128,-1,76
 366 508 366 508 381 504.5 c 128,-1,77
 396 501 396 501 405 498 c 0,78,79
 418 494 418 494 434 490 c 2,80,-1
 468 482 l 1,81,-1
 506 473 l 2,82,83
 526 468 526 468 546 462 c 0,84,85
 584 449 584 449 618 431 c 128,-1,86
 652 413 652 413 677 387.5 c 128,-1,87
 702 362 702 362 717 326.5 c 128,-1,88
 732 291 732 291 732 243 c 0,89,90
 732 185 732 185 716 143.5 c 128,-1,91
 700 102 700 102 672 72.5 c 128,-1,92
 644 43 644 43 608 24.5 c 128,-1,93
 572 6 572 6 531 -5 c 128,-1,94
 490 -16 490 -16 447 -22 c 128,-1,95
 404 -28 404 -28 364 -30 c 1,96,97
 345 -29 345 -29 322.5 -28.5 c 128,-1,98
 300 -28 300 -28 275 -25 c 0,99,100
 241 -21 241 -21 207.5 -12 c 128,-1,101
 174 -3 174 -3 145 11 c 128,-1,102
 116 25 116 25 94 43.5 c 128,-1,103
 72 62 72 62 60 86 c 1,104,105
 48 104 48 104 41 117 c 128,-1,106
 34 130 34 130 30 143.5 c 128,-1,107
 26 157 26 157 24 173 c 128,-1,108
 22 189 22 189 20 211 c 0,0,1
EndSplineSet
EndChar

StartChar: T
Encoding: 84 84 55
Width: 659
GlyphClass: 2
Flags: W
LayerCount: 2
Fore
SplineSet
-8 599 m 0,0,1
 -8 613 -8 613 -7 627 c 0,2,3
 -6 640 -6 640 -6 650 c 0,4,5
 -6 656 -6 656 -7 668 c 128,-1,6
 -8 680 -8 680 -8 695 c 0,7,8
 -8 705 -8 705 -7.5 714.5 c 128,-1,9
 -7 724 -7 724 -6 731.5 c 128,-1,10
 -5 739 -5 739 -3.5 743.5 c 128,-1,11
 -2 748 -2 748 2 748 c 0,12,13
 4 748 4 748 9 747 c 1,14,15
 165 747 165 747 318.5 749.5 c 128,-1,16
 472 752 472 752 626 752 c 0,17,18
 640 752 640 752 647.5 751 c 128,-1,19
 655 750 655 750 659 747 c 128,-1,20
 663 744 663 744 664 740 c 128,-1,21
 665 736 665 736 665 730 c 2,22,-1
 665 716 l 2,23,24
 665 677 665 677 665.5 639.5 c 128,-1,25
 666 602 666 602 666 562 c 0,26,27
 666 553 666 553 664 546 c 0,28,29
 662 536 662 536 652 536 c 0,30,31
 610 536 610 536 569 537 c 128,-1,32
 528 538 528 538 486 538 c 1,33,34
 485 480 485 480 485 422 c 2,35,-1
 485 307 l 2,36,37
 485 295 485 295 485.5 283.5 c 128,-1,38
 486 272 486 272 486 261 c 2,39,-1
 487 2 l 1,40,41
 484 -12 484 -12 468 -14 c 1,42,43
 442 -14 442 -14 417 -13.5 c 128,-1,44
 392 -13 392 -13 366 -13 c 1,45,46
 366 -13 366 -13 364 -14 c 1,47,48
 332 -14 332 -14 302.5 -13.5 c 128,-1,49
 273 -13 273 -13 243 -13 c 2,50,-1
 213 -13 l 1,51,52
 198 -14 198 -14 184 -14 c 1,53,-1
 174 -3 l 2,54,55
 171 1 171 1 169 4 c 2,56,-1
 164 10 l 1,57,58
 164 124 164 124 168 236 c 1,59,60
 174 348 174 348 174 462 c 1,61,62
 173 476 173 476 171.5 489 c 128,-1,63
 170 502 170 502 170 516 c 0,64,65
 170 526 170 526 164 529 c 128,-1,66
 158 532 158 532 149 532 c 0,67,68
 143 532 143 532 136.5 531 c 128,-1,69
 130 530 130 530 125 530 c 2,70,-1
 6 532 l 2,71,72
 2 533 2 533 -1 539.5 c 128,-1,73
 -4 546 -4 546 -5 555 c 128,-1,74
 -6 564 -6 564 -7 575.5 c 128,-1,75
 -8 587 -8 587 -8 599 c 0,0,1
EndSplineSet
EndChar

StartChar: U
Encoding: 85 85 56
Width: 807
GlyphClass: 2
Flags: W
LayerCount: 2
Fore
SplineSet
46 249 m 1,0,1
 47 341 47 341 47.5 431.5 c 128,-1,2
 48 522 48 522 48 616 c 2,3,-1
 48 622 l 2,4,5
 48 628 48 628 47 637 c 128,-1,6
 46 646 46 646 46 658 c 128,-1,7
 46 670 46 670 46 683 c 0,8,9
 46 694 46 694 46.5 705 c 128,-1,10
 47 716 47 716 48 725 c 128,-1,11
 49 734 49 734 50.5 741 c 128,-1,12
 52 748 52 748 56 751 c 1,13,14
 60 751 60 751 63.5 750.5 c 128,-1,15
 67 750 67 750 71 750 c 0,16,17
 118 752 118 752 167 753 c 128,-1,18
 216 754 216 754 266 754 c 0,19,20
 274 754 274 754 286 754 c 2,21,-1
 311 752 l 1,22,-1
 334 750 l 2,23,24
 346 748 346 748 354 748 c 1,25,-1
 354 749 l 1,26,27
 356 680 356 680 357.5 612 c 128,-1,28
 359 544 359 544 359 473 c 2,29,-1
 358 375 l 2,30,31
 358 362 358 362 357 351 c 1,32,-1
 357 329 l 1,33,-1
 356 305 l 1,34,-1
 356 278 l 2,35,36
 356 264 356 264 357.5 248.5 c 128,-1,37
 359 233 359 233 363.5 220 c 128,-1,38
 368 207 368 207 377.5 198.5 c 128,-1,39
 387 190 387 190 403 190 c 0,40,41
 413 190 413 190 422 195 c 128,-1,42
 431 200 431 200 437.5 208 c 128,-1,43
 444 216 444 216 447 227 c 128,-1,44
 450 238 450 238 450 249 c 1,45,-1
 452 254 l 1,46,-1
 454 374 l 2,47,48
 454 388 454 388 454 403 c 128,-1,49
 454 418 454 418 454 432 c 0,50,51
 454 488 454 488 453 541 c 128,-1,52
 452 594 452 594 451 650 c 2,53,-1
 450 686 l 2,54,55
 450 694 450 694 449.5 702.5 c 128,-1,56
 449 711 449 711 449 720 c 0,57,58
 450 734 450 734 452 744 c 0,59,60
 454 756 454 756 462 758 c 1,61,62
 536 758 536 758 607 757.5 c 128,-1,63
 678 757 678 757 750 756 c 1,64,65
 752 754 752 754 755 752 c 128,-1,66
 758 750 758 750 760 748 c 2,67,-1
 772 742 l 1,68,69
 770 682 770 682 769 621 c 128,-1,70
 768 560 768 560 768 500 c 0,71,72
 768 472 768 472 768 444 c 128,-1,73
 768 416 768 416 768 388 c 0,74,75
 768 354 768 354 767 319 c 128,-1,76
 766 284 766 284 766 250 c 0,77,78
 766 194 766 194 752 151.5 c 128,-1,79
 738 109 738 109 713 77.5 c 128,-1,80
 688 46 688 46 653.5 26 c 128,-1,81
 619 6 619 6 579.5 -7 c 128,-1,82
 540 -20 540 -20 497 -25 c 128,-1,83
 454 -30 454 -30 410 -30 c 0,84,85
 368 -30 368 -30 325.5 -25 c 128,-1,86
 283 -20 283 -20 243.5 -8 c 128,-1,87
 204 4 204 4 169 24 c 128,-1,88
 134 44 134 44 107.5 75 c 128,-1,89
 81 106 81 106 64.5 149 c 128,-1,90
 48 192 48 192 46 249 c 1,0,1
EndSplineSet
EndChar

StartChar: V
Encoding: 86 86 57
Width: 777
GlyphClass: 2
Flags: W
LayerCount: 2
Fore
SplineSet
-16 738 m 1,0,1
 -16 746 -16 746 -12 749 c 128,-1,2
 -8 752 -8 752 -1 752 c 0,3,4
 71 752 71 752 140.5 753 c 128,-1,5
 210 754 210 754 280 754 c 0,6,7
 286 754 286 754 292 751 c 128,-1,8
 298 748 298 748 304 740 c 1,9,-1
 346 492 l 1,10,-1
 390 242 l 1,11,-1
 394 222 l 1,12,-1
 398 242 l 1,13,14
 419 368 419 368 445 493 c 2,15,-1
 495 743 l 2,16,17
 496 746 496 746 509 748 c 128,-1,18
 522 750 522 750 543 751 c 128,-1,19
 564 752 564 752 590 753 c 128,-1,20
 616 754 616 754 644 754.5 c 128,-1,21
 672 755 672 755 700 755 c 2,22,-1
 752 755 l 2,23,24
 762 755 762 755 771 754.5 c 128,-1,25
 780 754 780 754 780 753 c 2,26,-1
 780 752 l 1,27,28
 786 750 786 750 788.5 746 c 128,-1,29
 791 742 791 742 792 738 c 1,30,-1
 701 408 l 1,31,-1
 690 370 l 2,32,33
 684 352 684 352 680 333 c 2,34,-1
 670 294 l 2,35,36
 665 274 665 274 658 245 c 2,37,-1
 642 181 l 1,38,-1
 625 114 l 2,39,40
 616 80 616 80 606 52 c 128,-1,41
 596 24 596 24 587 6 c 128,-1,42
 578 -12 578 -12 571 -14 c 1,43,44
 544 -14 544 -14 517.5 -12.5 c 128,-1,45
 491 -11 491 -11 464 -11 c 2,46,-1
 428 -11 l 1,47,48
 419 -12 419 -12 409 -12.5 c 128,-1,49
 399 -13 399 -13 389 -13 c 0,50,51
 341 -13 341 -13 295.5 -13.5 c 128,-1,52
 250 -14 250 -14 202 -16 c 1,53,54
 192 -10 192 -10 184 9 c 128,-1,55
 176 28 176 28 170 52 c 128,-1,56
 164 76 164 76 159 100 c 128,-1,57
 154 124 154 124 150 141 c 2,58,-1
 66 439 l 1,59,60
 22 587 22 587 -16 738 c 1,0,1
EndSplineSet
EndChar

StartChar: W
Encoding: 87 87 58
Width: 1065
GlyphClass: 2
Flags: W
LayerCount: 2
Fore
SplineSet
-22 738 m 1,0,1
 -22 745 -22 745 -19 749.5 c 128,-1,2
 -16 754 -16 754 -8 757 c 1,3,4
 1 756 1 756 10.5 756 c 128,-1,5
 20 756 20 756 30 756 c 2,6,-1
 70 757 l 2,7,8
 105 758 105 758 137 758 c 0,9,10
 150 758 150 758 163 758 c 128,-1,11
 176 758 176 758 189 757 c 1,12,-1
 218 757 l 1,13,14
 225 756 225 756 233 756 c 2,15,-1
 248 756 l 1,16,17
 252 755 252 755 257 741.5 c 128,-1,18
 262 728 262 728 266.5 706 c 128,-1,19
 271 684 271 684 275.5 656 c 128,-1,20
 280 628 280 628 284 597 c 2,21,-1
 292 533 l 1,22,-1
 299 471 l 1,23,-1
 305 416 l 2,24,25
 308 391 308 391 310 375 c 1,26,-1
 314 354 l 1,27,-1
 334 482 l 1,28,-1
 353 611 l 1,29,-1
 352 610 l 1,30,31
 352 612 352 612 353.5 624 c 128,-1,32
 355 636 355 636 357 651 c 128,-1,33
 359 666 359 666 362 684 c 128,-1,34
 365 702 365 702 368.5 717 c 128,-1,35
 372 732 372 732 376 742 c 128,-1,36
 380 752 380 752 384 754 c 1,37,38
 400 753 400 753 415 753 c 2,39,-1
 446 753 l 2,40,41
 506 753 506 753 563 753.5 c 128,-1,42
 620 754 620 754 678 754 c 0,43,44
 684 754 684 754 687 751 c 128,-1,45
 690 748 690 748 691 746 c 2,46,-1
 720 552 l 1,47,-1
 750 355 l 1,48,-1
 753 332 l 1,49,50
 762 440 762 440 777 541 c 2,51,-1
 807 744 l 2,52,53
 809 752 809 752 819.5 754 c 128,-1,54
 830 756 830 756 842 756 c 2,55,-1
 866 756 l 2,56,57
 882 756 882 756 903 755 c 1,58,-1
 947 755 l 2,59,60
 970 755 970 755 988.5 754.5 c 128,-1,61
 1007 754 1007 754 1013 754 c 2,62,-1
 1031 752 l 1,63,-1
 1045 750 l 1,64,-1
 1072 746 l 1,65,66
 1082 746 1082 746 1084 724 c 1,67,68
 1066 640 1066 640 1045.5 553 c 128,-1,69
 1025 466 1025 466 1006 378 c 2,70,-1
 1002 360 l 2,71,72
 998 340 998 340 992 320 c 1,73,-1
 958 168 l 1,74,-1
 940 82 l 2,75,76
 931 40 931 40 923 -4 c 1,77,78
 920 -10 920 -10 916 -10 c 0,79,80
 914 -10 914 -10 910 -9 c 1,81,82
 884 -11 884 -11 859 -11 c 128,-1,83
 834 -11 834 -11 808 -11 c 128,-1,84
 782 -11 782 -11 757 -10.5 c 128,-1,85
 732 -10 732 -10 706 -10 c 128,-1,86
 680 -10 680 -10 655 -11 c 128,-1,87
 630 -12 630 -12 604 -12 c 1,88,89
 594 -10 594 -10 594 -7 c 2,90,-1
 594 -6 l 1,91,92
 588 45 588 45 580 94 c 2,93,-1
 564 192 l 1,94,-1
 550 290 l 2,95,96
 542 339 542 339 536 390 c 1,97,98
 520 305 520 305 508 220 c 128,-1,99
 496 135 496 135 488 49 c 0,100,101
 487 37 487 37 484.5 26 c 128,-1,102
 482 15 482 15 479 5.5 c 128,-1,103
 476 -4 476 -4 470.5 -10 c 128,-1,104
 465 -16 465 -16 457 -16 c 0,105,106
 425 -15 425 -15 393.5 -14.5 c 128,-1,107
 362 -14 362 -14 330 -14 c 0,108,109
 284 -14 284 -14 241 -15 c 128,-1,110
 198 -16 198 -16 152 -18 c 1,111,112
 142 -13 142 -13 137 -2.5 c 128,-1,113
 132 8 132 8 129 20 c 128,-1,114
 126 32 126 32 124 45 c 128,-1,115
 122 58 122 58 120 68 c 2,116,-1
 86 236 l 1,117,-1
 50 403 l 1,118,-1
 13 570 l 1,119,-1
 -22 738 l 1,0,1
EndSplineSet
EndChar

StartChar: X
Encoding: 88 88 59
Width: 800
GlyphClass: 2
Flags: W
LayerCount: 2
Fore
SplineSet
-18 0 m 0,0,1
 -18 8 -18 8 -13 18.5 c 128,-1,2
 -8 29 -8 29 0 42 c 2,3,-1
 17 68 l 1,4,-1
 34 94 l 1,5,-1
 94 187 l 1,6,-1
 214 376 l 1,7,-1
 174 446 l 1,8,-1
 91 587 l 1,9,-1
 8 725 l 1,10,-1
 0 738 l 2,11,12
 0 739 0 739 0 743 c 0,13,14
 0 749 0 749 6 753 c 1,15,16
 54 753 54 753 101 751.5 c 128,-1,17
 148 750 148 750 196 750 c 0,18,19
 218 750 218 750 240 749 c 1,20,-1
 275 749 l 1,21,22
 292 750 292 750 310 750 c 1,23,24
 315 749 315 749 322.5 737.5 c 128,-1,25
 330 726 330 726 339 709 c 256,26,27
 348 692 348 692 357 672 c 2,28,-1
 374 631 l 1,29,-1
 390 594 l 1,30,-1
 400 568 l 1,31,-1
 408 553 l 1,32,-1
 414 568 l 1,33,-1
 425 591 l 1,34,-1
 442 627 l 1,35,-1
 461 668 l 1,36,-1
 480 708 l 2,37,38
 489 726 489 726 495.5 738 c 128,-1,39
 502 750 502 750 506 750 c 0,40,41
 508 750 508 750 512 748 c 1,42,43
 583 750 583 750 653.5 753 c 128,-1,44
 724 756 724 756 796 756 c 1,45,46
 810 753 810 753 810 734 c 0,47,48
 810 732 810 732 810 731 c 128,-1,49
 810 730 810 730 810 728 c 1,50,-1
 746 628 l 1,51,-1
 665 499 l 1,52,-1
 585 370 l 1,53,-1
 594 356 l 1,54,-1
 650 270 l 1,55,-1
 666 243 l 2,56,57
 674 229 674 229 684 216 c 1,58,-1
 734 140 l 1,59,-1
 767 88 l 1,60,-1
 800 37 l 1,61,-1
 816 12 l 1,62,63
 818 6 818 6 819 2 c 1,64,65
 819 -8 819 -8 809.5 -11.5 c 128,-1,66
 800 -15 800 -15 785 -16 c 1,67,68
 731 -16 731 -16 677.5 -16.5 c 128,-1,69
 624 -17 624 -17 572 -17 c 1,70,71
 562 -18 562 -18 550 -18 c 0,72,73
 542 -18 542 -18 534 -18 c 2,74,-1
 526 -18 l 2,75,76
 514 -18 514 -18 504 -16 c 128,-1,77
 494 -14 494 -14 486 -8 c 1,78,-1
 444 82 l 1,79,-1
 400 174 l 1,80,-1
 393 188 l 1,81,82
 387 176 387 176 378 157 c 2,83,-1
 359 116 l 1,84,-1
 338 73 l 1,85,-1
 317 32 l 2,86,87
 307 13 307 13 297.5 0.5 c 128,-1,88
 288 -12 288 -12 281 -15 c 1,89,90
 239 -14 239 -14 199 -13.5 c 128,-1,91
 159 -13 159 -13 117 -13 c 0,92,93
 85 -13 85 -13 55.5 -13.5 c 128,-1,94
 26 -14 26 -14 -6 -14 c 1,95,96
 -18 -10 -18 -10 -18 0 c 0,0,1
EndSplineSet
EndChar

StartChar: Y
Encoding: 89 89 60
Width: 762
GlyphClass: 2
Flags: W
LayerCount: 2
Fore
SplineSet
-20 740 m 0,0,1
 -20 747 -20 747 -13 750 c 128,-1,2
 -6 753 -6 753 4 753 c 2,3,-1
 130 753 l 2,4,5
 169 753 169 753 208.5 752.5 c 128,-1,6
 248 752 248 752 286 752 c 1,7,8
 292 751 292 751 302 733 c 128,-1,9
 312 715 312 715 322 687.5 c 128,-1,10
 332 660 332 660 342 627 c 2,11,-1
 362 562 l 1,12,-1
 379 503 l 1,13,-1
 391 462 l 1,14,15
 417 531 417 531 439 602 c 2,16,-1
 485 744 l 2,17,18
 487 750 487 750 501.5 752 c 128,-1,19
 516 754 516 754 535 754 c 1,20,21
 549 755 549 755 564 755 c 2,22,-1
 574 755 l 1,23,24
 594 754 594 754 604 754 c 2,25,-1
 634 754 l 2,26,27
 648 754 648 754 666 754 c 2,28,-1
 700 754 l 2,29,30
 716 754 716 754 733 754 c 128,-1,31
 750 754 750 754 767 754 c 1,32,33
 774 753 774 753 777.5 748.5 c 128,-1,34
 781 744 781 744 784 731 c 1,35,-1
 776 715 l 2,36,37
 774 711 774 711 772 707 c 128,-1,38
 770 703 770 703 768 699 c 2,39,-1
 715 600 l 1,40,-1
 662 498 l 1,41,-1
 653 481 l 1,42,-1
 594 366 l 1,43,-1
 537 250 l 1,44,45
 536 230 536 230 536 211 c 2,46,-1
 536 172 l 1,47,-1
 536 120 l 1,48,-1
 536 34 l 1,49,-1
 536 0 l 1,50,51
 534 -8 534 -8 530 -12 c 128,-1,52
 526 -16 526 -16 516 -16 c 0,53,54
 444 -16 444 -16 374 -17 c 0,55,56
 306 -18 306 -18 234 -18 c 1,57,58
 226 -10 226 -10 222.5 -3 c 128,-1,59
 219 4 219 4 217.5 11 c 128,-1,60
 216 18 216 18 216 24 c 0,61,62
 217 32 217 32 217 40 c 0,63,64
 217 58 217 58 217.5 76 c 128,-1,65
 218 94 218 94 218 112 c 2,66,-1
 218 148 l 2,67,68
 218 192 218 192 212 228 c 128,-1,69
 206 264 206 264 194 298 c 1,70,71
 184 331 184 331 168 363 c 2,72,-1
 134 431 l 1,73,-1
 84 532 l 1,74,-1
 75 551 l 1,75,-1
 55 590 l 2,76,77
 46 609 46 609 36 629 c 0,78,79
 30 639 30 639 20 655 c 2,80,-1
 2 686 l 2,81,82
 -7 702 -7 702 -13.5 716 c 128,-1,83
 -20 730 -20 730 -20 740 c 0,0,1
EndSplineSet
EndChar

StartChar: Z
Encoding: 90 90 61
Width: 697
GlyphClass: 2
Flags: W
LayerCount: 2
Fore
SplineSet
7 8 m 1,0,-1
 7 24 l 2,1,2
 7 38 7 38 7.5 57.5 c 128,-1,3
 8 77 8 77 8 99.5 c 128,-1,4
 8 122 8 122 9 141 c 128,-1,5
 10 160 10 160 10 172 c 128,-1,6
 10 184 10 184 12 184 c 1,7,8
 12 184 12 184 158 365 c 1,9,-1
 304 543 l 1,10,11
 236 543 236 543 170 541.5 c 128,-1,12
 104 540 104 540 36 540 c 1,13,14
 30 542 30 542 27.5 545 c 128,-1,15
 25 548 25 548 24.5 554 c 128,-1,16
 24 560 24 560 24 567 c 128,-1,17
 24 574 24 574 24 582 c 0,18,19
 24 586 24 586 24 589 c 128,-1,20
 24 592 24 592 24 596 c 2,21,-1
 24 624 l 2,22,23
 24 629 24 629 23.5 638.5 c 128,-1,24
 23 648 23 648 22.5 660 c 128,-1,25
 22 672 22 672 21 684 c 128,-1,26
 20 696 20 696 20 708 c 0,27,28
 20 729 20 729 22 738.5 c 128,-1,29
 24 748 24 748 30 748 c 0,30,31
 34 748 34 748 38 746 c 1,32,33
 161 746 161 746 282.5 748 c 128,-1,34
 404 750 404 750 526 752 c 2,35,-1
 632 753 l 2,36,37
 646 753 646 753 654 752.5 c 128,-1,38
 662 752 662 752 666.5 748.5 c 128,-1,39
 671 745 671 745 672.5 736.5 c 128,-1,40
 674 728 674 728 674 714 c 0,41,42
 674 705 674 705 673 696.5 c 128,-1,43
 672 688 672 688 672 684 c 1,44,-1
 673 681 l 1,45,46
 673 643 673 643 672.5 617.5 c 128,-1,47
 672 592 672 592 671 577 c 0,48,49
 669 553 669 553 653 526.5 c 128,-1,50
 637 500 637 500 614.5 473 c 128,-1,51
 592 446 592 446 567.5 420.5 c 128,-1,52
 543 395 543 395 525 374 c 2,53,-1
 454 289 l 1,54,-1
 380 200 l 1,55,-1
 385 200 l 2,56,57
 392 200 392 200 409 200.5 c 128,-1,58
 426 201 426 201 449 201.5 c 128,-1,59
 472 202 472 202 500 202 c 2,60,-1
 558 204 l 2,61,62
 587 204 587 204 615.5 204 c 128,-1,63
 644 204 644 204 668 204 c 0,64,65
 674 204 674 204 677 195 c 128,-1,66
 680 186 680 186 682 172 c 128,-1,67
 684 158 684 158 684 141 c 128,-1,68
 684 124 684 124 684 108 c 2,69,-1
 684 62 l 2,70,71
 684 53 684 53 685 43.5 c 128,-1,72
 686 34 686 34 686 22 c 128,-1,73
 686 10 686 10 683.5 3 c 128,-1,74
 681 -4 681 -4 676.5 -7 c 128,-1,75
 672 -10 672 -10 665 -11 c 128,-1,76
 658 -12 658 -12 648 -12 c 2,77,-1
 636 -12 l 2,78,79
 489 -12 489 -12 343.5 -15 c 128,-1,80
 198 -18 198 -18 52 -18 c 0,81,82
 44 -18 44 -18 38 -17 c 128,-1,83
 32 -16 32 -16 27 -13.5 c 128,-1,84
 22 -11 22 -11 17.5 -5.5 c 128,-1,85
 13 0 13 0 7 8 c 1,0,-1
EndSplineSet
EndChar

StartChar: bracketleft
Encoding: 91 91 62
Width: 517
GlyphClass: 2
Flags: W
LayerCount: 2
Fore
SplineSet
79 -62.5 m 128,-1,1
 80 -47 80 -47 80 -31 c 2,2,-1
 80 -18 l 2,3,4
 80 171 80 171 81 361.5 c 128,-1,5
 82 552 82 552 91 742 c 0,6,7
 91 748 91 748 95.5 751 c 128,-1,8
 100 754 100 754 107 755 c 128,-1,9
 114 756 114 756 121 755.5 c 128,-1,10
 128 755 128 755 134 755 c 0,11,12
 148 755 148 755 161 754.5 c 128,-1,13
 174 754 174 754 188 754 c 0,14,15
 224 754 224 754 252 755 c 2,16,-1
 306 756 l 1,17,-1
 361 758 l 1,18,19
 389 758 389 758 427 758 c 0,20,21
 447 758 447 758 459.5 754 c 128,-1,22
 472 750 472 750 479 741 c 128,-1,23
 486 732 486 732 488 718 c 128,-1,24
 490 704 490 704 490 684 c 0,25,26
 490 674 490 674 490 655.5 c 128,-1,27
 490 637 490 637 488.5 618.5 c 128,-1,28
 487 600 487 600 484.5 587 c 128,-1,29
 482 574 482 574 479 574 c 0,30,31
 477 574 477 574 476 574 c 0,32,33
 466 574 466 574 455 573.5 c 128,-1,34
 444 573 444 573 433 573 c 0,35,36
 406 573 406 573 380 574.5 c 128,-1,37
 354 576 354 576 326 578 c 1,38,-1
 324 429 l 2,39,40
 324 356 324 356 324 281 c 0,41,42
 324 217 324 217 324 155 c 0,43,44
 324 92 324 92 326 32 c 1,45,46
 359 32 359 32 390.5 33 c 128,-1,47
 422 34 422 34 456 34 c 2,48,-1
 475 34 l 1,49,50
 481 33 481 33 484 26 c 128,-1,51
 487 19 487 19 489 8 c 128,-1,52
 491 -3 491 -3 491.5 -16.5 c 128,-1,53
 492 -30 492 -30 492 -44 c 0,54,55
 492 -56 492 -56 492 -66 c 128,-1,56
 492 -76 492 -76 492 -83 c 0,57,58
 492 -92 492 -92 491 -99 c 0,59,60
 491 -103 491 -103 491.5 -108 c 128,-1,61
 492 -113 492 -113 492 -118 c 0,62,63
 492 -124 492 -124 492 -131 c 128,-1,64
 492 -138 492 -138 490 -144 c 128,-1,65
 488 -150 488 -150 484 -154 c 256,66,67
 480 -158 480 -158 472 -159 c 1,68,69
 379 -159 379 -159 286 -161 c 0,70,71
 194 -163 194 -163 102 -163 c 1,72,-1
 80 -138 l 1,73,74
 80 -128 80 -128 79 -116 c 1,75,-1
 79 -93 l 1,76,0
 78 -78 78 -78 79 -62.5 c 128,-1,1
EndSplineSet
EndChar

StartChar: backslash
Encoding: 92 92 63
Width: 404
GlyphClass: 2
Flags: W
LayerCount: 2
Fore
SplineSet
-18 762 m 0,0,1
 -18 769 -18 769 -9 774 c 1,2,3
 42 771 42 771 94 771 c 0,4,5
 104 771 104 771 114 771.5 c 128,-1,6
 124 772 124 772 134 772 c 0,7,8
 138 772 138 772 140 768.5 c 128,-1,9
 142 765 142 765 143 752 c 1,10,-1
 285 369 l 1,11,-1
 426 -11 l 2,12,13
 426 -13 426 -13 426 -14.5 c 128,-1,14
 426 -16 426 -16 426 -17 c 0,15,16
 426 -25 426 -25 421 -29.5 c 128,-1,17
 416 -34 416 -34 408 -35 c 1,18,-1
 388 -35 l 2,19,20
 378 -35 378 -35 367.5 -35.5 c 128,-1,21
 357 -36 357 -36 347 -36 c 0,22,23
 334 -36 334 -36 320 -35.5 c 128,-1,24
 306 -35 306 -35 292 -35 c 0,25,26
 280 -35 280 -35 269 -35.5 c 128,-1,27
 258 -36 258 -36 248 -38 c 1,28,-1
 117 359 l 1,29,-1
 -16 756 l 2,30,31
 -18 759 -18 759 -18 762 c 0,0,1
EndSplineSet
EndChar

StartChar: bracketright
Encoding: 93 93 64
Width: 518
GlyphClass: 2
Flags: W
LayerCount: 2
Fore
SplineSet
25 582 m 1,0,-1
 25 606 l 2,1,2
 25 632 25 632 25.5 656 c 128,-1,3
 26 680 26 680 26 706 c 0,4,5
 26 711 26 711 25.5 716.5 c 128,-1,6
 25 722 25 722 25 727 c 0,7,8
 25 738 25 738 27.5 748 c 128,-1,9
 30 758 30 758 38 764 c 1,10,-1
 51 764 l 2,11,12
 81 764 81 764 111.5 763 c 128,-1,13
 142 762 142 762 172 762 c 0,14,15
 206 762 206 762 240 763 c 128,-1,16
 274 764 274 764 308 764 c 0,17,18
 338 764 338 764 368 761 c 128,-1,19
 398 758 398 758 428 758 c 0,20,21
 432 758 432 758 436 760 c 1,22,23
 436 748 436 748 437 738 c 1,24,-1
 437 714 l 2,25,26
 437 690 437 690 436.5 668 c 128,-1,27
 436 646 436 646 436 622 c 2,28,-1
 436 607 l 2,29,30
 436 433 436 433 431.5 258 c 128,-1,31
 427 83 427 83 426 -93 c 1,32,-1
 426 -118 l 1,33,-1
 426 -131 l 2,34,35
 426 -138 426 -138 424 -144 c 128,-1,36
 422 -150 422 -150 414 -157 c 1,37,38
 392 -158 392 -158 370 -158.5 c 128,-1,39
 348 -159 348 -159 324 -159 c 2,40,-1
 312 -159 l 1,41,42
 244 -158 244 -158 178 -158 c 1,43,44
 114 -157 114 -157 46 -156 c 1,45,46
 36 -154 36 -154 34 -147 c 128,-1,47
 32 -140 32 -140 32 -134 c 0,48,49
 31 -104 31 -104 30 -72 c 128,-1,50
 29 -40 29 -40 29 -8 c 0,51,52
 29 5 29 5 30.5 12.5 c 128,-1,53
 32 20 32 20 34 24 c 128,-1,54
 36 28 36 28 41 29 c 128,-1,55
 46 30 46 30 52 30 c 2,56,-1
 68 30 l 2,57,58
 100 30 100 30 132 30 c 1,59,60
 162 31 162 31 194 32 c 1,61,-1
 194 77 l 2,62,63
 194 201 194 201 192 320.5 c 128,-1,64
 190 440 190 440 188 564 c 1,65,-1
 172 564 l 1,66,-1
 126 564 l 2,67,68
 105 564 105 564 84 563 c 128,-1,69
 63 562 63 562 42 562 c 1,70,71
 34 570 34 570 25 582 c 1,0,-1
EndSplineSet
EndChar

StartChar: asciicircum
Encoding: 94 94 65
Width: 637
GlyphClass: 2
Flags: W
LayerCount: 2
Fore
SplineSet
70 379 m 2,0,1
 70 379 70 379 70 380 c 2,2,3
 70 380 70 380 70 381 c 2,4,-1
 158 566 l 1,5,-1
 248 752 l 2,6,7
 250 756 250 756 255 758 c 1,8,9
 279 758 279 758 303 758 c 2,10,-1
 350 758 l 1,11,-1
 365 758 l 2,12,13
 372 758 372 758 379 759 c 0,14,15
 385 759 385 759 387 755.5 c 128,-1,16
 389 752 389 752 391 744 c 1,17,-1
 573 388 l 1,18,19
 573 372 573 372 551.5 368 c 128,-1,20
 530 364 530 364 490 364 c 0,21,22
 473 364 473 364 457.5 364 c 128,-1,23
 442 364 442 364 430 364 c 0,24,25
 424 364 424 364 420 369 c 128,-1,26
 416 374 416 374 412 377 c 1,27,-1
 366 472 l 1,28,-1
 318 572 l 1,29,-1
 226 380 l 1,30,31
 220 372 220 372 214 370 c 1,32,-1
 213 370 l 1,33,-1
 212 371 l 1,34,35
 179 371 179 371 146.5 370.5 c 128,-1,36
 114 370 114 370 82 370 c 1,37,38
 76 371 76 371 73 374 c 128,-1,39
 70 377 70 377 70 379 c 2,0,1
EndSplineSet
EndChar

StartChar: underscore
Encoding: 95 95 66
Width: 525
GlyphClass: 2
Flags: W
LayerCount: 2
Fore
SplineSet
-12 -97 m 0,0,1
 -12 -80 -12 -80 -9 -70.5 c 128,-1,2
 -6 -61 -6 -61 5 -61 c 2,3,-1
 111 -61 l 2,4,5
 137 -61 137 -61 165.5 -60.5 c 128,-1,6
 194 -60 194 -60 223.5 -60 c 128,-1,7
 253 -60 253 -60 283.5 -60 c 128,-1,8
 314 -60 314 -60 342 -60 c 0,9,10
 386 -60 386 -60 422.5 -60 c 128,-1,11
 459 -60 459 -60 486 -62 c 0,12,13
 502 -63 502 -63 511 -64 c 128,-1,14
 520 -65 520 -65 525 -68.5 c 128,-1,15
 530 -72 530 -72 531 -80 c 128,-1,16
 532 -88 532 -88 532 -102 c 0,17,18
 532 -109 532 -109 532 -114.5 c 128,-1,19
 532 -120 532 -120 530 -126 c 0,20,21
 528 -130 528 -130 525 -132 c 128,-1,22
 522 -134 522 -134 518 -134 c 0,23,24
 497 -134 497 -134 476.5 -134 c 128,-1,25
 456 -134 456 -134 435 -134 c 0,26,27
 327 -134 327 -134 221 -137 c 128,-1,28
 115 -140 115 -140 7 -145 c 1,29,-1
 -9 -124 l 1,30,31
 -10 -118 -10 -118 -11 -111.5 c 128,-1,32
 -12 -105 -12 -105 -12 -97 c 0,0,1
EndSplineSet
EndChar

StartChar: grave
Encoding: 96 96 67
Width: 316
GlyphClass: 2
Flags: W
LayerCount: 2
Fore
SplineSet
-64 878 m 0,0,1
 -64 882 -64 882 -61 886.5 c 128,-1,2
 -58 891 -58 891 -52 894 c 1,3,4
 2 890 2 890 55 888 c 128,-1,5
 108 886 108 886 162 886 c 0,6,7
 167 886 167 886 171.5 886 c 128,-1,8
 176 886 176 886 182 886 c 1,9,10
 186 885 186 885 192.5 876.5 c 128,-1,11
 199 868 199 868 208 854 c 2,12,-1
 226 826 l 1,13,-1
 244 795 l 1,14,-1
 262 767 l 2,15,16
 270 754 270 754 275 746 c 2,17,-1
 282 735 l 2,18,19
 286 729 286 729 289 723.5 c 128,-1,20
 292 718 292 718 295 713 c 128,-1,21
 298 708 298 708 298 704 c 0,22,23
 298 698 298 698 294.5 695 c 128,-1,24
 291 692 291 692 285.5 690 c 128,-1,25
 280 688 280 688 273 688 c 128,-1,26
 266 688 266 688 258 688 c 2,27,-1
 242 688 l 1,28,-1
 108 684 l 2,29,30
 106 684 106 684 102 684 c 128,-1,31
 98 684 98 684 96 686 c 2,32,-1
 70 716 l 1,33,-1
 48 743 l 1,34,-1
 24 771 l 1,35,-1
 -6 804 l 1,36,-1
 -27 826 l 2,37,38
 -37 837 -37 837 -45.5 846.5 c 128,-1,39
 -54 856 -54 856 -59 864.5 c 128,-1,40
 -64 873 -64 873 -64 878 c 0,0,1
EndSplineSet
EndChar

StartChar: a
Encoding: 97 97 68
Width: 741
GlyphClass: 2
Flags: W
LayerCount: 2
Fore
SplineSet
-24 36 m 1,0,-1
 3 117 l 1,1,-1
 31 202 l 1,2,-1
 43 240 l 1,3,-1
 140 529 l 1,4,-1
 140 528 l 1,5,-1
 151 560 l 1,6,-1
 161 590 l 1,7,-1
 190 680 l 2,8,9
 192 684 192 684 193 686 c 128,-1,10
 194 688 194 688 196 690 c 2,11,-1
 200 694 l 1,12,13
 213 694 213 694 227 693 c 1,14,-1
 256 693 l 1,15,-1
 327 693 l 1,16,17
 330 692 330 692 334 692 c 2,18,-1
 342 692 l 1,19,-1
 390 692 l 2,20,21
 407 692 407 692 424.5 692 c 128,-1,22
 442 692 442 692 462 692 c 2,23,-1
 470 692 l 2,24,25
 492 692 492 692 507 690 c 128,-1,26
 522 688 522 688 534 688 c 0,27,28
 540 688 540 688 542 686 c 128,-1,29
 544 684 544 684 546 680 c 1,30,-1
 548 667 l 2,31,32
 550 658 550 658 557 644 c 1,33,-1
 582 570 l 1,34,-1
 599 516 l 1,35,-1
 619 458 l 1,36,-1
 628 428 l 1,37,-1
 632 422 l 1,38,39
 634 410 634 410 638 398 c 2,40,-1
 646 373 l 1,41,-1
 656 348 l 1,42,-1
 665 324 l 1,43,-1
 667 316 l 2,44,45
 667 315 667 315 668 313 c 0,46,47
 670 311 670 311 670 307 c 1,48,-1
 679 277 l 1,49,-1
 684 256 l 2,50,51
 685 254 685 254 686.5 250 c 128,-1,52
 688 246 688 246 688 244 c 2,53,-1
 696 216 l 2,54,55
 700 204 700 204 704 192 c 128,-1,56
 708 180 708 180 712 168 c 2,57,-1
 739 89 l 1,58,-1
 738 90 l 1,59,-1
 742 80 l 1,60,61
 744 70 744 70 748 61 c 128,-1,62
 752 52 752 52 754 44 c 1,63,64
 754 30 754 30 748 26 c 128,-1,65
 742 22 742 22 726 22 c 2,66,-1
 680 22 l 2,67,68
 670 22 670 22 656 22 c 2,69,-1
 633 22 l 2,70,71
 623 22 623 22 613.5 22 c 128,-1,72
 604 22 604 22 594 22 c 2,73,-1
 538 22 l 2,74,75
 530 22 530 22 518 22 c 128,-1,76
 506 22 506 22 494 22 c 0,77,78
 482 23 482 23 474 26 c 0,79,80
 466 28 466 28 465 36 c 2,81,-1
 446 112 l 2,82,83
 445 116 445 116 444 119 c 128,-1,84
 443 122 443 122 441.5 123 c 128,-1,85
 440 124 440 124 437.5 124 c 128,-1,86
 435 124 435 124 430 124 c 2,87,-1
 276 124 l 1,88,89
 270 104 270 104 265 80 c 128,-1,90
 260 56 260 56 254 34 c 1,91,92
 248 25 248 25 233 22.5 c 128,-1,93
 218 20 218 20 200 20 c 0,94,95
 194 20 194 20 189 20 c 128,-1,96
 184 20 184 20 180 20 c 2,97,-1
 161 20 l 1,98,99
 145 19 145 19 129.5 19 c 128,-1,100
 114 19 114 19 100 19 c 2,101,-1
 16 19 l 2,102,103
 10 19 10 19 4 18.5 c 128,-1,104
 -2 18 -2 18 -10 18 c 1,105,106
 -12 20 -12 20 -13 22 c 128,-1,107
 -14 24 -14 24 -16 26 c 1,108,-1
 -16 24 l 1,109,-1
 -18 26 l 2,110,111
 -20 28 -20 28 -24 36 c 1,0,-1
300 302 m 1,112,-1
 300 300 l 1,113,-1
 300 302 l 1,112,-1
300 302 m 2,114,-1
 302 291 l 1,115,116
 308 291 308 291 313 291.5 c 128,-1,117
 318 292 318 292 324 292 c 2,118,-1
 393 290 l 2,119,120
 395 290 395 290 397.5 290 c 128,-1,121
 400 290 400 290 402 290 c 2,122,-1
 404 290 l 2,123,124
 412 290 412 290 418 291 c 128,-1,125
 424 292 424 292 424 300 c 128,-1,126
 424 308 424 308 421 318 c 128,-1,127
 418 328 418 328 415 339 c 1,128,-1
 415 338 l 1,129,-1
 412 350 l 2,130,131
 410 356 410 356 410 362 c 1,132,-1
 396 422 l 1,133,-1
 392 446 l 1,134,-1
 387 469 l 1,135,-1
 384 483 l 1,136,137
 382 487 382 487 381 492.5 c 128,-1,138
 380 498 380 498 378 505 c 2,139,-1
 373 529 l 2,140,141
 371 535 371 535 370 538.5 c 128,-1,142
 369 542 369 542 364 544 c 1,143,-1
 364 543 l 1,144,145
 360 542 360 542 357 535 c 128,-1,146
 354 528 354 528 350.5 518 c 128,-1,147
 347 508 347 508 344.5 497 c 128,-1,148
 342 486 342 486 340 475 c 1,149,-1
 340 476 l 1,150,-1
 336 452 l 2,151,152
 335 448 335 448 334 446 c 0,153,154
 332 444 332 444 332 442 c 2,155,-1
 329 430 l 1,156,-1
 317 376 l 1,157,-1
 305 324 l 1,158,159
 305 317 305 317 302.5 311.5 c 128,-1,160
 300 306 300 306 300 302 c 2,114,-1
EndSplineSet
EndChar

StartChar: b
Encoding: 98 98 69
Width: 704
GlyphClass: 2
Flags: W
LayerCount: 2
Fore
SplineSet
41 667 m 1,0,1
 41 675 41 675 43.5 679.5 c 128,-1,2
 46 684 46 684 50 684 c 1,3,-1
 52 685 l 1,4,5
 54 684 54 684 56 684 c 0,6,7
 94 687 94 687 133 689.5 c 128,-1,8
 172 692 172 692 212 694 c 1,9,-1
 424 694 l 2,10,11
 448 694 448 694 472 692 c 128,-1,12
 496 690 496 690 518.5 684 c 128,-1,13
 541 678 541 678 562.5 669 c 128,-1,14
 584 660 584 660 603 646 c 1,15,-1
 602 646 l 1,16,17
 617 636 617 636 628.5 621 c 128,-1,18
 640 606 640 606 647.5 589 c 128,-1,19
 655 572 655 572 658.5 553 c 128,-1,20
 662 534 662 534 662 515 c 0,21,22
 662 467 662 467 640 431.5 c 128,-1,23
 618 396 618 396 576 377 c 1,24,-1
 573 376 l 1,25,-1
 571 374 l 1,26,-1
 572 374 l 1,27,-1
 571 374 l 1,28,-1
 569 374 l 2,29,30
 571 374 571 374 572.5 373 c 128,-1,31
 574 372 574 372 577 371 c 0,32,33
 627 351 627 351 653.5 312.5 c 128,-1,34
 680 274 680 274 680 218 c 1,35,36
 678 156 678 156 645 111.5 c 128,-1,37
 612 67 612 67 558 47 c 2,38,-1
 516 32 l 1,39,40
 490 25 490 25 464 22.5 c 128,-1,41
 438 20 438 20 412 20 c 1,42,43
 388 21 388 21 365 21.5 c 128,-1,44
 342 22 342 22 320 22 c 1,45,-1
 288 24 l 1,46,47
 286 22 286 22 284 22 c 2,48,-1
 282 22 l 1,49,-1
 248 22 l 1,50,-1
 220 22 l 1,51,-1
 199 22 l 2,52,53
 188 22 188 22 178 21 c 2,54,-1
 56 18 l 1,55,-1
 54 25 l 1,56,-1
 54 24 l 1,57,58
 53 26 53 26 52.5 27.5 c 128,-1,59
 52 29 52 29 52 30 c 2,60,-1
 46 43 l 1,61,62
 46 56 46 56 45 69.5 c 128,-1,63
 44 83 44 83 44 97 c 2,64,-1
 42 216 l 1,65,-1
 42 318 l 1,66,67
 43 369 43 369 43.5 417.5 c 128,-1,68
 44 466 44 466 46 514 c 1,69,-1
 46 526 l 2,70,71
 46 530 46 530 46 533.5 c 128,-1,72
 46 537 46 537 46 541 c 0,73,74
 46 546 46 546 45 553 c 128,-1,75
 44 560 44 560 44 566 c 2,76,-1
 44 584 l 2,77,78
 44 596 44 596 44 610.5 c 128,-1,79
 44 625 44 625 44 638 c 2,80,-1
 44 646 l 1,81,-1
 44 666 l 1,82,83
 43 666 43 666 42 666 c 1,84,-1
 42 667 l 1,85,-1
 41 667 l 1,0,1
300 290 m 2,86,87
 300 288 300 288 300 286.5 c 128,-1,88
 300 285 300 285 300 283 c 2,89,-1
 304 234 l 1,90,-1
 304 184 l 2,91,92
 304 179 304 179 311 177 c 1,93,-1
 350 177 l 1,94,95
 364 178 364 178 377 181 c 128,-1,96
 390 184 390 184 400 191 c 128,-1,97
 410 198 410 198 416 210 c 128,-1,98
 422 222 422 222 422 239 c 0,99,100
 422 266 422 266 411 280 c 128,-1,101
 400 294 400 294 383 301 c 128,-1,102
 366 308 366 308 347 309 c 128,-1,103
 328 310 328 310 312 310 c 1,104,105
 312 308 312 308 309 306 c 2,106,-1
 306 303 l 1,107,-1
 300 294 l 1,108,-1
 300 290 l 2,86,87
302 530 m 0,109,110
 304 517 304 517 305 504.5 c 128,-1,111
 306 492 306 492 306 478 c 2,112,-1
 306 468 l 2,113,114
 306 466 306 466 305.5 463 c 128,-1,115
 305 460 305 460 305 458 c 0,116,117
 305 454 305 454 305.5 449 c 128,-1,118
 306 444 306 444 306 438 c 2,119,-1
 306 422 l 2,120,121
 306 420 306 420 307 418 c 128,-1,122
 308 416 308 416 310 415 c 1,123,124
 323 415 323 415 341 416.5 c 128,-1,125
 359 418 359 418 375 424 c 128,-1,126
 391 430 391 430 402 444 c 128,-1,127
 413 458 413 458 413 484 c 0,128,129
 413 502 413 502 404.5 513.5 c 128,-1,130
 396 525 396 525 383 531.5 c 128,-1,131
 370 538 370 538 353 540.5 c 128,-1,132
 336 543 336 543 321 543 c 2,133,-1
 315 543 l 1,134,135
 312 542 312 542 310 542 c 1,136,-1
 310 543 l 1,137,138
 304 541 304 541 303 537.5 c 128,-1,139
 302 534 302 534 302 530 c 0,109,110
EndSplineSet
EndChar

StartChar: c
Encoding: 99 99 70
Width: 695
GlyphClass: 2
Flags: W
LayerCount: 2
Fore
SplineSet
18 373 m 2,0,-1
 18 380 l 1,1,2
 20 400 20 400 21 419 c 128,-1,3
 22 438 22 438 26 457 c 128,-1,4
 30 476 30 476 36 495 c 128,-1,5
 42 514 42 514 52 534 c 1,6,-1
 52 533 l 1,7,8
 76 583 76 583 110.5 616.5 c 128,-1,9
 145 650 145 650 186.5 670 c 128,-1,10
 228 690 228 690 274 698.5 c 128,-1,11
 320 707 320 707 366 707 c 0,12,13
 447 707 447 707 502 688.5 c 128,-1,14
 557 670 557 670 592 639 c 128,-1,15
 627 608 627 608 645 568 c 0,16,17
 664 528 664 528 670 485 c 1,18,-1
 674 442 l 1,19,20
 672 431 672 431 659 428 c 128,-1,21
 646 425 646 425 630 425 c 0,22,23
 619 425 619 425 608.5 425.5 c 128,-1,24
 598 426 598 426 590 426 c 2,25,-1
 520 426 l 2,26,27
 508 426 508 426 497 426 c 128,-1,28
 486 426 486 426 474 426 c 2,29,-1
 426 426 l 1,30,31
 420 428 420 428 416 434 c 1,32,33
 414 440 414 440 412 448 c 2,34,-1
 408 469 l 2,35,36
 406 480 406 480 402 492 c 0,37,38
 398 502 398 502 391 508 c 128,-1,39
 384 514 384 514 372 514 c 0,40,41
 358 514 358 514 348 509.5 c 128,-1,42
 338 505 338 505 331 497.5 c 128,-1,43
 324 490 324 490 320 480 c 128,-1,44
 316 470 316 470 314 458 c 0,45,46
 310 432 310 432 309 408 c 128,-1,47
 308 384 308 384 308 358 c 2,48,-1
 308 340 l 2,49,50
 308 324 308 324 308 302 c 0,51,52
 308 282 308 282 312 262 c 0,53,54
 314 253 314 253 318 243.5 c 128,-1,55
 322 234 322 234 327 226 c 128,-1,56
 332 218 332 218 340.5 212 c 128,-1,57
 349 206 349 206 362 206 c 0,58,59
 378 206 378 206 386 216 c 128,-1,60
 394 226 394 226 399 240 c 128,-1,61
 404 254 404 254 408 268.5 c 128,-1,62
 412 283 412 283 420 291 c 1,63,64
 450 291 450 291 480 290.5 c 128,-1,65
 510 290 510 290 540 290 c 0,66,67
 561 290 561 290 581.5 290.5 c 128,-1,68
 602 291 602 291 623 291 c 2,69,-1
 660 291 l 2,70,71
 670 291 670 291 673.5 285.5 c 128,-1,72
 677 280 677 280 678 271 c 1,73,-1
 676 252 l 2,74,75
 675 242 675 242 674.5 233.5 c 128,-1,76
 674 225 674 225 672.5 216.5 c 128,-1,77
 671 208 671 208 668 199 c 0,78,79
 666 190 666 190 660 178 c 1,80,81
 648 143 648 143 626 115.5 c 128,-1,82
 604 88 604 88 576 67 c 128,-1,83
 548 46 548 46 515 33 c 128,-1,84
 482 20 482 20 448 14 c 1,85,-1
 438 11 l 1,86,87
 420 7 420 7 401.5 5.5 c 128,-1,88
 383 4 383 4 364 4 c 0,89,90
 344 4 344 4 317.5 6 c 128,-1,91
 291 8 291 8 262.5 13.5 c 128,-1,92
 234 19 234 19 205 29.5 c 128,-1,93
 176 40 176 40 152 58 c 0,94,95
 112 87 112 87 86.5 122.5 c 128,-1,96
 61 158 61 158 45.5 198 c 128,-1,97
 30 238 30 238 24 282.5 c 128,-1,98
 18 327 18 327 18 373 c 2,0,-1
EndSplineSet
EndChar

StartChar: d
Encoding: 100 100 71
Width: 728
GlyphClass: 2
Flags: W
LayerCount: 2
Fore
SplineSet
42 672 m 0,0,1
 42 680 42 680 45 682.5 c 128,-1,2
 48 685 48 685 56 685 c 1,3,-1
 56 686 l 1,4,5
 58 686 58 686 59 685.5 c 128,-1,6
 60 685 60 685 62 685 c 0,7,8
 66 685 66 685 70 685.5 c 128,-1,9
 74 686 74 686 78 687 c 0,10,11
 108 691 108 691 136 692.5 c 128,-1,12
 164 694 164 694 193 694 c 0,13,14
 212 694 212 694 232 694 c 0,15,16
 242 694 242 694 253 694 c 2,17,-1
 321 694 l 2,18,19
 360 694 360 694 404 690 c 128,-1,20
 448 686 448 686 490 675 c 128,-1,21
 532 664 532 664 568 644 c 128,-1,22
 604 624 604 624 627 592 c 0,23,24
 635 582 635 582 648.5 563 c 128,-1,25
 662 544 662 544 674.5 515.5 c 128,-1,26
 687 487 687 487 696.5 448.5 c 128,-1,27
 706 410 706 410 706 360 c 0,28,29
 706 301 706 301 692 253.5 c 128,-1,30
 678 206 678 206 655 169 c 128,-1,31
 632 132 632 132 601.5 104.5 c 128,-1,32
 571 77 571 77 536.5 59 c 128,-1,33
 502 41 502 41 465 31.5 c 128,-1,34
 428 22 428 22 394 20 c 1,35,-1
 390 22 l 1,36,-1
 372 21 l 2,37,38
 368 21 368 21 362 20.5 c 128,-1,39
 356 20 356 20 350 20 c 0,40,41
 336 20 336 20 324 20 c 128,-1,42
 312 20 312 20 298 22 c 1,43,-1
 282 22 l 2,44,45
 278 22 278 22 273 22 c 128,-1,46
 268 22 268 22 263 22 c 2,47,-1
 232 22 l 1,48,-1
 184 22 l 1,49,-1
 104 20 l 1,50,-1
 60 19 l 1,51,52
 56 27 56 27 54 32.5 c 128,-1,53
 52 38 52 38 51 43 c 128,-1,54
 50 48 50 48 50 52 c 128,-1,55
 50 56 50 56 50 61 c 2,56,-1
 50 126 l 1,57,58
 51 172 51 172 50.5 217 c 128,-1,59
 50 262 50 262 51 312 c 2,60,-1
 52 394 l 2,61,62
 52 414 52 414 51 433 c 128,-1,63
 50 452 50 452 50 474 c 1,64,-1
 48 512 l 1,65,-1
 48 552 l 1,66,67
 46 576 46 576 45 602 c 128,-1,68
 44 628 44 628 44 650 c 2,69,-1
 44 668 l 1,70,71
 42 670 42 670 42 672 c 0,0,1
302 522 m 1,72,73
 302 515 302 515 303 508.5 c 128,-1,74
 304 502 304 502 304 496 c 2,75,-1
 304 468 l 2,76,77
 304 460 304 460 303.5 451 c 128,-1,78
 303 442 303 442 303 434 c 2,79,-1
 303 426 l 1,80,-1
 304 326 l 2,81,82
 304 309 304 309 304 284 c 2,83,-1
 304 260 l 1,84,-1
 304 236 l 2,85,86
 304 213 304 213 306 196.5 c 128,-1,87
 308 180 308 180 312 178 c 1,88,-1
 327 178 l 2,89,90
 339 178 339 178 349.5 179 c 128,-1,91
 360 180 360 180 372 183 c 1,92,-1
 371 183 l 1,93,94
 387 189 387 189 398.5 200.5 c 128,-1,95
 410 212 410 212 418 228 c 128,-1,96
 426 244 426 244 430 262 c 128,-1,97
 434 280 434 280 436 298 c 128,-1,98
 438 316 438 316 439 333 c 128,-1,99
 440 350 440 350 440 362 c 2,100,-1
 440 398 l 1,101,102
 438 408 438 408 438 417.5 c 128,-1,103
 438 427 438 427 437 437.5 c 128,-1,104
 436 448 436 448 433.5 459.5 c 128,-1,105
 431 471 431 471 426 484 c 1,106,-1
 427 484 l 1,107,108
 417 504 417 504 405 516 c 128,-1,109
 393 528 393 528 378.5 534 c 128,-1,110
 364 540 364 540 349 541.5 c 128,-1,111
 334 543 334 543 318 543 c 2,112,-1
 312 543 l 1,113,-1
 309 532 l 1,114,-1
 302 522 l 1,72,73
EndSplineSet
EndChar

StartChar: e
Encoding: 101 101 72
Width: 583
GlyphClass: 2
Flags: W
LayerCount: 2
Fore
SplineSet
41 516 m 1,0,1
 41 523 41 523 41.5 529.5 c 128,-1,2
 42 536 42 536 42 543 c 0,3,4
 42 558 42 558 41.5 574 c 128,-1,5
 41 590 41 590 41 609 c 2,6,-1
 41 646 l 2,7,8
 41 656 41 656 41.5 664 c 128,-1,9
 42 672 42 672 43 677.5 c 128,-1,10
 44 683 44 683 48 685.5 c 128,-1,11
 52 688 52 688 59 688 c 2,12,-1
 71 688 l 2,13,14
 78 688 78 688 82 687 c 1,15,-1
 108 687 l 2,16,17
 184 687 184 687 262 689 c 0,18,19
 338 691 338 691 414 691 c 2,20,-1
 440 691 l 2,21,22
 452 691 452 691 463 691.5 c 128,-1,23
 474 692 474 692 484 692 c 2,24,-1
 547 692 l 1,25,26
 560 690 560 690 560 679 c 2,27,-1
 560 621 l 2,28,29
 560 616 560 616 560 611 c 128,-1,30
 560 606 560 606 560 602 c 2,31,-1
 560 512 l 1,32,33
 559 506 559 506 556 503 c 128,-1,34
 553 500 553 500 546 495 c 1,35,36
 539 495 539 495 532.5 495.5 c 128,-1,37
 526 496 526 496 520 496 c 2,38,-1
 428 497 l 2,39,40
 406 498 406 498 386 498 c 0,41,42
 364 498 364 498 342 499 c 0,43,44
 336 499 336 499 329 499.5 c 128,-1,45
 322 500 322 500 316 500 c 1,46,47
 314 496 314 496 314 493 c 2,48,-1
 314 487 l 1,49,-1
 314 480 l 1,50,-1
 314 466 l 2,51,52
 314 464 314 464 314 462 c 2,53,54
 314 462 314 462 314 460 c 2,55,-1
 314 443 l 2,56,57
 314 440 314 440 313 439 c 1,58,-1
 313 435 l 1,59,60
 316 435 316 435 318 434.5 c 128,-1,61
 320 434 320 434 323 434 c 2,62,-1
 336 434 l 2,63,64
 380 434 380 434 424.5 436 c 128,-1,65
 469 438 469 438 516 438 c 0,66,67
 531 438 531 438 535.5 432 c 128,-1,68
 540 426 540 426 540 417 c 0,69,70
 540 413 540 413 539 408.5 c 128,-1,71
 538 404 538 404 538 400 c 2,72,-1
 538 381 l 2,73,74
 538 377 538 377 538.5 372.5 c 128,-1,75
 539 368 539 368 539 362 c 2,76,-1
 539 348 l 2,77,78
 539 340 539 340 539.5 335 c 128,-1,79
 540 330 540 330 540 326 c 128,-1,80
 540 322 540 322 540.5 317.5 c 128,-1,81
 541 313 541 313 541 307 c 2,82,-1
 541 294 l 1,83,84
 539 289 539 289 537.5 286.5 c 128,-1,85
 536 284 536 284 532 284 c 0,86,87
 530 284 530 284 528 284 c 1,88,-1
 527 285 l 1,89,90
 497 285 497 285 465.5 282.5 c 128,-1,91
 434 280 434 280 396 280 c 2,92,-1
 343 280 l 1,93,-1
 330 280 l 2,94,95
 324 280 324 280 316 281 c 1,96,97
 316 279 316 279 316 276.5 c 128,-1,98
 316 274 316 274 316 272 c 2,99,-1
 316 216 l 1,100,101
 318 216 318 216 320 215.5 c 128,-1,102
 322 215 322 215 324 215 c 0,103,104
 360 214 360 214 398 216 c 128,-1,105
 436 218 436 218 470 218 c 1,106,-1
 534 220 l 2,107,108
 540 220 540 220 546 219.5 c 128,-1,109
 552 219 552 219 557 217.5 c 128,-1,110
 562 216 562 216 566 213 c 1,111,112
 568 210 568 210 570 206 c 1,113,-1
 570 171 l 2,114,115
 570 165 570 165 570.5 160.5 c 128,-1,116
 571 156 571 156 571 152 c 2,117,-1
 571 72 l 1,118,119
 572 69 572 69 572 65 c 0,120,121
 572 62 572 62 572 58 c 2,122,-1
 572 46 l 2,123,124
 572 36 572 36 568 29 c 128,-1,125
 564 22 564 22 552 21 c 1,126,-1
 545 21 l 1,127,128
 537 22 537 22 529 22 c 0,129,130
 520 22 520 22 512 22 c 2,131,-1
 500 22 l 2,132,133
 494 22 494 22 489 22.5 c 128,-1,134
 484 23 484 23 478 23 c 2,135,-1
 472 23 l 1,136,-1
 448 23 l 2,137,138
 445 23 445 23 441.5 23.5 c 128,-1,139
 438 24 438 24 435 24 c 2,140,-1
 410 24 l 2,141,142
 374 24 374 24 339 24 c 128,-1,143
 304 24 304 24 266 24 c 0,144,145
 238 24 238 24 210 24 c 1,146,147
 182 22 182 22 156 22 c 2,148,-1
 57 20 l 1,149,-1
 42 37 l 1,150,-1
 44 297 l 1,151,152
 46 318 46 318 45 336 c 1,153,-1
 45 342 l 1,154,155
 44 346 44 346 44 350 c 0,156,157
 44 367 44 367 46 386 c 1,158,-1
 46 452 l 2,159,160
 46 464 46 464 45 477 c 128,-1,161
 44 490 44 490 44 503 c 1,162,-1
 42 506 l 1,163,-1
 42 505 l 1,164,165
 40 510 40 510 41 516 c 1,0,1
EndSplineSet
EndChar

StartChar: f
Encoding: 102 102 73
Width: 563
GlyphClass: 2
Flags: W
LayerCount: 2
Fore
SplineSet
42 526 m 1,0,1
 42 534 42 534 43 542 c 128,-1,2
 44 550 44 550 44 556 c 2,3,-1
 44 590 l 2,4,5
 44 599 44 599 44 608.5 c 128,-1,6
 44 618 44 618 44 626 c 2,7,-1
 44 676 l 2,8,9
 44 682 44 682 46.5 685.5 c 128,-1,10
 49 689 49 689 53 690.5 c 128,-1,11
 57 692 57 692 62.5 692 c 128,-1,12
 68 692 68 692 74 692 c 2,13,-1
 96 692 l 1,14,-1
 105 692 l 2,15,16
 108 692 108 692 114 692 c 2,17,-1
 154 692 l 2,18,19
 170 692 170 692 190 693 c 128,-1,20
 210 694 210 694 232 694 c 2,21,-1
 320 694 l 2,22,23
 324 694 324 694 329 694 c 128,-1,24
 334 694 334 694 338 694 c 2,25,-1
 385 694 l 2,26,27
 409 694 409 694 432.5 693 c 128,-1,28
 456 692 456 692 482 692 c 2,29,-1
 546 691 l 2,30,31
 556 691 556 691 558 685 c 1,32,33
 559 678 559 678 559 672 c 2,34,-1
 560 602 l 2,35,36
 560 596 560 596 559.5 591 c 128,-1,37
 559 586 559 586 559 581 c 2,38,-1
 559 562 l 2,39,40
 559 552 559 552 559.5 543.5 c 128,-1,41
 560 535 560 535 560 525 c 0,42,43
 560 517 560 517 558 510 c 128,-1,44
 556 503 556 503 551 502 c 0,45,46
 548 502 548 502 546 504 c 1,47,48
 536 503 536 503 524 502.5 c 128,-1,49
 512 502 512 502 500 502 c 1,50,-1
 478 500 l 2,51,52
 472 500 472 500 463.5 500 c 128,-1,53
 455 500 455 500 448 500 c 2,54,-1
 389 498 l 1,55,-1
 360 496 l 1,56,-1
 325 496 l 1,57,-1
 325 484 l 2,58,59
 325 476 325 476 325.5 469 c 128,-1,60
 326 462 326 462 327 452 c 1,61,62
 348 454 348 454 374 456 c 256,63,64
 400 458 400 458 428 458 c 2,65,-1
 450 458 l 1,66,-1
 469 458 l 2,67,68
 480 458 480 458 490 459 c 1,69,70
 512 459 512 459 528 454 c 0,71,72
 544 450 544 450 546 443 c 1,73,-1
 546 414 l 2,74,75
 546 400 546 400 545 385 c 128,-1,76
 544 370 544 370 544 355 c 2,77,-1
 544 326 l 2,78,79
 544 318 544 318 544 310 c 1,80,81
 545 304 545 304 545 296 c 2,82,-1
 545 276 l 1,83,84
 544 268 544 268 539 265 c 128,-1,85
 534 262 534 262 528 261 c 128,-1,86
 522 260 522 260 515 260 c 128,-1,87
 508 260 508 260 502 260 c 2,88,-1
 482 260 l 2,89,90
 456 260 456 260 432 259 c 0,91,92
 410 258 410 258 384 258 c 1,93,-1
 344 256 l 2,94,95
 342 256 342 256 340 256 c 0,96,97
 336 256 336 256 334 256 c 2,98,-1
 328 256 l 1,99,-1
 331 84 l 2,100,101
 331 74 331 74 330.5 65 c 128,-1,102
 330 56 330 56 332 46 c 1,103,-1
 332 43 l 2,104,105
 332 42 332 42 332 41 c 128,-1,106
 332 40 332 40 332 37 c 0,107,108
 330 27 330 27 324 24 c 0,109,110
 318 22 318 22 310 20 c 1,111,-1
 268 20 l 2,112,113
 264 20 264 20 259 19.5 c 128,-1,114
 254 19 254 19 250 19 c 0,115,116
 248 19 248 19 246 19.5 c 128,-1,117
 244 20 244 20 241 20 c 2,118,-1
 57 20 l 1,119,-1
 44 42 l 1,120,-1
 44 61 l 2,121,122
 44 109 44 109 44 164 c 2,123,-1
 46 274 l 1,124,-1
 47 379 l 2,125,126
 48 430 48 430 48 468 c 0,127,128
 48 478 48 478 47 488 c 128,-1,129
 46 498 46 498 46 507 c 1,130,-1
 42 526 l 1,0,1
EndSplineSet
EndChar

StartChar: g
Encoding: 103 103 74
Width: 751
GlyphClass: 2
Flags: W
LayerCount: 2
Fore
SplineSet
20 358 m 0,0,1
 20 416 20 416 35 470 c 128,-1,2
 50 524 50 524 83 570 c 1,3,-1
 91 580 l 2,4,5
 94 583 94 583 97 587 c 0,6,7
 100 592 100 592 102 594 c 1,8,-1
 102 593 l 1,9,10
 130 629 130 629 166 651.5 c 128,-1,11
 202 674 202 674 241 686.5 c 128,-1,12
 280 699 280 699 319 703.5 c 128,-1,13
 358 708 358 708 394 708 c 0,14,15
 408 708 408 708 428.5 706.5 c 128,-1,16
 449 705 449 705 472.5 701.5 c 128,-1,17
 496 698 496 698 521 692 c 256,18,19
 546 686 546 686 569 678 c 0,20,21
 601 666 601 666 623.5 648 c 128,-1,22
 646 630 646 630 661 609 c 2,23,-1
 666 602 l 2,24,25
 682 581 682 581 688.5 551.5 c 128,-1,26
 695 522 695 522 699 490 c 1,27,-1
 700 486 l 1,28,29
 700 480 700 480 696 477 c 128,-1,30
 692 474 692 474 687 472 c 128,-1,31
 682 470 682 470 677 469.5 c 128,-1,32
 672 469 672 469 668 469 c 2,33,-1
 627 469 l 2,34,35
 603 469 603 469 569.5 470.5 c 128,-1,36
 536 472 536 472 501 472 c 2,37,-1
 446 472 l 1,38,39
 442 473 442 473 440 476 c 256,40,41
 438 479 438 479 436 483 c 2,42,-1
 432 492 l 2,43,44
 430 497 430 497 426 503 c 1,45,-1
 426 502 l 1,46,47
 422 510 422 510 413 516 c 128,-1,48
 404 522 404 522 386 522 c 0,49,50
 365 522 365 522 352 516 c 1,51,52
 340 508 340 508 334 500 c 0,53,54
 326 490 326 490 320.5 477 c 128,-1,55
 315 464 315 464 312 449 c 128,-1,56
 309 434 309 434 308 418 c 128,-1,57
 307 402 307 402 307 388 c 0,58,59
 307 378 307 378 307.5 368.5 c 128,-1,60
 308 359 308 359 308 352 c 0,61,62
 308 348 308 348 308 345 c 2,63,-1
 308 337 l 1,64,-1
 308 314 l 2,65,66
 308 296 308 296 310.5 275 c 128,-1,67
 313 254 313 254 321.5 237 c 128,-1,68
 330 220 330 220 347.5 209 c 128,-1,69
 365 198 365 198 396 198 c 0,70,71
 418 198 418 198 436 199.5 c 128,-1,72
 454 201 454 201 473 207 c 1,73,-1
 473 229 l 2,74,75
 473 235 473 235 472.5 239.5 c 128,-1,76
 472 244 472 244 472 250 c 0,77,78
 472 252 472 252 472.5 255 c 128,-1,79
 473 258 473 258 473 262 c 1,80,81
 469 262 469 262 464 262 c 2,82,-1
 454 262 l 2,83,84
 449 262 449 262 444.5 261.5 c 128,-1,85
 440 261 440 261 436 261 c 2,86,-1
 394 261 l 1,87,-1
 377 280 l 1,88,89
 376 287 376 287 376 295 c 2,90,-1
 376 310 l 1,91,-1
 376 326 l 2,92,93
 376 336 376 336 376.5 345 c 128,-1,94
 377 354 377 354 377 365 c 2,95,-1
 377 379 l 2,96,97
 377 381 377 381 377.5 383.5 c 128,-1,98
 378 386 378 386 378 390 c 2,99,-1
 377 394 l 1,100,101
 377 403 377 403 381 408.5 c 128,-1,102
 385 414 385 414 395 420 c 1,103,104
 397 420 397 420 399.5 420 c 128,-1,105
 402 420 402 420 404 420 c 2,106,-1
 410 420 l 1,107,-1
 428 420 l 1,108,-1
 442 420 l 2,109,110
 449 420 449 420 457 418 c 1,111,-1
 502 417 l 2,112,113
 521 416 521 416 540.5 416 c 128,-1,114
 560 416 560 416 576 416 c 2,115,-1
 624 416 l 2,116,117
 638 416 638 416 653 415 c 128,-1,118
 668 414 668 414 680.5 413 c 128,-1,119
 693 412 693 412 702 409 c 0,120,121
 710 406 710 406 714 402 c 1,122,123
 714 330 714 330 712 256 c 128,-1,124
 710 182 710 182 710 110 c 2,125,-1
 710 97 l 1,126,-1
 711 66 l 1,127,128
 709 57 709 57 693.5 49.5 c 128,-1,129
 678 42 678 42 654 36 c 128,-1,130
 630 30 630 30 601 25 c 128,-1,131
 572 20 572 20 544.5 17 c 128,-1,132
 517 14 517 14 493.5 11.5 c 128,-1,133
 470 9 470 9 457 8 c 0,134,135
 441 6 441 6 422.5 6 c 128,-1,136
 404 6 404 6 386 6 c 0,137,138
 357 6 357 6 325 9 c 128,-1,139
 293 12 293 12 260.5 20 c 128,-1,140
 228 28 228 28 195.5 43 c 128,-1,141
 163 58 163 58 134 81 c 1,142,-1
 113 99 l 2,143,144
 103 107 103 107 96 117 c 2,145,-1
 81 136 l 1,146,-1
 80 138 l 1,147,148
 50 185 50 185 35 238.5 c 128,-1,149
 20 292 20 292 20 358 c 0,0,1
EndSplineSet
EndChar

StartChar: h
Encoding: 104 104 75
Width: 742
GlyphClass: 2
Flags: W
LayerCount: 2
Fore
SplineSet
40 46 m 2,0,-1
 40 56 l 2,1,2
 40 60 40 60 41 66 c 1,3,-1
 41 124 l 2,4,5
 41 140 41 140 41.5 156 c 128,-1,6
 42 172 42 172 42 188 c 2,7,-1
 42 230 l 2,8,9
 42 243 42 243 42 256.5 c 128,-1,10
 42 270 42 270 42 282 c 0,11,12
 42 290 42 290 42 292 c 2,13,-1
 42 372 l 2,14,15
 42 376 42 376 42 380 c 128,-1,16
 42 384 42 384 42 388 c 2,17,-1
 42 404 l 2,18,19
 42 405 42 405 42 406.5 c 128,-1,20
 42 408 42 408 42 410 c 2,21,-1
 43 420 l 1,22,23
 43 447 43 447 43.5 477.5 c 128,-1,24
 44 508 44 508 45.5 539 c 128,-1,25
 47 570 47 570 47.5 600 c 128,-1,26
 48 630 48 630 48 656 c 2,27,-1
 48 674 l 2,28,29
 48 675 48 675 48 676 c 1,30,-1
 48 676 l 1,31,32
 48 680 48 680 50 683 c 128,-1,33
 52 686 52 686 56 689 c 1,34,-1
 104 689 l 1,35,-1
 114 690 l 1,36,-1
 160 690 l 2,37,38
 170 690 170 690 179 690.5 c 128,-1,39
 188 691 188 691 198 691 c 2,40,-1
 204 691 l 1,41,-1
 214 691 l 2,42,43
 216 691 216 691 218.5 691.5 c 128,-1,44
 221 692 221 692 224 692 c 2,45,-1
 266 691 l 2,46,47
 275 691 275 691 284.5 690.5 c 128,-1,48
 294 690 294 690 302.5 689 c 128,-1,49
 311 688 311 688 316.5 686 c 128,-1,50
 322 684 322 684 324 681 c 1,51,-1
 324 673 l 2,52,53
 324 655 324 655 324.5 634.5 c 128,-1,54
 325 614 325 614 325 592 c 2,55,-1
 325 583 l 1,56,-1
 324 540 l 2,57,58
 324 533 324 533 324 526.5 c 128,-1,59
 324 520 324 520 324 514 c 2,60,-1
 324 474 l 1,61,-1
 394 472 l 2,62,63
 398 472 398 472 400 471.5 c 128,-1,64
 402 471 402 471 404 471 c 0,65,66
 408 471 408 471 409.5 474 c 128,-1,67
 411 477 411 477 411.5 481.5 c 128,-1,68
 412 486 412 486 411.5 490 c 128,-1,69
 411 494 411 494 411 498 c 2,70,-1
 411 547 l 2,71,72
 411 553 411 553 411.5 557.5 c 128,-1,73
 412 562 412 562 412 568 c 2,74,-1
 412 624 l 1,75,-1
 412 646 l 1,76,-1
 412 658 l 1,77,-1
 412 666 l 2,78,79
 412 670 412 670 410 675 c 1,80,81
 410 681 410 681 412 683.5 c 128,-1,82
 414 686 414 686 416 690 c 1,83,-1
 420 694 l 1,84,85
 425 694 425 694 430.5 694 c 128,-1,86
 436 694 436 694 440 694 c 0,87,88
 447 694 447 694 454 694 c 128,-1,89
 461 694 461 694 468 694 c 2,90,-1
 596 694 l 2,91,92
 615 694 615 694 632 693 c 128,-1,93
 649 692 649 692 667 692 c 0,94,95
 678 692 678 692 684 688 c 128,-1,96
 690 684 690 684 690 667 c 0,97,98
 690 658 690 658 690 647 c 128,-1,99
 690 636 690 636 690 626 c 2,100,-1
 690 560 l 2,101,102
 690 550 690 550 689 541 c 128,-1,103
 688 532 688 532 688 522 c 0,104,105
 688 518 688 518 688.5 513 c 128,-1,106
 689 508 689 508 689 504 c 2,107,-1
 689 480 l 2,108,109
 689 467 689 467 690.5 456.5 c 128,-1,110
 692 446 692 446 692 429 c 2,111,-1
 692 398 l 2,112,113
 692 390 692 390 692 383 c 128,-1,114
 692 376 692 376 692 368 c 2,115,-1
 692 352 l 2,116,117
 692 346 692 346 692.5 340 c 128,-1,118
 693 334 693 334 693 328 c 2,119,-1
 693 321 l 2,120,121
 693 318 693 318 692 314 c 2,122,-1
 690 305 l 1,123,-1
 690 306 l 2,124,125
 690 300 690 300 690 293 c 2,126,-1
 690 281 l 1,127,-1
 690 224 l 2,128,129
 690 216 690 216 690 210 c 128,-1,130
 690 204 690 204 692 198 c 1,131,-1
 692 196 l 1,132,-1
 694 196 l 1,133,-1
 694 166 l 2,134,135
 694 150 694 150 695 135 c 128,-1,136
 696 120 696 120 696 104 c 0,137,138
 696 94 696 94 696 80 c 0,139,140
 696 74 696 74 696 68 c 0,141,142
 696 60 696 60 696 52 c 0,143,144
 695 39 695 39 690.5 29.5 c 128,-1,145
 686 20 686 20 675 20 c 0,146,147
 637 18 637 18 603.5 18 c 128,-1,148
 570 18 570 18 534 18 c 0,149,150
 504 18 504 18 476 18 c 128,-1,151
 448 18 448 18 420 20 c 1,152,-1
 412 29 l 2,153,154
 410 31 410 31 408 33.5 c 128,-1,155
 406 36 406 36 404 40 c 1,156,-1
 404 200 l 2,157,158
 404 210 404 210 404.5 220.5 c 128,-1,159
 405 231 405 231 405 242 c 0,160,161
 405 248 405 248 404.5 250.5 c 128,-1,162
 404 253 404 253 402.5 254.5 c 128,-1,163
 401 256 401 256 397.5 256 c 128,-1,164
 394 256 394 256 388 256 c 2,165,-1
 379 256 l 1,166,-1
 354 256 l 2,167,168
 340 256 340 256 328 254 c 1,169,-1
 328 238 l 2,170,171
 328 219 328 219 327.5 202 c 128,-1,172
 327 185 327 185 327 162 c 2,173,-1
 327 137 l 1,174,175
 326 127 326 127 326 117 c 2,176,-1
 326 98 l 1,177,-1
 326 74 l 1,178,-1
 326 38 l 1,179,180
 324 28 324 28 317.5 26 c 128,-1,181
 311 24 311 24 301 24 c 2,182,-1
 278 24 l 2,183,184
 242 24 242 24 204 23 c 128,-1,185
 166 22 166 22 128 22 c 2,186,-1
 78 22 l 1,187,-1
 70 22 l 1,188,-1
 62 22 l 2,189,190
 57 22 57 22 52 24 c 128,-1,191
 47 26 47 26 43.5 31 c 128,-1,192
 40 36 40 36 40 46 c 2,0,-1
EndSplineSet
EndChar

StartChar: i
Encoding: 105 105 76
Width: 372
GlyphClass: 2
Flags: W
LayerCount: 2
Fore
SplineSet
36 28 m 1,0,-1
 36 104 l 2,1,2
 36 112 36 112 37 122 c 128,-1,3
 38 132 38 132 38 142 c 2,4,-1
 38 184 l 2,5,6
 38 191 38 191 38 197.5 c 128,-1,7
 38 204 38 204 38 210 c 2,8,-1
 38 213 l 2,9,10
 38 249 38 249 38.5 282.5 c 128,-1,11
 39 316 39 316 41 350 c 1,12,-1
 42 424 l 2,13,14
 42 451 42 451 43 474.5 c 128,-1,15
 44 498 44 498 44 522 c 2,16,-1
 44 676 l 1,17,18
 46 686 46 686 53 694 c 1,19,20
 67 693 67 693 81 692.5 c 128,-1,21
 95 692 95 692 111 692 c 1,22,-1
 130 690 l 2,23,24
 151 688 151 688 172.5 688 c 128,-1,25
 194 688 194 688 216 688 c 2,26,-1
 286 688 l 1,27,-1
 300 688 l 2,28,29
 307 688 307 688 313 688 c 1,30,31
 318 687 318 687 320 684.5 c 128,-1,32
 322 682 322 682 322 672 c 2,33,-1
 322 662 l 1,34,-1
 322 539 l 1,35,-1
 322 526 l 2,36,37
 322 522 322 522 322 518 c 128,-1,38
 322 514 322 514 322 511 c 2,39,-1
 322 400 l 2,40,41
 322 386 322 386 322 369.5 c 128,-1,42
 322 353 322 353 322 336.5 c 128,-1,43
 322 320 322 320 322.5 304 c 128,-1,44
 323 288 323 288 323 275 c 2,45,-1
 323 247 l 1,46,47
 324 237 324 237 324 228 c 2,48,-1
 324 210 l 1,49,-1
 324 190 l 1,50,-1
 324 136 l 2,51,52
 324 124 324 124 324 112 c 2,53,-1
 326 87 l 1,54,-1
 326 61 l 2,55,56
 326 48 326 48 327 37 c 1,57,58
 325 27 325 27 320 24.5 c 128,-1,59
 315 22 315 22 310 22 c 2,60,-1
 296 22 l 1,61,62
 271 21 271 21 248.5 20 c 128,-1,63
 226 19 226 19 196 19 c 2,64,-1
 176 19 l 1,65,-1
 56 19 l 1,66,-1
 50 22 l 2,67,68
 48 24 48 24 45 25.5 c 128,-1,69
 42 27 42 27 36 28 c 1,0,-1
EndSplineSet
EndChar

StartChar: j
Encoding: 106 106 77
Width: 614
GlyphClass: 2
Flags: W
LayerCount: 2
Fore
SplineSet
-12 222 m 2,0,-1
 -12 240 l 2,1,2
 -12 250 -12 250 -10 256 c 128,-1,3
 -8 262 -8 262 2 262 c 0,4,5
 4 262 4 262 6 262 c 0,6,7
 10 262 10 262 12 262 c 2,8,-1
 38 262 l 2,9,10
 79 262 79 262 120.5 263 c 128,-1,11
 162 264 162 264 203 264 c 0,12,13
 216 264 216 264 222 260 c 128,-1,14
 228 256 228 256 231 249 c 128,-1,15
 234 242 234 242 234 235 c 128,-1,16
 234 228 234 228 236 221 c 128,-1,17
 238 214 238 214 242 210 c 128,-1,18
 246 206 246 206 256 206 c 0,19,20
 264 206 264 206 269 209 c 128,-1,21
 274 212 274 212 276 217 c 128,-1,22
 278 222 278 222 279.5 228 c 128,-1,23
 281 234 281 234 282 241 c 0,24,25
 282 247 282 247 282 254.5 c 128,-1,26
 282 262 282 262 283 266 c 1,27,-1
 284 266 l 1,28,-1
 284 299 l 2,29,30
 284 367 284 367 284.5 434.5 c 128,-1,31
 285 502 285 502 285 572 c 2,32,-1
 285 604 l 2,33,34
 285 612 285 612 284.5 619 c 128,-1,35
 284 626 284 626 284 634 c 2,36,-1
 284 654 l 1,37,-1
 284 664 l 2,38,39
 284 674 284 674 286 682 c 1,40,41
 290 690 290 690 300 694 c 1,42,-1
 322 694 l 2,43,44
 328 694 328 694 333 693.5 c 128,-1,45
 338 693 338 693 344 693 c 2,46,-1
 365 693 l 2,47,48
 378 693 378 693 390 692.5 c 128,-1,49
 402 692 402 692 416 692 c 2,50,-1
 428 692 l 1,51,-1
 470 692 l 1,52,-1
 504 692 l 2,53,54
 512 692 512 692 523 693 c 128,-1,55
 534 694 534 694 543.5 693 c 128,-1,56
 553 692 553 692 560.5 689 c 128,-1,57
 568 686 568 686 570 678 c 1,58,59
 568 662 568 662 568 652 c 256,60,61
 568 642 568 642 568 634 c 2,62,-1
 568 614 l 1,63,64
 566 566 566 566 565 504 c 2,65,-1
 564 378 l 1,66,-1
 564 280 l 2,67,68
 564 270 564 270 564 260 c 128,-1,69
 564 250 564 250 564 240 c 0,70,71
 564 218 564 218 561 200 c 128,-1,72
 558 182 558 182 552 165 c 128,-1,73
 546 148 546 148 537 132 c 128,-1,74
 528 116 528 116 516 98 c 1,75,76
 494 74 494 74 464 57.5 c 128,-1,77
 434 41 434 41 402.5 30.5 c 128,-1,78
 371 20 371 20 341.5 15 c 128,-1,79
 312 10 312 10 290 10 c 2,80,-1
 274 10 l 2,81,82
 268 10 268 10 262 9.5 c 128,-1,83
 256 9 256 9 250 9 c 0,84,85
 225 9 225 9 198 12 c 0,86,87
 170 16 170 16 150 22 c 0,88,89
 118 30 118 30 92 44 c 1,90,91
 66 60 66 60 43 84 c 1,92,-1
 43 83 l 1,93,94
 15 113 15 113 1.5 146.5 c 128,-1,95
 -12 180 -12 180 -12 222 c 2,0,-1
284 265 m 1,96,-1
 289 265 l 1,97,98
 289 267 289 267 288.5 267.5 c 128,-1,99
 288 268 288 268 286 268 c 1,100,-1
 284 265 l 1,96,-1
EndSplineSet
EndChar

StartChar: k
Encoding: 107 107 78
Width: 735
GlyphClass: 2
Flags: W
LayerCount: 2
Fore
SplineSet
42 39 m 1,0,-1
 42 50 l 2,1,2
 42 62 42 62 42.5 74 c 128,-1,3
 43 86 43 86 43 98 c 2,4,-1
 43 134 l 2,5,6
 43 144 43 144 43.5 153 c 128,-1,7
 44 162 44 162 44 172 c 2,8,-1
 44 380 l 2,9,10
 44 387 44 387 44 394 c 2,11,-1
 44 409 l 1,12,-1
 44 438 l 2,13,14
 44 470 44 470 44.5 503 c 128,-1,15
 45 536 45 536 45 572 c 0,16,17
 45 593 45 593 43.5 613 c 128,-1,18
 42 633 42 633 42 657 c 0,19,20
 42 669 42 669 45 679.5 c 128,-1,21
 48 690 48 690 54 696 c 1,22,-1
 130 696 l 1,23,-1
 140 696 l 2,24,25
 160 696 160 696 179.5 695 c 128,-1,26
 199 694 199 694 219 694 c 2,27,-1
 234 694 l 2,28,29
 256 694 256 694 272.5 694 c 128,-1,30
 289 694 289 694 309 692 c 1,31,32
 320 692 320 692 323 675 c 1,33,-1
 323 646 l 1,34,35
 322 623 322 623 322 599 c 2,36,-1
 322 587 l 2,37,38
 322 577 322 577 322 568 c 0,39,40
 322 548 322 548 322 529 c 2,41,-1
 322 485 l 2,42,43
 322 479 322 479 321.5 473.5 c 128,-1,44
 321 468 321 468 321 462 c 2,45,-1
 321 456 l 1,46,-1
 321 453 l 1,47,-1
 325 461 l 1,48,-1
 329 469 l 1,49,-1
 388 589 l 1,50,-1
 412 638 l 1,51,-1
 434 685 l 1,52,-1
 440 692 l 1,53,-1
 484 692 l 2,54,55
 499 692 499 692 514.5 691 c 128,-1,56
 530 690 530 690 544 690 c 2,57,-1
 582 690 l 2,58,59
 588 690 588 690 594 690.5 c 128,-1,60
 600 691 600 691 605 691 c 2,61,-1
 634 691 l 1,62,63
 634 691 634 691 641 692 c 0,64,65
 648 692 648 692 658 692 c 128,-1,66
 668 692 668 692 679 691 c 128,-1,67
 690 690 690 690 699.5 689 c 128,-1,68
 709 688 709 688 715.5 686 c 128,-1,69
 722 684 722 684 722 680 c 0,70,71
 722 678 722 678 719 672 c 0,72,73
 717 667 717 667 713 661 c 2,74,-1
 705 649 l 1,75,-1
 698 638 l 1,76,-1
 612 492 l 1,77,-1
 580 436 l 2,78,79
 563 406 563 406 547 382 c 1,80,-1
 551 372 l 1,81,82
 555 368 555 368 557 364 c 2,83,-1
 562 356 l 1,84,-1
 570 344 l 1,85,-1
 592 304 l 1,86,-1
 616 264 l 1,87,-1
 617 261 l 1,88,-1
 645 214 l 2,89,90
 659 190 659 190 675 168 c 1,91,-1
 693 139 l 2,92,93
 694 138 694 138 695 136 c 128,-1,94
 696 134 696 134 697 133 c 2,95,-1
 710 112 l 1,96,-1
 733 72 l 2,97,98
 737 66 737 66 741 57 c 2,99,-1
 748 44 l 1,100,101
 748 31 748 31 736 22 c 1,102,103
 701 24 701 24 666.5 24.5 c 128,-1,104
 632 25 632 25 596 25 c 0,105,106
 577 25 577 25 557.5 24.5 c 128,-1,107
 538 24 538 24 519 24 c 2,108,-1
 451 24 l 1,109,-1
 444 38 l 2,110,111
 440 46 440 46 436 52 c 0,112,113
 406 100 406 100 378 153 c 2,114,-1
 322 260 l 1,115,-1
 323 141 l 1,116,-1
 323 116 l 1,117,-1
 323 89 l 1,118,119
 324 75 324 75 324 62 c 2,120,-1
 324 38 l 1,121,122
 322 32 322 32 317 28 c 128,-1,123
 312 24 312 24 304 22 c 128,-1,124
 296 20 296 20 286.5 19 c 128,-1,125
 277 18 277 18 267 18 c 128,-1,126
 257 18 257 18 248.5 18.5 c 128,-1,127
 240 19 240 19 233 19 c 2,128,-1
 227 19 l 1,129,130
 204 18 204 18 186 18 c 2,131,-1
 147 18 l 1,132,-1
 124 18 l 2,133,134
 114 18 114 18 102 19 c 0,135,136
 98 19 98 19 93 18.5 c 128,-1,137
 88 18 88 18 86 18 c 2,138,-1
 56 18 l 1,139,140
 52 26 52 26 44 35 c 1,141,-1
 42 39 l 1,0,-1
EndSplineSet
EndChar

StartChar: l
Encoding: 108 108 79
Width: 563
GlyphClass: 2
Flags: W
LayerCount: 2
Fore
SplineSet
41 34 m 1,0,-1
 41 152 l 2,1,2
 41 164 41 164 41.5 174 c 128,-1,3
 42 184 42 184 42 194 c 2,4,-1
 44 226 l 2,5,6
 44 231 44 231 43.5 237 c 128,-1,7
 43 243 43 243 43 250 c 256,8,9
 43 257 43 257 43.5 264.5 c 128,-1,10
 44 272 44 272 46 279 c 1,11,12
 47 337 47 337 47.5 395.5 c 128,-1,13
 48 454 48 454 48 514 c 0,14,15
 48 532 48 532 46 558 c 0,16,17
 44 582 44 582 44 608 c 0,18,19
 44 638 44 638 48 662 c 128,-1,20
 52 686 52 686 61 694 c 1,21,22
 100 693 100 693 138 692.5 c 128,-1,23
 176 692 176 692 216 692 c 2,24,-1
 238 692 l 1,25,-1
 264 692 l 2,26,27
 276 692 276 692 290 691 c 1,28,29
 292 692 292 692 295 692 c 2,30,-1
 302 692 l 2,31,32
 304 692 304 692 307 691 c 128,-1,33
 310 690 310 690 316 690 c 2,34,-1
 319 690 l 1,35,36
 325 689 325 689 328.5 685 c 128,-1,37
 332 681 332 681 337 669 c 1,38,-1
 337 662 l 2,39,40
 337 654 337 654 336.5 646 c 128,-1,41
 336 638 336 638 336 630 c 2,42,-1
 336 608 l 1,43,44
 334 599 334 599 334 589 c 0,45,46
 334 578 334 578 334 568 c 2,47,-1
 334 546 l 2,48,49
 334 541 334 541 333 532.5 c 128,-1,50
 332 524 332 524 332 518 c 1,51,-1
 331 520 l 1,52,53
 328 521 328 521 328 522 c 2,54,-1
 328 512 l 2,55,56
 328 490 328 490 327 468 c 128,-1,57
 326 446 326 446 326 424 c 2,58,-1
 326 381 l 1,59,60
 325 365 325 365 324.5 349 c 128,-1,61
 324 333 324 333 324 317 c 2,62,-1
 324 288 l 2,63,64
 324 272 324 272 324 255 c 128,-1,65
 324 238 324 238 322 224 c 1,66,-1
 361 224 l 2,67,68
 369 224 369 224 377.5 224 c 128,-1,69
 386 224 386 224 395 224 c 2,70,-1
 489 224 l 2,71,72
 501 224 501 224 511.5 224 c 128,-1,73
 522 224 522 224 536 224 c 0,74,75
 540 224 540 224 544.5 224 c 128,-1,76
 549 224 549 224 552.5 222 c 128,-1,77
 556 220 556 220 558 217 c 128,-1,78
 560 214 560 214 560 207 c 2,79,-1
 560 143 l 1,80,-1
 560 91 l 2,81,82
 560 65 560 65 561 40 c 1,83,84
 559 28 559 28 544.5 25 c 128,-1,85
 530 22 530 22 512 22 c 2,86,-1
 478 22 l 2,87,88
 445 22 445 22 412.5 21 c 128,-1,89
 380 20 380 20 347 20 c 2,90,-1
 206 20 l 2,91,92
 198 20 198 20 189.5 19.5 c 128,-1,93
 181 19 181 19 174 19 c 2,94,-1
 171 19 l 2,95,96
 167 19 167 19 161.5 18.5 c 128,-1,97
 156 18 156 18 152 18 c 2,98,-1
 104 18 l 2,99,100
 91 18 91 18 77.5 18 c 128,-1,101
 64 18 64 18 53 18 c 1,102,103
 52 20 52 20 51 21 c 2,104,-1
 50 22 l 2,105,106
 49 23 49 23 47 25.5 c 128,-1,107
 45 28 45 28 41 34 c 1,0,-1
EndSplineSet
EndChar

StartChar: m
Encoding: 109 109 80
Width: 986
GlyphClass: 2
Flags: W
LayerCount: 2
Fore
SplineSet
52 586 m 2,0,-1
 52 675 l 2,1,2
 52 681 52 681 54 684.5 c 128,-1,3
 56 688 56 688 64 694 c 1,4,-1
 110 694 l 2,5,6
 118 694 118 694 128 694 c 128,-1,7
 138 694 138 694 146 695 c 1,8,9
 192 695 192 695 233 693.5 c 128,-1,10
 274 692 274 692 306 688 c 1,11,12
 336 686 336 686 359 686 c 1,13,-1
 404 684 l 1,14,-1
 410 684 l 1,15,16
 414 685 414 685 416 686 c 2,17,-1
 422 688 l 1,18,-1
 425 688 l 2,19,20
 427 688 427 688 429.5 687 c 128,-1,21
 432 686 432 686 432 685 c 2,22,-1
 454 572 l 1,23,-1
 466 499 l 1,24,-1
 472 469 l 1,25,26
 474 453 474 453 477 437 c 2,27,-1
 484 398 l 1,28,-1
 488 369 l 2,29,30
 490 361 490 361 492 355 c 1,31,32
 494 361 494 361 495 369.5 c 128,-1,33
 496 378 496 378 498 386 c 2,34,-1
 506 426 l 1,35,-1
 524 516 l 2,36,37
 532 561 532 561 544 608 c 1,38,-1
 558 680 l 2,39,40
 559 684 559 684 562 687 c 128,-1,41
 565 690 565 690 569 690 c 2,42,-1
 720 692 l 2,43,44
 739 692 739 692 760.5 693 c 128,-1,45
 782 694 782 694 801 694 c 2,46,-1
 890 694 l 2,47,48
 894 694 894 694 898 693 c 1,49,-1
 904 693 l 1,50,-1
 920 693 l 2,51,52
 927 693 927 693 929.5 683.5 c 128,-1,53
 932 674 932 674 933 660 c 128,-1,54
 934 646 934 646 934 630 c 128,-1,55
 934 614 934 614 934 602 c 2,56,-1
 934 525 l 1,57,-1
 934 493 l 2,58,59
 934 478 934 478 934 462 c 2,60,-1
 934 354 l 2,61,62
 934 341 934 341 933.5 327.5 c 128,-1,63
 933 314 933 314 933 300 c 0,64,65
 933 288 933 288 933.5 275 c 128,-1,66
 934 262 934 262 936 248 c 2,67,-1
 939 218 l 1,68,-1
 939 188 l 2,69,70
 939 150 939 150 938.5 113 c 128,-1,71
 938 76 938 76 938 42 c 1,72,73
 937 34 937 34 932.5 29 c 128,-1,74
 928 24 928 24 922 22 c 128,-1,75
 916 20 916 20 909 20 c 128,-1,76
 902 20 902 20 896 20 c 2,77,-1
 890 20 l 2,78,79
 843 20 843 20 797.5 19 c 128,-1,80
 752 18 752 18 704 18 c 1,81,82
 696 23 696 23 691 34.5 c 128,-1,83
 686 46 686 46 683.5 61.5 c 128,-1,84
 681 77 681 77 680 95.5 c 128,-1,85
 679 114 679 114 679 133 c 0,86,87
 679 147 679 147 679.5 161.5 c 128,-1,88
 680 176 680 176 680 188 c 0,89,90
 681 223 681 223 681 258 c 2,91,-1
 681 282 l 1,92,-1
 681 302 l 1,93,94
 680 341 680 341 682 380 c 1,95,-1
 673 342 l 2,96,97
 663 298 663 298 650.5 252 c 128,-1,98
 638 206 638 206 628 162 c 2,99,-1
 598 34 l 1,100,101
 593 25 593 25 578.5 22.5 c 128,-1,102
 564 20 564 20 548 20 c 0,103,104
 518 20 518 20 494.5 21 c 128,-1,105
 471 22 471 22 445 22 c 2,106,-1
 436 22 l 2,107,108
 429 22 429 22 423.5 21.5 c 128,-1,109
 418 21 418 21 413 21 c 0,110,111
 398 21 398 21 390.5 24.5 c 128,-1,112
 383 28 383 28 380 41 c 2,113,-1
 352 168 l 1,114,-1
 340 219 l 1,115,-1
 330 270 l 1,116,-1
 315 336 l 2,117,118
 307 370 307 370 301 402 c 2,119,-1
 297 422 l 1,120,121
 293 344 293 344 291.5 269 c 128,-1,122
 290 194 290 194 290 114 c 0,123,124
 290 94 290 94 290 75 c 128,-1,125
 290 56 290 56 290 36 c 1,126,127
 289 29 289 29 286.5 27.5 c 128,-1,128
 284 26 284 26 278 26 c 2,129,-1
 247 26 l 1,130,-1
 209 26 l 2,131,132
 188 26 188 26 169.5 25 c 128,-1,133
 151 24 151 24 135 24 c 0,134,135
 130 24 130 24 125 24.5 c 128,-1,136
 120 25 120 25 114 25 c 2,137,-1
 82 25 l 2,138,139
 71 25 71 25 62.5 27.5 c 128,-1,140
 54 30 54 30 54 36 c 0,141,142
 54 40 54 40 55.5 44 c 128,-1,143
 57 48 57 48 57 50 c 0,144,145
 55 104 55 104 54 165 c 128,-1,146
 53 226 53 226 53 287 c 0,147,148
 53 347 53 347 53.5 400.5 c 128,-1,149
 54 454 54 454 54 498 c 0,150,151
 54 520 54 520 53 542 c 128,-1,152
 52 564 52 564 52 586 c 2,0,-1
421 688 m 1,153,-1
 422 688 l 1,154,-1
 421 688 l 1,153,-1
682 383 m 1,155,-1
 682 384 l 1,156,-1
 682 383 l 1,155,-1
EndSplineSet
EndChar

StartChar: n
Encoding: 110 110 81
Width: 774
GlyphClass: 2
Flags: W
LayerCount: 2
Fore
SplineSet
34 42 m 1,0,1
 36 104 36 104 36.5 169.5 c 128,-1,2
 37 235 37 235 37.5 301.5 c 128,-1,3
 38 368 38 368 39 434 c 128,-1,4
 40 500 40 500 42 564 c 1,5,-1
 42 580 l 2,6,7
 42 585 42 585 42 589.5 c 128,-1,8
 42 594 42 594 42 599 c 2,9,-1
 42 617 l 1,10,-1
 42 626 l 2,11,12
 42 632 42 632 43 636 c 1,13,14
 43 644 43 644 42.5 654 c 128,-1,15
 42 664 42 664 42 672 c 1,16,17
 43 678 43 678 46 684 c 0,18,19
 48 690 48 690 54 690 c 1,20,-1
 58 688 l 1,21,22
 110 688 110 688 163 690 c 128,-1,23
 216 692 216 692 270 692 c 2,24,-1
 297 692 l 2,25,26
 303 692 303 692 307.5 692 c 128,-1,27
 312 692 312 692 316 692 c 2,28,-1
 354 692 l 1,29,30
 360 690 360 690 363 688 c 128,-1,31
 366 686 366 686 366 680 c 1,32,-1
 384 630 l 1,33,-1
 402 582 l 1,34,-1
 418 533 l 1,35,-1
 482 352 l 1,36,-1
 484 426 l 1,37,38
 488 492 488 492 490 553 c 128,-1,39
 492 614 492 614 492 676 c 0,40,41
 492 680 492 680 496 683 c 128,-1,42
 500 686 500 686 506 687 c 128,-1,43
 512 688 512 688 520 688.5 c 128,-1,44
 528 689 528 689 537 689 c 0,45,46
 543 689 543 689 547.5 688.5 c 128,-1,47
 552 688 552 688 558 688 c 2,48,-1
 597 688 l 2,49,50
 616 688 616 688 635 688 c 128,-1,51
 654 688 654 688 674 688 c 2,52,-1
 708 688 l 1,53,-1
 716 685 l 1,54,55
 717 643 717 643 718 601.5 c 128,-1,56
 719 560 719 560 719 518 c 1,57,58
 718 488 718 488 718 462 c 2,59,-1
 718 409 l 2,60,61
 718 375 718 375 718.5 344 c 128,-1,62
 719 313 719 313 719.5 283 c 128,-1,63
 720 253 720 253 720 223 c 0,64,65
 720 194 720 194 720 162 c 2,66,-1
 720 110 l 1,67,-1
 720 96 l 1,68,-1
 720 85 l 2,69,70
 720 80 720 80 722 76 c 1,71,-1
 722 58 l 2,72,73
 722 54 722 54 722 50 c 128,-1,74
 722 46 722 46 722 41 c 0,75,76
 720 30 720 30 712 28 c 0,77,78
 702 26 702 26 692 26 c 0,79,80
 686 26 686 26 681 26 c 128,-1,81
 676 26 676 26 674 26 c 0,82,83
 658 25 658 25 644 24.5 c 128,-1,84
 630 24 630 24 616 24 c 2,85,-1
 598 24 l 2,86,87
 586 24 586 24 574 24 c 128,-1,88
 562 24 562 24 550 24 c 2,89,-1
 481 24 l 2,90,91
 446 24 446 24 412 24 c 1,92,93
 408 25 408 25 402 37 c 128,-1,94
 396 49 396 49 389 66 c 2,95,-1
 376 102 l 1,96,-1
 364 136 l 1,97,-1
 358 154 l 1,98,-1
 323 250 l 2,99,100
 305 299 305 299 290 348 c 1,101,-1
 288 351 l 1,102,-1
 288 348 l 1,103,104
 286 298 286 298 286 249 c 128,-1,105
 286 200 286 200 284 152 c 1,106,-1
 282 50 l 2,107,108
 282 44 282 44 282 38.5 c 128,-1,109
 282 33 282 33 280 29 c 128,-1,110
 278 25 278 25 274 22.5 c 128,-1,111
 270 20 270 20 262 18 c 1,112,113
 250 18 250 18 238.5 19 c 128,-1,114
 227 20 227 20 215 20 c 2,115,-1
 146 20 l 1,116,-1
 118 20 l 2,117,118
 104 20 104 20 92 19 c 2,119,-1
 56 18 l 1,120,-1
 34 42 l 1,0,1
EndSplineSet
EndChar

StartChar: o
Encoding: 111 111 82
Width: 727
GlyphClass: 2
Flags: W
LayerCount: 2
Fore
SplineSet
9 362 m 1,0,-1
 10 373 l 2,1,2
 13 403 13 403 17 433.5 c 128,-1,3
 21 464 21 464 30 494 c 128,-1,4
 39 524 39 524 54.5 554 c 128,-1,5
 70 584 70 584 97 612 c 2,6,-1
 109 624 l 1,7,8
 124 642 124 642 142 652 c 128,-1,9
 160 662 160 662 182 672 c 2,10,-1
 201 680 l 2,11,12
 245 698 245 698 300 706 c 0,13,14
 316 708 316 708 332 708 c 128,-1,15
 348 708 348 708 362 710 c 1,16,17
 386 710 386 710 420 706 c 128,-1,18
 454 702 454 702 490 691 c 128,-1,19
 526 680 526 680 560 661 c 128,-1,20
 594 642 594 642 619 610 c 1,21,-1
 629 596 l 1,22,23
 665 551 665 551 683 495.5 c 128,-1,24
 701 440 701 440 701 366 c 0,25,26
 701 333 701 333 697.5 299.5 c 128,-1,27
 694 266 694 266 687 235 c 0,28,29
 680 203 680 203 666 179 c 0,30,31
 652 154 652 154 635 132 c 2,32,-1
 615 107 l 2,33,34
 591 77 591 77 557.5 57.5 c 128,-1,35
 524 38 524 38 486.5 27 c 128,-1,36
 449 16 449 16 410.5 11.5 c 128,-1,37
 372 7 372 7 341 7 c 0,38,39
 300 7 300 7 261.5 14.5 c 128,-1,40
 223 22 223 22 188 39 c 128,-1,41
 153 56 153 56 122 81 c 0,42,43
 92 106 92 106 66 142 c 1,44,45
 52 165 52 165 42 187.5 c 128,-1,46
 32 210 32 210 25 233 c 128,-1,47
 18 256 18 256 15 280 c 0,48,49
 12 306 12 306 10 332 c 1,50,-1
 9 362 l 1,0,-1
285 358 m 2,51,52
 285 343 285 343 285.5 324.5 c 128,-1,53
 286 306 286 306 288 286 c 128,-1,54
 290 266 290 266 294.5 247.5 c 128,-1,55
 299 229 299 229 306.5 214.5 c 128,-1,56
 314 200 314 200 325 191 c 128,-1,57
 336 182 336 182 352 182 c 0,58,59
 380 182 380 182 396.5 198.5 c 128,-1,60
 413 215 413 215 420.5 240.5 c 128,-1,61
 428 266 428 266 430 297 c 128,-1,62
 432 328 432 328 432 358 c 2,63,-1
 432 376 l 2,64,65
 432 399 432 399 429 425.5 c 128,-1,66
 426 452 426 452 418.5 475 c 128,-1,67
 411 498 411 498 396.5 513 c 128,-1,68
 382 528 382 528 360 528 c 0,69,70
 344 528 344 528 332 522 c 128,-1,71
 320 516 320 516 312.5 506 c 128,-1,72
 305 496 305 496 300.5 482 c 128,-1,73
 296 468 296 468 292 452 c 0,74,75
 289 441 289 441 287.5 428.5 c 128,-1,76
 286 416 286 416 285.5 404 c 128,-1,77
 285 392 285 392 285 380 c 2,78,-1
 285 362 l 1,79,-1
 285 358 l 2,51,52
EndSplineSet
EndChar

StartChar: p
Encoding: 112 112 83
Width: 683
GlyphClass: 2
Flags: W
LayerCount: 2
Fore
SplineSet
46 51 m 1,0,-1
 46 156 l 1,1,-1
 46 184 l 1,2,-1
 46 206 l 2,3,4
 46 218 46 218 48 228 c 1,5,-1
 48 353 l 2,6,7
 48 431 48 431 48.5 509.5 c 128,-1,8
 49 588 49 588 49 670 c 0,9,10
 49 678 49 678 53 681 c 128,-1,11
 57 684 57 684 63.5 684.5 c 128,-1,12
 70 685 70 685 78 684.5 c 128,-1,13
 86 684 86 684 96 686 c 1,14,-1
 148 686 l 1,15,16
 164 688 164 688 180 688 c 1,17,-1
 188 687 l 1,18,-1
 196 687 l 2,19,20
 212 687 212 687 228 688 c 0,21,22
 228 689 228 689 228 689.5 c 128,-1,23
 228 690 228 690 228 691 c 0,24,25
 236 693 236 693 245 693.5 c 128,-1,26
 254 694 254 694 264 694 c 0,27,28
 302 694 302 694 340 693 c 128,-1,29
 378 692 378 692 416 689 c 0,30,31
 418 688 418 688 420 688 c 2,32,-1
 425 688 l 2,33,34
 429 688 429 688 433.5 688 c 128,-1,35
 438 688 438 688 443 688 c 2,36,-1
 454 688 l 2,37,38
 490 688 490 688 523 678.5 c 128,-1,39
 556 669 556 669 588 648 c 0,40,41
 608 635 608 635 624 615 c 128,-1,42
 640 595 640 595 651.5 570.5 c 128,-1,43
 663 546 663 546 670 520 c 0,44,45
 676 494 676 494 676 468 c 0,46,47
 676 407 676 407 650 361.5 c 128,-1,48
 624 316 624 316 576 277 c 1,49,50
 540 258 540 258 503.5 250 c 128,-1,51
 467 242 467 242 428 240 c 1,52,-1
 412 238 l 2,53,54
 399 236 399 236 379.5 236 c 128,-1,55
 360 236 360 236 342 236 c 2,56,-1
 335 236 l 1,57,-1
 332 236 l 2,58,59
 330 236 330 236 327 235 c 1,60,61
 327 185 327 185 327.5 136 c 128,-1,62
 328 87 328 87 331 37 c 1,63,64
 329 27 329 27 320.5 23.5 c 128,-1,65
 312 20 312 20 292 20 c 2,66,-1
 56 20 l 1,67,68
 53 28 53 28 51 36 c 2,69,-1
 46 51 l 1,0,-1
302 402 m 1,70,71
 304 400 304 400 306 398 c 2,72,-1
 310 393 l 1,73,-1
 314 388 l 2,74,75
 316 386 316 386 315 385 c 0,76,77
 314 385 314 385 314 387 c 1,78,79
 316 386 316 386 320 386 c 0,80,81
 340 386 340 386 359 390.5 c 128,-1,82
 378 395 378 395 393 404.5 c 128,-1,83
 408 414 408 414 417 430 c 128,-1,84
 426 446 426 446 426 468 c 0,85,86
 426 492 426 492 417 506.5 c 128,-1,87
 408 521 408 521 392 528 c 128,-1,88
 376 535 376 535 357 536.5 c 128,-1,89
 338 538 338 538 317 538 c 2,90,-1
 313 538 l 1,91,92
 312 537 312 537 311 534.5 c 128,-1,93
 310 532 310 532 308 530 c 1,94,-1
 308 495 l 1,95,-1
 306 478 l 2,96,97
 304 460 304 460 303 440 c 128,-1,98
 302 420 302 420 302 402 c 1,70,71
EndSplineSet
EndChar

StartChar: q
Encoding: 113 113 84
Width: 727
GlyphClass: 2
Flags: W
LayerCount: 2
Fore
SplineSet
18 362 m 0,0,1
 18 410 18 410 27 450 c 128,-1,2
 36 490 36 490 51 523.5 c 128,-1,3
 66 557 66 557 87.5 585.5 c 128,-1,4
 109 614 109 614 135 638 c 1,5,-1
 164 661 l 2,6,7
 180 674 180 674 198 680 c 2,8,-1
 232 691 l 1,9,-1
 236 692 l 1,10,-1
 235 692 l 1,11,12
 241 694 241 694 254.5 697 c 128,-1,13
 268 700 268 700 285 703 c 128,-1,14
 302 706 302 706 320 708 c 256,15,16
 338 710 338 710 356 710 c 2,17,-1
 376 710 l 2,18,19
 416 710 416 710 453 703 c 128,-1,20
 490 696 490 696 522 682 c 128,-1,21
 554 668 554 668 581 648.5 c 128,-1,22
 608 629 608 629 628 605 c 1,23,24
 668 561 668 561 687 503.5 c 128,-1,25
 706 446 706 446 706 378 c 2,26,-1
 706 366 l 1,27,-1
 705 366 l 1,28,29
 703 321 703 321 691.5 281.5 c 128,-1,30
 680 242 680 242 655 210 c 1,31,32
 658 210 658 210 661 210 c 128,-1,33
 664 210 664 210 668 210 c 2,34,-1
 685 210 l 2,35,36
 690 210 690 210 695 210 c 128,-1,37
 700 210 700 210 706 210 c 2,38,-1
 710 210 l 1,39,-1
 728 193 l 1,40,-1
 729 156 l 1,41,-1
 729 150 l 1,42,43
 730 148 730 148 730 145 c 2,44,-1
 731 34 l 1,45,46
 727 19 727 19 713 16 c 1,47,48
 706 16 706 16 694 17 c 128,-1,49
 682 18 682 18 667 19 c 128,-1,50
 652 20 652 20 635 21 c 128,-1,51
 618 22 618 22 601 22 c 0,52,53
 567 22 567 22 535 19 c 128,-1,54
 503 16 503 16 471.5 13 c 128,-1,55
 440 10 440 10 408 7 c 0,56,57
 378 4 378 4 344 4 c 0,58,59
 264 4 264 4 202 32 c 1,60,-1
 192 36 l 1,61,-1
 172 48 l 1,62,-1
 150 62 l 1,63,-1
 139 72 l 1,64,-1
 130 78 l 1,65,66
 126 82 126 82 121 87 c 2,67,-1
 113 96 l 1,68,-1
 108 106 l 1,69,-1
 108 105 l 1,70,-1
 98 122 l 2,71,72
 92 133 92 133 84 141 c 1,73,-1
 82 142 l 1,74,-1
 75 154 l 2,75,76
 59 181 59 181 48.5 206.5 c 128,-1,77
 38 232 38 232 31 257 c 128,-1,78
 24 282 24 282 21 308 c 128,-1,79
 18 334 18 334 18 362 c 0,0,1
282 361 m 0,80,81
 282 345 282 345 282 325.5 c 128,-1,82
 282 306 282 306 284 286 c 128,-1,83
 286 266 286 266 291 247 c 128,-1,84
 296 228 296 228 304 213 c 128,-1,85
 312 198 312 198 325 189 c 128,-1,86
 338 180 338 180 357 180 c 2,87,-1
 358 180 l 2,88,89
 385 180 385 180 400.5 195 c 128,-1,90
 416 210 416 210 424.5 231.5 c 128,-1,91
 433 253 433 253 435.5 278.5 c 128,-1,92
 438 304 438 304 438 326 c 2,93,-1
 438 362 l 2,94,95
 438 380 438 380 438 406 c 128,-1,96
 438 432 438 432 432 462 c 0,97,98
 428 478 428 478 423 492 c 128,-1,99
 418 506 418 506 409.5 516 c 128,-1,100
 401 526 401 526 389 532 c 1,101,102
 376 537 376 537 360 537 c 1,103,104
 352 538 352 538 344 536 c 0,105,106
 324 530 324 530 312 512.5 c 128,-1,107
 300 495 300 495 293 470.5 c 128,-1,108
 286 446 286 446 284 417.5 c 128,-1,109
 282 389 282 389 282 361 c 0,80,81
EndSplineSet
EndChar

StartChar: r
Encoding: 114 114 85
Width: 701
GlyphClass: 2
Flags: W
LayerCount: 2
Fore
SplineSet
40 538 m 0,0,1
 40 556 40 556 41 573 c 128,-1,2
 42 590 42 590 42 607 c 0,3,4
 42 615 42 615 42.5 627.5 c 128,-1,5
 43 640 43 640 43.5 651 c 128,-1,6
 44 662 44 662 45 672 c 128,-1,7
 46 682 46 682 48 684 c 1,8,-1
 48 683 l 1,9,10
 50 688 50 688 58 688 c 2,11,-1
 139 688 l 1,12,13
 204 689 204 689 276 690.5 c 128,-1,14
 348 692 348 692 418 692 c 0,15,16
 446 692 446 692 475.5 690.5 c 128,-1,17
 505 689 505 689 533 683.5 c 128,-1,18
 561 678 561 678 586 667 c 128,-1,19
 611 656 611 656 629 636 c 1,20,21
 640 626 640 626 649 612 c 128,-1,22
 658 598 658 598 664 583 c 128,-1,23
 670 568 670 568 673 552 c 128,-1,24
 676 536 676 536 676 522 c 0,25,26
 676 470 676 470 652 430 c 128,-1,27
 628 390 628 390 576 366 c 1,28,-1
 572 364 l 1,29,30
 600 352 600 352 617 334 c 128,-1,31
 634 316 634 316 644 294 c 128,-1,32
 654 272 654 272 658 247.5 c 128,-1,33
 662 223 662 223 666 199 c 1,34,35
 670 163 670 163 677 129.5 c 128,-1,36
 684 96 684 96 694 56 c 0,37,38
 695 54 695 54 696.5 51 c 128,-1,39
 698 48 698 48 698 44 c 0,40,41
 698 37 698 37 696 31.5 c 128,-1,42
 694 26 694 26 687 26 c 0,43,44
 642 26 642 26 596 25.5 c 128,-1,45
 550 25 550 25 506 25 c 1,46,47
 488 26 488 26 470 26 c 0,48,49
 454 26 454 26 436 26 c 1,50,51
 429 28 429 28 422.5 42 c 128,-1,52
 416 56 416 56 411 76.5 c 128,-1,53
 406 97 406 97 403 120 c 0,54,55
 400 144 400 144 398 162 c 2,56,-1
 392 210 l 1,57,-1
 392 209 l 1,58,59
 390 217 390 217 388 224.5 c 128,-1,60
 386 232 386 232 381 237 c 128,-1,61
 376 242 376 242 368.5 245 c 128,-1,62
 361 248 361 248 349 248 c 2,63,-1
 326 248 l 1,64,-1
 326 172 l 2,65,66
 326 158 326 158 327 145 c 128,-1,67
 328 132 328 132 328 118 c 2,68,-1
 328 66 l 2,69,70
 328 62 328 62 328 57 c 2,71,-1
 328 48 l 2,72,73
 328 36 328 36 325.5 28 c 128,-1,74
 323 20 323 20 309 20 c 0,75,76
 307 20 307 20 304.5 20 c 128,-1,77
 302 20 302 20 300 20 c 2,78,-1
 294 20 l 1,79,80
 279 21 279 21 266 21 c 2,81,-1
 259 21 l 1,82,83
 253 20 253 20 247 20 c 0,84,85
 234 20 234 20 218 21 c 2,86,-1
 172 22 l 2,87,88
 160 22 160 22 147 21 c 128,-1,89
 134 20 134 20 121 20 c 2,90,-1
 60 20 l 1,91,-1
 50 24 l 1,92,-1
 44 28 l 1,93,-1
 44 100 l 2,94,95
 44 138 44 138 45 170.5 c 128,-1,96
 46 203 46 203 46 238 c 2,97,-1
 46 298 l 2,98,99
 46 304 46 304 46.5 309.5 c 128,-1,100
 47 315 47 315 47 321 c 256,101,102
 47 327 47 327 46.5 334.5 c 128,-1,103
 46 342 46 342 46 348 c 2,104,-1
 46 368 l 2,105,106
 46 380 46 380 47 392.5 c 128,-1,107
 48 405 48 405 48 417 c 2,108,-1
 48 431 l 2,109,110
 48 439 48 439 47 447.5 c 128,-1,111
 46 456 46 456 46 464 c 2,112,-1
 46 470 l 1,113,-1
 46 474 l 2,114,115
 46 478 46 478 46 480 c 1,116,-1
 42 480 l 1,117,118
 41 492 41 492 40.5 508 c 128,-1,119
 40 524 40 524 40 538 c 0,0,1
326 511 m 2,120,121
 326 489 326 489 327.5 467.5 c 128,-1,122
 329 446 329 446 329 424 c 1,123,-1
 331 422 l 1,124,-1
 334 418 l 2,125,126
 335 416 335 416 336.5 414.5 c 128,-1,127
 338 413 338 413 340 412 c 1,128,-1
 348 412 l 2,129,130
 361 412 361 412 376.5 415 c 128,-1,131
 392 418 392 418 405 426 c 128,-1,132
 418 434 418 434 427 448.5 c 128,-1,133
 436 463 436 463 436 486 c 0,134,135
 436 506 436 506 425 516 c 128,-1,136
 414 526 414 526 397.5 531 c 128,-1,137
 381 536 381 536 364 537 c 128,-1,138
 347 538 347 538 336 538 c 2,139,-1
 332 538 l 1,140,141
 326 536 326 536 326 530 c 2,142,-1
 326 511 l 2,120,121
EndSplineSet
EndChar

